<svg width="16" height="16" viewBox="0 0 16 16" fill="none" xmlns="http://www.w3.org/2000/svg">
<g clip-path="url(#clip0_1863_6170)">
<path fill-rule="evenodd" clip-rule="evenodd" d="M3.64468 5.92132L3.64252 5.91322C5.98813 5.28471 7.98998 3.7472 9.20431 1.64386C9.90458 0.430965 11.7262 0.664635 12.0898 2.02168L12.4537 3.37972C12.5195 3.62517 12.8236 3.85702 13.2888 3.92028C14.3762 4.06818 15.4226 4.80031 15.7312 5.95243C16.04 7.10456 15.4999 8.26176 14.632 8.93356C14.2608 9.22096 14.1134 9.57376 14.1792 9.81922L14.543 11.1773C14.9066 12.5343 13.4459 13.6475 12.233 12.9472C10.5415 11.9706 8.59191 11.5656 6.67331 11.7713C7.03364 12.0864 7.30764 12.5081 7.44078 13.0052L7.95844 14.937L6.99251 15.1958L6.47487 13.264C6.26046 12.4638 5.43795 11.9889 4.63775 12.2033L3.9938 12.3758C3.59689 12.4803 3.30068 12.5473 3.02478 12.5473C2.13162 12.5473 1.3063 12.0708 0.859717 11.2973C0.694537 11.0112 0.598346 10.6518 0.457383 10.125L0.417423 9.97582C0.276113 9.44916 0.179688 9.08976 0.179688 8.75942C0.179688 7.86622 0.656185 7.04089 1.42969 6.59434C1.71579 6.42915 2.07524 6.33296 2.60202 6.192L3.01482 6.08141C3.25696 6.01652 3.46533 5.96069 3.64468 5.92132ZM10.0703 2.14386C10.3274 1.69871 10.992 1.78824 11.1239 2.2805L13.5771 11.4361C13.709 11.9284 13.1782 12.3382 12.733 12.0812C10.8569 10.998 8.69444 10.5487 6.56608 10.7771C6.59266 10.6867 6.6124 10.5938 6.62485 10.4992C6.6522 10.2914 6.63056 10.0905 6.58977 9.88256C6.5506 9.68282 6.48657 9.44389 6.40988 9.15769L6.05607 7.83729C5.97938 7.55109 5.91537 7.31216 5.84942 7.11956C5.78078 6.91909 5.69906 6.73429 5.5715 6.56802C5.51341 6.49232 5.44988 6.42175 5.38165 6.35674C7.33904 5.49032 8.98718 4.02 10.0703 2.14386ZM13.7853 8.34929C13.8621 8.27282 13.9412 8.20369 14.0199 8.14282C14.6358 7.66602 14.9495 6.89869 14.7654 6.21125C14.5812 5.52382 13.9258 5.01614 13.154 4.91116C13.0554 4.89776 12.9523 4.87749 12.8476 4.84968L13.7853 8.34929ZM5.04776 11.0462C4.8917 11.0997 4.68659 11.155 4.38118 11.2368L4.04301 11.3274C3.42373 11.4932 3.20432 11.5473 3.02478 11.5473C2.48888 11.5473 1.99369 11.2614 1.72574 10.7973C1.6353 10.6406 1.57214 10.4216 1.40334 9.79156C1.23455 9.16162 1.17969 8.94029 1.17969 8.75942C1.17969 8.22349 1.46558 7.72829 1.92969 7.46036C2.08634 7.36989 2.30546 7.30676 2.93541 7.13796L3.25738 7.05169C3.56404 6.96956 3.76991 6.91462 3.93218 6.88282C4.09002 6.85182 4.17059 6.85062 4.22579 6.85789C4.44491 6.88676 4.6436 7.00142 4.77814 7.17676C4.81204 7.22096 4.85124 7.29136 4.90336 7.44356C4.95693 7.59996 5.01234 7.80569 5.0945 8.11236L5.4396 9.40022C5.52176 9.70689 5.57664 9.91276 5.60847 10.075C5.63943 10.2329 5.64067 10.3135 5.6334 10.3687C5.60456 10.5878 5.48984 10.7865 5.3145 10.921C5.27034 10.9549 5.19994 10.9941 5.04776 11.0462Z" fill="#14171F"/>
</g>
<defs>
<clipPath id="clip0_1863_6170">
<rect width="16" height="16" fill="white"/>
</clipPath>
</defs>
</svg>
