<svg width="17" height="17" viewBox="0 0 17 17" fill="none" xmlns="http://www.w3.org/2000/svg">
<path d="M13.8797 4.7332H10.4997V5.6732H13.893L13.8797 4.7332ZM13.1663 11.1999C12.9099 11.3698 12.6071 11.4559 12.2997 11.4465C12.0962 11.4677 11.8905 11.4467 11.6954 11.3848C11.5004 11.3228 11.3203 11.2213 11.1663 11.0865C10.8817 10.7638 10.7335 10.3431 10.753 9.9132H15.1663C15.1982 9.46556 15.1599 9.0157 15.053 8.57986C14.9496 8.16521 14.7686 7.77388 14.5197 7.42653C14.2691 7.0896 13.9454 6.81381 13.573 6.61986C13.1586 6.41556 12.7016 6.31273 12.2397 6.31986C11.8052 6.31668 11.3745 6.40055 10.973 6.56653C10.6053 6.72152 10.2722 6.94815 9.99301 7.2332C9.7146 7.52394 9.49902 7.86887 9.35967 8.24653C9.21014 8.65423 9.13561 9.08562 9.13967 9.51986C9.13281 9.96027 9.20507 10.3983 9.35301 10.8132C9.47866 11.1889 9.67812 11.5357 9.93967 11.8332C10.2103 12.1253 10.5429 12.3531 10.913 12.4999C11.3257 12.6571 11.7647 12.7341 12.2063 12.7265C12.826 12.7458 13.4377 12.5836 13.9663 12.2599C14.5003 11.8804 14.8847 11.3262 15.053 10.6932H13.5797C13.5008 10.9026 13.3557 11.0805 13.1663 11.1999ZM10.8797 8.4532C10.9316 8.28698 11.0177 8.13348 11.1325 8.00259C11.2473 7.87169 11.3883 7.76629 11.5463 7.6932C11.7556 7.59899 11.9836 7.5534 12.213 7.55986C12.3788 7.54571 12.5456 7.56757 12.7021 7.62396C12.8586 7.68034 13.001 7.76991 13.1197 7.88653C13.3462 8.16382 13.4916 8.49839 13.5397 8.8532H10.773C10.7838 8.71772 10.8084 8.58369 10.8463 8.4532H10.8797ZM7.35301 8.1332C7.69232 7.9919 7.98715 7.76157 8.20634 7.46653C8.40782 7.1532 8.50792 6.78542 8.49301 6.4132C8.50608 6.07375 8.43988 5.73594 8.29967 5.42653C8.18188 5.15847 7.9928 4.92788 7.75301 4.75986C7.49878 4.58518 7.21008 4.46697 6.90634 4.4132C6.54689 4.3378 6.18025 4.30204 5.81301 4.30653H1.83301V12.6932H5.89967C6.2708 12.6935 6.64045 12.6464 6.99967 12.5532C7.34017 12.4651 7.66276 12.3185 7.95301 12.1199C8.23417 11.925 8.46311 11.664 8.61967 11.3599C8.79295 11.0197 8.87778 10.6414 8.86634 10.2599C8.87897 9.78702 8.74634 9.32167 8.48634 8.92653C8.20673 8.52914 7.79202 8.24714 7.31967 8.1332H7.35301ZM3.67967 5.73986H5.40634C5.56497 5.73967 5.72333 5.75305 5.87967 5.77986C6.02364 5.8012 6.1619 5.85106 6.28634 5.92653C6.40657 5.99454 6.50399 6.0966 6.56634 6.21986C6.64355 6.36767 6.68035 6.53326 6.67301 6.69986C6.68543 6.84335 6.66349 6.98774 6.609 7.12106C6.55451 7.25439 6.46904 7.37281 6.35967 7.46653C6.12109 7.63055 5.8356 7.71245 5.54634 7.69986H3.67967V5.73986ZM6.90634 10.6999C6.83785 10.8357 6.73427 10.9508 6.60634 11.0332C6.47321 11.116 6.32652 11.1747 6.17301 11.2065C6.00238 11.2447 5.82784 11.2626 5.65301 11.2599H3.65301V8.95986H5.65301C5.99622 8.94483 6.33515 9.04067 6.61967 9.2332C6.74822 9.34855 6.84779 9.49255 6.91033 9.65354C6.97287 9.81453 6.99663 9.98798 6.97967 10.1599C6.9977 10.3431 6.97258 10.528 6.90634 10.6999Z" fill="#627293"/>
</svg>
