<svg width="21" height="20" viewBox="0 0 21 20" fill="none" xmlns="http://www.w3.org/2000/svg">
<path d="M17.0998 5.29167H12.8748V6.46667H17.1165L17.0998 5.29167ZM16.2082 13.375C15.8877 13.5874 15.5092 13.6951 15.1248 13.6833C14.8704 13.7099 14.6133 13.6836 14.3696 13.6061C14.1258 13.5287 13.9006 13.4018 13.7082 13.2333C13.3523 12.8299 13.1671 12.304 13.1915 11.7667H18.7082C18.7479 11.2071 18.7001 10.6448 18.5665 10.1C18.4372 9.58169 18.211 9.09253 17.8998 8.65834C17.5866 8.23717 17.182 7.89243 16.7165 7.65C16.1985 7.39462 15.6273 7.26608 15.0498 7.275C14.5068 7.27103 13.9684 7.37587 13.4665 7.58334C13.0069 7.77708 12.5905 8.06036 12.2415 8.41667C11.8935 8.7801 11.624 9.21127 11.4498 9.68334C11.2629 10.193 11.1698 10.7322 11.1748 11.275C11.1663 11.8255 11.2566 12.3731 11.4415 12.8917C11.5986 13.3613 11.8479 13.7948 12.1748 14.1667C12.5131 14.5318 12.9288 14.8165 13.3915 15C13.9074 15.1966 14.4562 15.2927 15.0082 15.2833C15.7827 15.3075 16.5474 15.1047 17.2082 14.7C17.8756 14.2257 18.3561 13.533 18.5665 12.7417H16.7248C16.6262 13.0034 16.4448 13.2258 16.2082 13.375ZM13.3498 9.94167C13.4147 9.7339 13.5224 9.54203 13.6659 9.37841C13.8094 9.21478 13.9856 9.08304 14.1832 8.99167C14.4448 8.87391 14.7297 8.81693 15.0165 8.825C15.2237 8.80731 15.4322 8.83464 15.6279 8.90512C15.8235 8.9756 16.0016 9.08757 16.1498 9.23334C16.433 9.57995 16.6147 9.99816 16.6748 10.4417H13.2165C13.23 10.2723 13.2607 10.1048 13.3082 9.94167H13.3498ZM8.9415 9.54167C9.36564 9.36506 9.73418 9.07713 10.0082 8.70834C10.26 8.31667 10.3851 7.85695 10.3665 7.39167C10.3828 6.96737 10.3001 6.5451 10.1248 6.15834C9.9776 5.82327 9.74124 5.53502 9.4415 5.325C9.12371 5.10665 8.76284 4.95889 8.38317 4.89167C7.93385 4.79743 7.47556 4.75272 7.0165 4.75834H2.0415V15.2417H7.12484C7.58875 15.242 8.0508 15.1832 8.49984 15.0667C8.92546 14.9566 9.32869 14.7733 9.6915 14.525C10.043 14.2814 10.3291 13.9552 10.5248 13.575C10.7414 13.1498 10.8475 12.677 10.8332 12.2C10.849 11.609 10.6832 11.0273 10.3582 10.5333C10.0087 10.0366 9.49027 9.6841 8.89984 9.54167H8.9415ZM4.34984 6.55H6.50817C6.70646 6.54976 6.9044 6.56649 7.09984 6.6C7.27979 6.62667 7.45262 6.689 7.60817 6.78334C7.75846 6.86835 7.88024 6.99592 7.95817 7.15C8.05469 7.33477 8.10068 7.54175 8.0915 7.75C8.10703 7.92937 8.0796 8.10985 8.01149 8.27651C7.94338 8.44316 7.83655 8.59119 7.69984 8.70834C7.4016 8.91336 7.04474 9.01574 6.68317 9H4.34984V6.55ZM8.38317 12.75C8.29755 12.9198 8.16808 13.0637 8.00817 13.1667C7.84176 13.2702 7.65839 13.3435 7.4665 13.3833C7.25322 13.4311 7.03504 13.4535 6.8165 13.45H4.3165V10.575H6.8165C7.24552 10.5562 7.66918 10.676 8.02484 10.9167C8.18551 11.0609 8.30998 11.2409 8.38816 11.4421C8.46634 11.6433 8.49603 11.8602 8.47484 12.075C8.49737 12.3041 8.46597 12.5352 8.38317 12.75Z" fill="#0062FF"/>
</svg>
