<svg width="16" height="17" viewBox="0 0 16 17" fill="none" xmlns="http://www.w3.org/2000/svg">
<path d="M5.33594 4.33337C5.0626 4.33337 4.83594 4.10671 4.83594 3.83337V1.83337C4.83594 1.56004 5.0626 1.33337 5.33594 1.33337C5.60927 1.33337 5.83594 1.56004 5.83594 1.83337V3.83337C5.83594 4.10671 5.60927 4.33337 5.33594 4.33337Z" fill="#475569"/>
<path d="M10.6641 4.33337C10.3907 4.33337 10.1641 4.10671 10.1641 3.83337V1.83337C10.1641 1.56004 10.3907 1.33337 10.6641 1.33337C10.9374 1.33337 11.1641 1.56004 11.1641 1.83337V3.83337C11.1641 4.10671 10.9374 4.33337 10.6641 4.33337Z" fill="#475569"/>
<path d="M5.66667 10.1667C5.58 10.1667 5.49333 10.1467 5.41333 10.1133C5.32667 10.08 5.26 10.0333 5.19333 9.97333C5.07333 9.84667 5 9.68 5 9.5C5 9.41334 5.02 9.32667 5.05333 9.24667C5.08667 9.16667 5.13333 9.09334 5.19333 9.02668C5.26 8.96668 5.32667 8.92 5.41333 8.88666C5.65333 8.78666 5.95333 8.84001 6.14 9.02668C6.26 9.15334 6.33333 9.32667 6.33333 9.5C6.33333 9.54 6.32667 9.58668 6.32 9.63335C6.31333 9.67335 6.3 9.71334 6.28 9.75334C6.26667 9.79334 6.24667 9.83334 6.22 9.87334C6.2 9.90667 6.16667 9.94 6.14 9.97333C6.01333 10.0933 5.84 10.1667 5.66667 10.1667Z" fill="#475569"/>
<path d="M8.0026 10.1667C7.91594 10.1667 7.82927 10.1467 7.74927 10.1134C7.6626 10.08 7.59594 10.0334 7.52927 9.97337C7.40927 9.8467 7.33594 9.68004 7.33594 9.50004C7.33594 9.41337 7.35594 9.3267 7.38927 9.2467C7.42261 9.1667 7.46927 9.09338 7.52927 9.02671C7.59594 8.96671 7.6626 8.92003 7.74927 8.8867C7.98927 8.78003 8.28927 8.84004 8.47594 9.02671C8.59594 9.15338 8.66927 9.3267 8.66927 9.50004C8.66927 9.54004 8.6626 9.58671 8.65594 9.63338C8.64927 9.67338 8.63594 9.71337 8.61594 9.75337C8.6026 9.79337 8.58261 9.83337 8.55594 9.87337C8.53594 9.9067 8.5026 9.94003 8.47594 9.97337C8.34927 10.0934 8.17594 10.1667 8.0026 10.1667Z" fill="#475569"/>
<path d="M10.3307 10.1667C10.2441 10.1667 10.1574 10.1467 10.0774 10.1134C9.99073 10.08 9.92406 10.0334 9.8574 9.97337C9.83073 9.94003 9.80406 9.9067 9.77739 9.87337C9.75073 9.83337 9.73073 9.79337 9.7174 9.75337C9.6974 9.71337 9.68406 9.67338 9.6774 9.63338C9.67073 9.58671 9.66406 9.54004 9.66406 9.50004C9.66406 9.3267 9.7374 9.15338 9.8574 9.02671C9.92406 8.96671 9.99073 8.92003 10.0774 8.8867C10.3241 8.78003 10.6174 8.84004 10.8041 9.02671C10.9241 9.15338 10.9974 9.3267 10.9974 9.50004C10.9974 9.54004 10.9907 9.58671 10.9841 9.63338C10.9774 9.67338 10.9641 9.71337 10.9441 9.75337C10.9307 9.79337 10.9107 9.83337 10.8841 9.87337C10.8641 9.9067 10.8307 9.94003 10.8041 9.97337C10.6774 10.0934 10.5041 10.1667 10.3307 10.1667Z" fill="#475569"/>
<path d="M5.66667 12.5C5.58 12.5 5.49333 12.4801 5.41333 12.4467C5.33333 12.4134 5.26 12.3667 5.19333 12.3067C5.07333 12.18 5 12.0067 5 11.8334C5 11.7467 5.02 11.66 5.05333 11.58C5.08667 11.4934 5.13333 11.42 5.19333 11.36C5.44 11.1134 5.89333 11.1134 6.14 11.36C6.26 11.4867 6.33333 11.66 6.33333 11.8334C6.33333 12.0067 6.26 12.18 6.14 12.3067C6.01333 12.4267 5.84 12.5 5.66667 12.5Z" fill="#475569"/>
<path d="M8.0026 12.5C7.82927 12.5 7.65594 12.4267 7.52927 12.3067C7.40927 12.18 7.33594 12.0067 7.33594 11.8334C7.33594 11.7467 7.35594 11.66 7.38927 11.58C7.42261 11.4934 7.46927 11.42 7.52927 11.36C7.77594 11.1134 8.22927 11.1134 8.47594 11.36C8.53594 11.42 8.5826 11.4934 8.61594 11.58C8.64927 11.66 8.66927 11.7467 8.66927 11.8334C8.66927 12.0067 8.59594 12.18 8.47594 12.3067C8.34927 12.4267 8.17594 12.5 8.0026 12.5Z" fill="#475569"/>
<path d="M10.3307 12.5001C10.1574 12.5001 9.98406 12.4267 9.8574 12.3067C9.7974 12.2467 9.75073 12.1734 9.7174 12.0867C9.68406 12.0067 9.66406 11.9201 9.66406 11.8334C9.66406 11.7467 9.68406 11.6601 9.7174 11.5801C9.75073 11.4934 9.7974 11.4201 9.8574 11.3601C10.0107 11.2067 10.2441 11.1334 10.4574 11.1801C10.5041 11.1867 10.5441 11.2001 10.5841 11.2201C10.6241 11.2334 10.6641 11.2534 10.7041 11.2801C10.7374 11.3001 10.7707 11.3334 10.8041 11.3601C10.9241 11.4867 10.9974 11.6601 10.9974 11.8334C10.9974 12.0067 10.9241 12.1801 10.8041 12.3067C10.6774 12.4267 10.5041 12.5001 10.3307 12.5001Z" fill="#475569"/>
<path d="M13.6693 7.05994H2.33594C2.0626 7.05994 1.83594 6.83327 1.83594 6.55994C1.83594 6.2866 2.0626 6.05994 2.33594 6.05994H13.6693C13.9426 6.05994 14.1693 6.2866 14.1693 6.55994C14.1693 6.83327 13.9426 7.05994 13.6693 7.05994Z" fill="#475569"/>
<path d="M10.6667 15.6667H5.33333C2.9 15.6667 1.5 14.2667 1.5 11.8334V6.16671C1.5 3.73337 2.9 2.33337 5.33333 2.33337H10.6667C13.1 2.33337 14.5 3.73337 14.5 6.16671V11.8334C14.5 14.2667 13.1 15.6667 10.6667 15.6667ZM5.33333 3.33337C3.42667 3.33337 2.5 4.26004 2.5 6.16671V11.8334C2.5 13.74 3.42667 14.6667 5.33333 14.6667H10.6667C12.5733 14.6667 13.5 13.74 13.5 11.8334V6.16671C13.5 4.26004 12.5733 3.33337 10.6667 3.33337H5.33333Z" fill="#475569"/>
</svg>
