<svg width="25" height="24" viewBox="0 0 25 24" fill="none" xmlns="http://www.w3.org/2000/svg">
<path d="M12.6667 7.5C13.9094 7.5 14.9167 6.49264 14.9167 5.25C14.9167 4.00736 13.9094 3 12.6667 3C11.4241 3 10.4167 4.00736 10.4167 5.25C10.4167 6.49264 11.4241 7.5 12.6667 7.5Z" stroke="#0245B9" stroke-width="1.5" stroke-miterlimit="10"/>
<path d="M7.27058 18.4635C8.34674 17.8422 8.71546 16.4661 8.09414 15.39C7.47282 14.3138 6.09674 13.9451 5.02058 14.5664C3.94442 15.1877 3.5757 16.5638 4.19702 17.64C4.81834 18.7161 6.19442 19.0848 7.27058 18.4635Z" stroke="#0245B9" stroke-width="1.5" stroke-miterlimit="10"/>
<path d="M21.1251 17.5993C21.7465 16.5231 21.3777 15.1471 20.3016 14.5257C19.2254 13.9044 17.8493 14.2731 17.228 15.3493C16.6067 16.4255 16.9754 17.8015 18.0516 18.4229C19.1277 19.0442 20.5038 18.6755 21.1251 17.5993Z" stroke="#0245B9" stroke-width="1.5" stroke-miterlimit="10"/>
<path d="M15.8917 19.4998C14.9167 19.9498 13.8667 20.2498 12.6667 20.2498C10.7167 20.2498 8.91675 19.4998 7.56675 18.2248M14.9167 5.5498C17.9917 6.5248 20.1667 9.3748 20.1667 12.7498C20.1667 13.3498 20.0917 13.8748 20.0167 14.3998M5.31675 14.3998C5.24175 13.8748 5.16675 13.3498 5.16675 12.7498C5.16675 9.3748 7.34175 6.5248 10.4167 5.6248" stroke="#0245B9" stroke-width="1.5" stroke-miterlimit="10"/>
</svg>
