<svg width="410" height="94" viewBox="0 0 410 94" fill="none" xmlns="http://www.w3.org/2000/svg">
<g filter="url(#filter0_d_865_267)">
<path d="M46.8648 83.3C36.1982 83.3 27.4315 79.8 20.5648 72.8C13.6982 65.8667 10.2648 57.2667 10.2648 47C10.2648 36.7333 13.6982 28.1333 20.5648 21.2C27.4315 14.2 36.1982 10.7 46.8648 10.7C53.1982 10.7 59.0648 12.2333 64.4648 15.3C69.8648 18.3667 74.0648 22.5 77.0648 27.7L68.9648 32.4C66.9648 28.5333 63.9648 25.4667 59.9648 23.2C56.0315 20.8667 51.6648 19.7 46.8648 19.7C38.7315 19.7 32.1315 22.3 27.0648 27.5C21.9982 32.6333 19.4648 39.1333 19.4648 47C19.4648 54.8 21.9982 61.2667 27.0648 66.4C32.1315 71.6 38.7315 74.2 46.8648 74.2C51.6648 74.2 56.0315 73.0667 59.9648 70.8C63.9648 68.4667 66.9648 65.4 68.9648 61.6L77.0648 66.2C74.1315 71.4 69.9648 75.5667 64.5648 78.7C59.2315 81.7667 53.3315 83.3 46.8648 83.3ZM128.702 75.7C123.636 80.7667 117.402 83.3 110.002 83.3C102.602 83.3 96.369 80.7667 91.3023 75.7C86.2357 70.6333 83.7023 64.4 83.7023 57C83.7023 49.6 86.2357 43.3667 91.3023 38.3C96.369 33.2333 102.602 30.7 110.002 30.7C117.402 30.7 123.636 33.2333 128.702 38.3C133.836 43.4333 136.402 49.6667 136.402 57C136.402 64.3333 133.836 70.5667 128.702 75.7ZM110.002 74.8C115.002 74.8 119.202 73.1 122.602 69.7C126.002 66.3 127.702 62.0667 127.702 57C127.702 51.9333 126.002 47.7 122.602 44.3C119.202 40.9 115.002 39.2 110.002 39.2C105.069 39.2 100.902 40.9 97.5023 44.3C94.1023 47.7 92.4023 51.9333 92.4023 57C92.4023 62.0667 94.1023 66.3 97.5023 69.7C100.902 73.1 105.069 74.8 110.002 74.8ZM171.559 30.7C177.425 30.7 182.125 32.5667 185.659 36.3C189.192 39.9667 190.959 44.9667 190.959 51.3V82H182.259V51.8C182.259 47.8 181.159 44.6667 178.959 42.4C176.759 40.1333 173.725 39 169.859 39C165.392 39 161.859 40.4 159.259 43.2C156.659 45.9333 155.359 50.0333 155.359 55.5V82H146.659V32H155.359V39.2C158.825 33.5333 164.225 30.7 171.559 30.7ZM228.004 30.7C233.871 30.7 238.571 32.5667 242.104 36.3C245.637 39.9667 247.404 44.9667 247.404 51.3V82H238.704V51.8C238.704 47.8 237.604 44.6667 235.404 42.4C233.204 40.1333 230.171 39 226.304 39C221.837 39 218.304 40.4 215.704 43.2C213.104 45.9333 211.804 50.0333 211.804 55.5V82H203.104V32H211.804V39.2C215.271 33.5333 220.671 30.7 228.004 30.7ZM307.549 61H265.649C266.516 65.4 268.549 68.8667 271.749 71.4C274.949 73.8667 278.949 75.1 283.749 75.1C290.349 75.1 295.149 72.6667 298.149 67.8L305.549 72C300.616 79.5333 293.283 83.3 283.549 83.3C275.683 83.3 269.216 80.8333 264.149 75.9C259.216 70.8333 256.749 64.5333 256.749 57C256.749 49.4 259.183 43.1333 264.049 38.2C268.916 33.2 275.216 30.7 282.949 30.7C290.283 30.7 296.249 33.3 300.849 38.5C305.516 43.5667 307.849 49.7667 307.849 57.1C307.849 58.3667 307.749 59.6667 307.549 61ZM282.949 38.9C278.349 38.9 274.483 40.2 271.349 42.8C268.283 45.4 266.383 48.9333 265.649 53.4H299.049C298.316 48.8 296.483 45.2333 293.549 42.7C290.616 40.1667 287.083 38.9 282.949 38.9ZM341.252 83.3C333.719 83.3 327.452 80.8 322.452 75.8C317.452 70.7333 314.952 64.4667 314.952 57C314.952 49.5333 317.452 43.3 322.452 38.3C327.452 33.2333 333.719 30.7 341.252 30.7C346.186 30.7 350.619 31.9 354.552 34.3C358.486 36.6333 361.419 39.8 363.352 43.8L356.052 48C354.786 45.3333 352.819 43.2 350.152 41.6C347.552 40 344.586 39.2 341.252 39.2C336.252 39.2 332.052 40.9 328.652 44.3C325.319 47.7667 323.652 52 323.652 57C323.652 61.9333 325.319 66.1333 328.652 69.6C332.052 73 336.252 74.7 341.252 74.7C344.586 74.7 347.586 73.9333 350.252 72.4C352.919 70.8 354.952 68.6667 356.352 66L363.752 70.3C361.552 74.3 358.452 77.4667 354.452 79.8C350.452 82.1333 346.052 83.3 341.252 83.3ZM399.542 32V40.4H386.242V67.5C386.242 69.9667 386.709 71.7333 387.642 72.8C388.642 73.8 390.142 74.3333 392.142 74.4C394.142 74.4 396.609 74.3333 399.542 74.2V82C391.876 83 386.276 82.3667 382.742 80.1C379.276 77.8333 377.542 73.6333 377.542 67.5V40.4H367.642V32H377.542V20.6L386.242 18V32H399.542Z" fill="white"/>
</g>
<defs>
<filter id="filter0_d_865_267" x="0.264832" y="0.699951" width="409.277" height="92.8" filterUnits="userSpaceOnUse" color-interpolation-filters="sRGB">
<feFlood flood-opacity="0" result="BackgroundImageFix"/>
<feColorMatrix in="SourceAlpha" type="matrix" values="0 0 0 0 0 0 0 0 0 0 0 0 0 0 0 0 0 0 127 0" result="hardAlpha"/>
<feOffset/>
<feGaussianBlur stdDeviation="5"/>
<feComposite in2="hardAlpha" operator="out"/>
<feColorMatrix type="matrix" values="0 0 0 0 1 0 0 0 0 1 0 0 0 0 1 0 0 0 0.75 0"/>
<feBlend mode="normal" in2="BackgroundImageFix" result="effect1_dropShadow_865_267"/>
<feBlend mode="normal" in="SourceGraphic" in2="effect1_dropShadow_865_267" result="shape"/>
</filter>
</defs>
</svg>
