<svg width="38" height="38" viewBox="0 0 38 38" fill="none" xmlns="http://www.w3.org/2000/svg">
<rect width="38" height="38" rx="19" fill="url(#paint0_linear_348_7515)"/>
<g clip-path="url(#clip0_348_7515)">
<path d="M24.6298 7.59697C26.1249 7.59697 27.4794 8.20335 28.4593 9.18324C29.4392 10.1631 30.0456 11.5165 30.0456 13.0128C30.0456 14.508 29.4392 15.8625 28.4593 16.8424C27.4794 17.8223 26.126 18.4286 24.6298 18.4286C23.1346 18.4286 21.7801 17.8223 20.8002 16.8424C19.8203 15.8625 19.2139 14.5091 19.2139 13.0128C19.2139 11.5177 19.8203 10.1643 20.8002 9.18324C21.7801 8.20335 23.1335 7.59697 24.6298 7.59697ZM29.6012 20.3783C29.6552 19.9947 30.0107 19.728 30.3943 19.782C30.778 19.836 31.0446 20.1927 30.9906 20.5763C30.6486 22.9467 29.545 25.0696 27.9351 26.6908C26.324 28.3119 24.2067 29.4291 21.842 29.7846C21.4583 29.8419 21.1006 29.5787 21.0432 29.1939C21.0218 29.0488 21.0454 28.9082 21.1051 28.7856L22.94 24.9402C23.1065 24.5904 23.5261 24.4419 23.876 24.6084C24.2259 24.7749 24.3744 25.1945 24.2079 25.5444L22.9951 28.0858C24.506 27.6234 25.856 26.7931 26.9417 25.7019C28.3434 24.2911 29.3042 22.4427 29.6012 20.3783ZM8.40138 16.3575C8.34625 16.7411 7.99074 17.0077 7.60711 16.9537C7.22348 16.8997 6.95685 16.5431 7.01085 16.1595C7.35173 13.7891 8.45538 11.6662 10.0653 10.045C11.6763 8.42386 13.7936 7.30671 16.1584 6.95121C16.542 6.89383 16.8998 7.15709 16.9571 7.54184C16.9785 7.68697 16.9549 7.8276 16.8953 7.95022L15.0604 11.7944C14.8939 12.1443 14.4742 12.2939 14.1243 12.1263C13.7745 11.9598 13.626 11.5402 13.7925 11.1903L15.0052 8.64886C13.4943 9.11124 12.1443 9.94038 11.0587 11.0328C9.6569 12.4435 8.69613 14.2919 8.39913 16.3552L8.40138 16.3575ZM10.9169 19.7742H15.7354C16.5308 19.7742 17.2541 20.0993 17.7784 20.6235C18.3015 21.1467 18.6267 21.8701 18.6267 22.6666V27.485C18.6267 28.2804 18.3015 29.0038 17.7784 29.5281C17.2553 30.0512 16.5319 30.3763 15.7354 30.3763H10.9169C10.1215 30.3763 9.39814 30.0512 8.87388 29.5281C8.35075 29.0049 8.02562 28.2815 8.02562 27.485V22.6666C8.02562 21.8712 8.35075 21.1478 8.87388 20.6235C9.39702 20.1004 10.1204 19.7742 10.9169 19.7742ZM15.7354 21.1804H10.9169C10.5085 21.1804 10.1373 21.3481 9.8684 21.6169C9.59952 21.8869 9.43189 22.2582 9.43189 22.6655V27.4839C9.43189 27.8923 9.59952 28.2635 9.8684 28.5324C10.1384 28.8013 10.5097 28.9689 10.9169 28.9689H15.7354C16.1437 28.9689 16.515 28.8013 16.7839 28.5324C17.0528 28.2624 17.2204 27.8912 17.2204 27.4839V22.6655C17.2204 22.2571 17.0528 21.8858 16.7839 21.6169C16.5139 21.3481 16.1426 21.1804 15.7354 21.1804ZM27.4659 10.1766C26.7403 9.451 25.7379 9.00212 24.6309 9.00212C23.5239 9.00212 22.5215 9.451 21.7958 10.1766C21.0702 10.9023 20.6213 11.9047 20.6213 13.0117C20.6213 14.1187 21.0702 15.1211 21.7958 15.8467C22.5215 16.5724 23.5239 17.0212 24.6309 17.0212C25.7379 17.0212 26.7403 16.5724 27.4659 15.8467C28.1916 15.1211 28.6404 14.1187 28.6404 13.0117C28.6404 11.9047 28.1916 10.9023 27.4659 10.1766Z" fill="#C4C3C3"/>
</g>
<defs>
<linearGradient id="paint0_linear_348_7515" x1="19" y1="0" x2="19" y2="38" gradientUnits="userSpaceOnUse">
<stop stop-color="#2F292B"/>
<stop offset="1" stop-color="#040102"/>
</linearGradient>
<clipPath id="clip0_348_7515">
<rect width="24" height="24" fill="white" transform="translate(7 6.66016)"/>
</clipPath>
</defs>
</svg>
