<svg width="332" height="94" viewBox="0 0 332 94" fill="none" xmlns="http://www.w3.org/2000/svg">
<g filter="url(#filter0_d_861_300)">
<path d="M47.025 83.3C36.3583 83.3 27.5917 79.8 20.725 72.8C13.8583 65.8667 10.425 57.2667 10.425 47C10.425 36.7333 13.8583 28.1333 20.725 21.2C27.5917 14.2 36.3583 10.7 47.025 10.7C53.3583 10.7 59.225 12.2333 64.625 15.3C70.025 18.3667 74.225 22.5 77.225 27.7L69.125 32.4C67.125 28.5333 64.125 25.4667 60.125 23.2C56.1917 20.8667 51.825 19.7 47.025 19.7C38.8917 19.7 32.2917 22.3 27.225 27.5C22.1583 32.6333 19.625 39.1333 19.625 47C19.625 54.8 22.1583 61.2667 27.225 66.4C32.2917 71.6 38.8917 74.2 47.025 74.2C51.825 74.2 56.1917 73.0667 60.125 70.8C64.125 68.4667 67.125 65.4 69.125 61.6L77.225 66.2C74.2917 71.4 70.125 75.5667 64.725 78.7C59.3917 81.7667 53.4917 83.3 47.025 83.3ZM95.8508 32V40.4C98.7174 34.2 103.917 31.1 111.451 31.1V40.2C107.184 40 103.517 41.1333 100.451 43.6C97.3841 46.0667 95.8508 50.0333 95.8508 55.5V82H87.1508V32H95.8508ZM165.229 61H123.329C124.196 65.4 126.229 68.8667 129.429 71.4C132.629 73.8667 136.629 75.1 141.429 75.1C148.029 75.1 152.829 72.6667 155.829 67.8L163.229 72C158.296 79.5333 150.962 83.3 141.229 83.3C133.362 83.3 126.896 80.8333 121.829 75.9C116.896 70.8333 114.429 64.5333 114.429 57C114.429 49.4 116.862 43.1333 121.729 38.2C126.596 33.2 132.896 30.7 140.629 30.7C147.962 30.7 153.929 33.3 158.529 38.5C163.196 43.5667 165.529 49.7667 165.529 57.1C165.529 58.3667 165.429 59.6667 165.229 61ZM140.629 38.9C136.029 38.9 132.162 40.2 129.029 42.8C125.962 45.4 124.062 48.9333 123.329 53.4H156.729C155.996 48.8 154.162 45.2333 151.229 42.7C148.296 40.1667 144.762 38.9 140.629 38.9ZM216.832 40.6V32H225.532V82H216.832V73.4C212.565 80 206.265 83.3 197.932 83.3C190.865 83.3 184.899 80.7667 180.032 75.7C175.099 70.5667 172.632 64.3333 172.632 57C172.632 49.7333 175.099 43.5333 180.032 38.4C184.965 33.2667 190.932 30.7 197.932 30.7C206.265 30.7 212.565 34 216.832 40.6ZM199.032 74.9C204.099 74.9 208.332 73.2 211.732 69.8C215.132 66.2667 216.832 62 216.832 57C216.832 51.9333 215.132 47.7 211.732 44.3C208.332 40.8333 204.099 39.1 199.032 39.1C194.032 39.1 189.832 40.8333 186.432 44.3C183.032 47.7 181.332 51.9333 181.332 57C181.332 62 183.032 66.2667 186.432 69.8C189.832 73.2 194.032 74.9 199.032 74.9ZM265.913 32V40.4H252.613V67.5C252.613 69.9667 253.08 71.7333 254.013 72.8C255.013 73.8 256.513 74.3333 258.513 74.4C260.513 74.4 262.98 74.3333 265.913 74.2V82C258.247 83 252.647 82.3667 249.113 80.1C245.647 77.8333 243.913 73.6333 243.913 67.5V40.4H234.013V32H243.913V20.6L252.613 18V32H265.913ZM321.674 61H279.774C280.641 65.4 282.674 68.8667 285.874 71.4C289.074 73.8667 293.074 75.1 297.874 75.1C304.474 75.1 309.274 72.6667 312.274 67.8L319.674 72C314.741 79.5333 307.408 83.3 297.674 83.3C289.808 83.3 283.341 80.8333 278.274 75.9C273.341 70.8333 270.874 64.5333 270.874 57C270.874 49.4 273.308 43.1333 278.174 38.2C283.041 33.2 289.341 30.7 297.074 30.7C304.408 30.7 310.374 33.3 314.974 38.5C319.641 43.5667 321.974 49.7667 321.974 57.1C321.974 58.3667 321.874 59.6667 321.674 61ZM297.074 38.9C292.474 38.9 288.608 40.2 285.474 42.8C282.408 45.4 280.508 48.9333 279.774 53.4H313.174C312.441 48.8 310.608 45.2333 307.674 42.7C304.741 40.1667 301.208 38.9 297.074 38.9Z" fill="white"/>
</g>
<defs>
<filter id="filter0_d_861_300" x="0.425049" y="0.699951" width="331.549" height="92.8" filterUnits="userSpaceOnUse" color-interpolation-filters="sRGB">
<feFlood flood-opacity="0" result="BackgroundImageFix"/>
<feColorMatrix in="SourceAlpha" type="matrix" values="0 0 0 0 0 0 0 0 0 0 0 0 0 0 0 0 0 0 127 0" result="hardAlpha"/>
<feOffset/>
<feGaussianBlur stdDeviation="5"/>
<feComposite in2="hardAlpha" operator="out"/>
<feColorMatrix type="matrix" values="0 0 0 0 1 0 0 0 0 1 0 0 0 0 1 0 0 0 0.75 0"/>
<feBlend mode="normal" in2="BackgroundImageFix" result="effect1_dropShadow_861_300"/>
<feBlend mode="normal" in="SourceGraphic" in2="effect1_dropShadow_861_300" result="shape"/>
</filter>
</defs>
</svg>
