<svg width="24" height="24" viewBox="0 0 24 24" fill="none" xmlns="http://www.w3.org/2000/svg">
<g clip-path="url(#clip0_1863_4533)">
<path d="M20.1986 8.19132L19.7986 20.2983C19.7645 21.3352 19.3277 22.318 18.5809 23.0381C17.8341 23.7583 16.836 24.159 15.7986 24.1553H8.19856C7.16179 24.159 6.16432 23.7588 5.41761 23.0396C4.6709 22.3203 4.23365 21.3385 4.19856 20.3023L3.79856 8.19132C3.78981 7.92611 3.88677 7.66827 4.06812 7.47455C4.24947 7.28083 4.50035 7.16707 4.76556 7.15832C5.03078 7.14957 5.28861 7.24653 5.48233 7.42788C5.67606 7.60923 5.78981 7.86011 5.79856 8.12532L6.19856 20.2353C6.21848 20.7523 6.43795 21.2414 6.81089 21.6C7.18383 21.9586 7.6812 22.1587 8.19856 22.1583H15.7986C16.3166 22.1587 16.8145 21.958 17.1876 21.5986C17.5606 21.2392 17.7797 20.749 17.7986 20.2313L18.1986 8.12532C18.2073 7.86011 18.3211 7.60923 18.5148 7.42788C18.7085 7.24653 18.9663 7.14957 19.2316 7.15832C19.4968 7.16707 19.7477 7.28083 19.929 7.47455C20.1103 7.66827 20.2073 7.92611 20.1986 8.19132ZM21.5216 4.16232C21.5216 4.42754 21.4162 4.68189 21.2287 4.86943C21.0411 5.05697 20.7868 5.16232 20.5216 5.16232H3.47656C3.21135 5.16232 2.95699 5.05697 2.76946 4.86943C2.58192 4.68189 2.47656 4.42754 2.47656 4.16232C2.47656 3.89711 2.58192 3.64275 2.76946 3.45522C2.95699 3.26768 3.21135 3.16232 3.47656 3.16232H6.57656C6.89341 3.16318 7.19924 3.04611 7.43454 2.83392C7.66984 2.62172 7.81778 2.32957 7.84956 2.01432C7.92336 1.27481 8.26982 0.589253 8.82146 0.09123C9.37309 -0.406793 10.0904 -0.681611 10.8336 -0.679677H13.1636C13.9067 -0.681611 14.624 -0.406793 15.1757 0.09123C15.7273 0.589253 16.0738 1.27481 16.1476 2.01432C16.1793 2.32957 16.3273 2.62172 16.5626 2.83392C16.7979 3.04611 17.1037 3.16318 17.4206 3.16232H20.5206C20.7858 3.16232 21.0401 3.26768 21.2277 3.45522C21.4152 3.64275 21.5206 3.89711 21.5206 4.16232H21.5216ZM9.58556 3.16232H14.4136C14.2822 2.86207 14.1962 2.54391 14.1586 2.21832C14.1338 1.97183 14.0184 1.74331 13.8348 1.57703C13.6511 1.41076 13.4123 1.31857 13.1646 1.31832H10.8346C10.5868 1.31857 10.348 1.41076 10.1644 1.57703C9.98072 1.74331 9.86534 1.97183 9.84056 2.21832C9.80259 2.54396 9.71731 2.86212 9.58556 3.16232ZM10.5926 18.3133V9.79832C10.5926 9.53311 10.4872 9.27875 10.2997 9.09122C10.1121 8.90368 9.85778 8.79832 9.59256 8.79832C9.32735 8.79832 9.07299 8.90368 8.88546 9.09122C8.69792 9.27875 8.59256 9.53311 8.59256 9.79832V18.3173C8.59256 18.5825 8.69792 18.8369 8.88546 19.0244C9.07299 19.212 9.32735 19.3173 9.59256 19.3173C9.85778 19.3173 10.1121 19.212 10.2997 19.0244C10.4872 18.8369 10.5926 18.5825 10.5926 18.3173V18.3133ZM15.4066 18.3133V9.79832C15.4066 9.53311 15.3012 9.27875 15.1137 9.09122C14.9261 8.90368 14.6718 8.79832 14.4066 8.79832C14.1413 8.79832 13.887 8.90368 13.6995 9.09122C13.5119 9.27875 13.4066 9.53311 13.4066 9.79832V18.3173C13.4066 18.5825 13.5119 18.8369 13.6995 19.0244C13.887 19.212 14.1413 19.3173 14.4066 19.3173C14.6718 19.3173 14.9261 19.212 15.1137 19.0244C15.3012 18.8369 15.4066 18.5825 15.4066 18.3173V18.3133Z" fill="#6B7280"/>
</g>
<defs>
<clipPath id="clip0_1863_4533">
<rect width="24" height="24" fill="white"/>
</clipPath>
</defs>
</svg>
