<svg width="16" height="16" viewBox="0 0 16 16" fill="none" xmlns="http://www.w3.org/2000/svg">
<g clip-path="url(#clip0_1344_13576)">
<path fill-rule="evenodd" clip-rule="evenodd" d="M5.66006 0.764664H10.3401C11.9534 0.764664 13.2667 2.04132 13.2667 3.57399C13.2667 4.46999 12.8174 5.27933 12.1214 5.796C12.8174 6.31333 13.2667 7.122 13.2667 8.01867C13.2667 9.55067 11.9534 10.8273 10.3401 10.8273C9.68272 10.8273 9.0754 10.616 8.58673 10.2613V12.4627C8.58673 13.9953 7.27407 15.272 5.66006 15.272C4.04673 15.272 2.7334 13.9953 2.7334 12.4627C2.7334 11.5667 3.18272 10.758 3.87872 10.2407C3.18272 9.72332 2.7334 8.91467 2.7334 8.01867C2.7334 7.122 3.18272 6.31333 3.87872 5.796C3.18272 5.27933 2.7334 4.46999 2.7334 3.57399C2.7334 2.04132 4.04673 0.764664 5.66006 0.764664ZM7.41339 10.8273H5.66006C4.70673 10.8273 3.90673 11.5573 3.90673 12.4627C3.90673 13.3687 4.70673 14.098 5.66006 14.098C6.61406 14.098 7.41339 13.3687 7.41339 12.4627V10.8273ZM8.58673 8.01867C8.58673 7.11267 9.38606 6.38267 10.3401 6.38267C11.2934 6.38267 12.0934 7.11267 12.0934 8.01867C12.0934 8.92401 11.2934 9.65399 10.3401 9.65399C9.38606 9.65399 8.58673 8.92401 8.58673 8.01867ZM5.63806 6.38334C4.69406 6.394 3.90673 7.12001 3.90673 8.01867C3.90673 8.92401 4.70673 9.65399 5.66006 9.65399H7.41339V6.38267H5.66006L5.63806 6.38334ZM7.41339 5.20933V1.93865H5.66006C4.70673 1.93865 3.90673 2.66799 3.90673 3.57399C3.90673 4.47999 4.70673 5.20933 5.66006 5.20933H7.41339ZM8.58673 5.20933H10.3401C11.2934 5.20933 12.0934 4.47999 12.0934 3.57399C12.0934 2.66799 11.2934 1.93865 10.3401 1.93865H8.58673V5.20933Z" fill="#627293"/>
</g>
<defs>
<clipPath id="clip0_1344_13576">
<rect width="16" height="16" fill="white"/>
</clipPath>
</defs>
</svg>
