<svg width="17" height="17" viewBox="0 0 17 17" fill="none" xmlns="http://www.w3.org/2000/svg">
<g clip-path="url(#clip0_1175_3608)">
<path d="M7.69531 3.16602H4.89531C3.77521 3.16602 3.21516 3.16602 2.78733 3.384C2.41101 3.57575 2.10505 3.88171 1.9133 4.25803C1.69531 4.68586 1.69531 5.24591 1.69531 6.36602V11.966C1.69531 13.0861 1.69531 13.6462 1.9133 14.074C2.10505 14.4503 2.41101 14.7563 2.78733 14.948C3.21516 15.166 3.77521 15.166 4.89531 15.166H10.4953C11.6154 15.166 12.1755 15.166 12.6033 14.948C12.9796 14.7563 13.2856 14.4503 13.4773 14.074C13.6953 13.6462 13.6953 13.0861 13.6953 11.966V9.16602" stroke="white" stroke-width="1.5" stroke-linecap="round" stroke-linejoin="round"/>
<path d="M5.69531 10.0498C5.69531 9.7237 5.69531 9.56064 5.73215 9.40719C5.76482 9.27114 5.81869 9.14108 5.89179 9.02179C5.97425 8.88723 6.08955 8.77193 6.32015 8.54133L12.6953 2.16617C13.2476 1.61388 14.143 1.61388 14.6953 2.16617C15.2476 2.71845 15.2476 3.61388 14.6953 4.16617L8.32017 10.5413C8.08957 10.7719 7.97427 10.8872 7.83971 10.9697C7.72041 11.0428 7.59035 11.0967 7.45431 11.1293C7.30086 11.1662 7.1378 11.1662 6.81167 11.1662H5.69531V10.0498Z" stroke="white" stroke-width="1.5" stroke-linecap="round" stroke-linejoin="round"/>
</g>
<defs>
<clipPath id="clip0_1175_3608">
<rect width="16" height="16" fill="white" transform="translate(0.359375 0.5)"/>
</clipPath>
</defs>
</svg>
