<svg width="17" height="17" viewBox="0 0 17 17" fill="none" xmlns="http://www.w3.org/2000/svg">
<g clip-path="url(#clip0_1175_3411)">
<path d="M8.19531 3.16602H5.39531C4.27521 3.16602 3.71516 3.16602 3.28733 3.384C2.91101 3.57575 2.60505 3.88171 2.4133 4.25803C2.19531 4.68586 2.19531 5.24591 2.19531 6.36602V11.966C2.19531 13.0861 2.19531 13.6462 2.4133 14.074C2.60505 14.4503 2.91101 14.7563 3.28733 14.948C3.71516 15.166 4.27521 15.166 5.39531 15.166H10.9953C12.1154 15.166 12.6755 15.166 13.1033 14.948C13.4796 14.7563 13.7856 14.4503 13.9773 14.074C14.1953 13.6462 14.1953 13.0861 14.1953 11.966V9.16602" stroke="black" stroke-width="1.5" stroke-linecap="round" stroke-linejoin="round"/>
<path d="M6.19531 10.0498C6.19531 9.7237 6.19531 9.56064 6.23215 9.40719C6.26482 9.27114 6.31869 9.14108 6.39179 9.02179C6.47425 8.88723 6.58955 8.77193 6.82015 8.54133L13.1953 2.16617C13.7476 1.61388 14.643 1.61388 15.1953 2.16617C15.7476 2.71845 15.7476 3.61388 15.1953 4.16617L8.82017 10.5413C8.58957 10.7719 8.47427 10.8872 8.33971 10.9697C8.22041 11.0428 8.09035 11.0967 7.95431 11.1293C7.80086 11.1662 7.6378 11.1662 7.31167 11.1662H6.19531V10.0498Z" stroke="black" stroke-width="1.5" stroke-linecap="round" stroke-linejoin="round"/>
</g>
<defs>
<clipPath id="clip0_1175_3411">
<rect width="16" height="16" fill="white" transform="translate(0.859375 0.5)"/>
</clipPath>
</defs>
</svg>
