<svg width="348" height="95" viewBox="0 0 348 95" fill="none" xmlns="http://www.w3.org/2000/svg">
<g filter="url(#filter0_d_861_50)">
<path d="M19.9523 52V74.2H52.4523V83H10.6523V13H51.9523V21.8H19.9523V43.3H49.4523V52H19.9523ZM71.4797 83H62.7797V10H71.4797V83ZM132.752 62H90.8523C91.719 66.4 93.7523 69.8667 96.9523 72.4C100.152 74.8667 104.152 76.1 108.952 76.1C115.552 76.1 120.352 73.6667 123.352 68.8L130.752 73C125.819 80.5333 118.486 84.3 108.752 84.3C100.886 84.3 94.419 81.8333 89.3523 76.9C84.419 71.8333 81.9523 65.5333 81.9523 58C81.9523 50.4 84.3857 44.1333 89.2523 39.2C94.119 34.2 100.419 31.7 108.152 31.7C115.486 31.7 121.452 34.3 126.052 39.5C130.719 44.5667 133.052 50.7667 133.052 58.1C133.052 59.3667 132.952 60.6667 132.752 62ZM108.152 39.9C103.552 39.9 99.6857 41.2 96.5523 43.8C93.4857 46.4 91.5857 49.9333 90.8523 54.4H124.252C123.519 49.8 121.686 46.2333 118.752 43.7C115.819 41.1667 112.286 39.9 108.152 39.9ZM160.4 73.7L176.1 33H185.5L165.5 83H155.3L135.3 33H144.7L160.4 73.7ZM232.305 41.6V33H241.005V83H232.305V74.4C228.038 81 221.738 84.3 213.405 84.3C206.338 84.3 200.371 81.7667 195.505 76.7C190.571 71.5667 188.105 65.3333 188.105 58C188.105 50.7333 190.571 44.5333 195.505 39.4C200.438 34.2667 206.405 31.7 213.405 31.7C221.738 31.7 228.038 35 232.305 41.6ZM214.505 75.9C219.571 75.9 223.805 74.2 227.205 70.8C230.605 67.2667 232.305 63 232.305 58C232.305 52.9333 230.605 48.7 227.205 45.3C223.805 41.8333 219.571 40.1 214.505 40.1C209.505 40.1 205.305 41.8333 201.905 45.3C198.505 48.7 196.805 52.9333 196.805 58C196.805 63 198.505 67.2667 201.905 70.8C205.305 74.2 209.505 75.9 214.505 75.9ZM281.386 33V41.4H268.086V68.5C268.086 70.9667 268.553 72.7333 269.486 73.8C270.486 74.8 271.986 75.3333 273.986 75.4C275.986 75.4 278.453 75.3333 281.386 75.2V83C273.719 84 268.119 83.3667 264.586 81.1C261.119 78.8333 259.386 74.6333 259.386 68.5V41.4H249.486V33H259.386V21.6L268.086 19V33H281.386ZM337.147 62H295.247C296.114 66.4 298.147 69.8667 301.347 72.4C304.547 74.8667 308.547 76.1 313.347 76.1C319.947 76.1 324.747 73.6667 327.747 68.8L335.147 73C330.214 80.5333 322.88 84.3 313.147 84.3C305.28 84.3 298.814 81.8333 293.747 76.9C288.814 71.8333 286.347 65.5333 286.347 58C286.347 50.4 288.78 44.1333 293.647 39.2C298.514 34.2 304.814 31.7 312.547 31.7C319.88 31.7 325.847 34.3 330.447 39.5C335.114 44.5667 337.447 50.7667 337.447 58.1C337.447 59.3667 337.347 60.6667 337.147 62ZM312.547 39.9C307.947 39.9 304.08 41.2 300.947 43.8C297.88 46.4 295.98 49.9333 295.247 54.4H328.647C327.914 49.8 326.08 46.2333 323.147 43.7C320.214 41.1667 316.68 39.9 312.547 39.9Z" fill="white"/>
</g>
<defs>
<filter id="filter0_d_861_50" x="0.652344" y="0" width="346.794" height="94.5" filterUnits="userSpaceOnUse" color-interpolation-filters="sRGB">
<feFlood flood-opacity="0" result="BackgroundImageFix"/>
<feColorMatrix in="SourceAlpha" type="matrix" values="0 0 0 0 0 0 0 0 0 0 0 0 0 0 0 0 0 0 127 0" result="hardAlpha"/>
<feOffset/>
<feGaussianBlur stdDeviation="5"/>
<feComposite in2="hardAlpha" operator="out"/>
<feColorMatrix type="matrix" values="0 0 0 0 1 0 0 0 0 1 0 0 0 0 1 0 0 0 0.75 0"/>
<feBlend mode="normal" in2="BackgroundImageFix" result="effect1_dropShadow_861_50"/>
<feBlend mode="normal" in="SourceGraphic" in2="effect1_dropShadow_861_50" result="shape"/>
</filter>
</defs>
</svg>
