<svg width="16" height="16" viewBox="0 0 16 16" fill="none" xmlns="http://www.w3.org/2000/svg">
<path d="M9.99967 15.1667H5.99967C2.37967 15.1667 0.833008 13.62 0.833008 10V6.00004C0.833008 2.38004 2.37967 0.833374 5.99967 0.833374H7.33301C7.60634 0.833374 7.83301 1.06004 7.83301 1.33337C7.83301 1.60671 7.60634 1.83337 7.33301 1.83337H5.99967C2.92634 1.83337 1.83301 2.92671 1.83301 6.00004V10C1.83301 13.0734 2.92634 14.1667 5.99967 14.1667H9.99967C13.073 14.1667 14.1663 13.0734 14.1663 10V8.66671C14.1663 8.39337 14.393 8.16671 14.6663 8.16671C14.9397 8.16671 15.1663 8.39337 15.1663 8.66671V10C15.1663 13.62 13.6197 15.1667 9.99967 15.1667Z" fill="#0062FF"/>
<path d="M5.66688 11.7934C5.26022 11.7934 4.88688 11.6467 4.61355 11.38C4.28688 11.0534 4.14688 10.58 4.22022 10.08L4.50688 8.07337C4.56022 7.68671 4.81355 7.18671 5.08688 6.91337L10.3402 1.66004C11.6669 0.333372 13.0135 0.333372 14.3402 1.66004C15.0669 2.38671 15.3935 3.12671 15.3269 3.86671C15.2669 4.46671 14.9469 5.05337 14.3402 5.65337L9.08688 10.9067C8.81355 11.18 8.31355 11.4334 7.92688 11.4867L5.92022 11.7734C5.83355 11.7934 5.74688 11.7934 5.66688 11.7934ZM11.0469 2.36671L5.79355 7.62004C5.66688 7.74671 5.52022 8.04004 5.49355 8.21337L5.20688 10.22C5.18022 10.4134 5.22022 10.5734 5.32022 10.6734C5.42022 10.7734 5.58022 10.8134 5.77355 10.7867L7.78022 10.5C7.95355 10.4734 8.25355 10.3267 8.37355 10.2L13.6269 4.94671C14.0602 4.51337 14.2869 4.12671 14.3202 3.76671C14.3602 3.33337 14.1335 2.87337 13.6269 2.36004C12.5602 1.29337 11.8269 1.59337 11.0469 2.36671Z" fill="#0062FF"/>
<path d="M13.233 6.55331C13.1864 6.55331 13.1397 6.54664 13.0997 6.53331C11.3464 6.03998 9.95305 4.64664 9.45971 2.89331C9.38638 2.62664 9.53971 2.35331 9.80638 2.27331C10.073 2.19998 10.3464 2.35331 10.4197 2.61998C10.8197 4.03998 11.9464 5.16664 13.3664 5.56664C13.633 5.63998 13.7864 5.91998 13.713 6.18664C13.653 6.41331 13.453 6.55331 13.233 6.55331Z" fill="#0062FF"/>
</svg>
