<svg width="17" height="17" viewBox="0 0 17 17" fill="none" xmlns="http://www.w3.org/2000/svg">
<path d="M2.11342 8.9761C2.02262 8.83234 1.97723 8.76046 1.95182 8.64959C1.93273 8.56632 1.93273 8.43498 1.95182 8.35171C1.97723 8.24084 2.02262 8.16896 2.11341 8.0252C2.86369 6.83721 5.09693 3.83398 8.50027 3.83398C11.9036 3.83398 14.1369 6.83721 14.8871 8.0252C14.9779 8.16896 15.0233 8.24084 15.0487 8.35171C15.0678 8.43498 15.0678 8.56632 15.0487 8.64959C15.0233 8.76046 14.9779 8.83234 14.8871 8.9761C14.1369 10.1641 11.9036 13.1673 8.50027 13.1673C5.09693 13.1673 2.86369 10.1641 2.11342 8.9761Z" stroke="black" stroke-width="1.5" stroke-linecap="round" stroke-linejoin="round"/>
<path d="M8.50027 10.5007C9.60484 10.5007 10.5003 9.60522 10.5003 8.50065C10.5003 7.39608 9.60484 6.50065 8.50027 6.50065C7.3957 6.50065 6.50027 7.39608 6.50027 8.50065C6.50027 9.60522 7.3957 10.5007 8.50027 10.5007Z" stroke="black" stroke-width="1.5" stroke-linecap="round" stroke-linejoin="round"/>
</svg>
