<svg width="20" height="21" viewBox="0 0 20 21" fill="none" xmlns="http://www.w3.org/2000/svg">
<g clip-path="url(#clip0_1175_4014)">
<path fill-rule="evenodd" clip-rule="evenodd" d="M7.07533 1.45605H12.9253C14.942 1.45605 16.5836 3.05188 16.5836 4.96771C16.5836 6.08771 16.022 7.09939 15.152 7.74522C16.022 8.39189 16.5836 9.40273 16.5836 10.5236C16.5836 12.4386 14.942 14.0344 12.9253 14.0344C12.1036 14.0344 11.3445 13.7702 10.7337 13.3269V16.0786C10.7337 17.9944 9.09282 19.5902 7.07533 19.5902C5.05866 19.5902 3.41699 17.9944 3.41699 16.0786C3.41699 14.9586 3.97865 13.9477 4.84865 13.301C3.97865 12.6544 3.41699 11.6436 3.41699 10.5236C3.41699 9.40273 3.97865 8.39189 4.84865 7.74522C3.97865 7.09939 3.41699 6.08771 3.41699 4.96771C3.41699 3.05188 5.05866 1.45605 7.07533 1.45605ZM9.26698 14.0344H7.07533C5.88366 14.0344 4.88365 14.9469 4.88365 16.0786C4.88365 17.2111 5.88366 18.1227 7.07533 18.1227C8.26783 18.1227 9.26698 17.2111 9.26698 16.0786V14.0344ZM10.7337 10.5236C10.7337 9.39106 11.7328 8.47856 12.9253 8.47856C14.117 8.47856 15.117 9.39106 15.117 10.5236C15.117 11.6552 14.117 12.5677 12.9253 12.5677C11.7328 12.5677 10.7337 11.6552 10.7337 10.5236ZM7.04782 8.4794C5.86782 8.49273 4.88365 9.40023 4.88365 10.5236C4.88365 11.6552 5.88366 12.5677 7.07533 12.5677H9.26698V8.47856H7.07533L7.04782 8.4794ZM9.26698 7.01188V2.92354H7.07533C5.88366 2.92354 4.88365 3.83521 4.88365 4.96771C4.88365 6.10021 5.88366 7.01188 7.07533 7.01188H9.26698ZM10.7337 7.01188H12.9253C14.117 7.01188 15.117 6.10021 15.117 4.96771C15.117 3.83521 14.117 2.92354 12.9253 2.92354H10.7337V7.01188Z" fill="#0062FF"/>
</g>
<defs>
<clipPath id="clip0_1175_4014">
<rect width="20" height="20" fill="white" transform="translate(0 0.5)"/>
</clipPath>
</defs>
</svg>
