<svg width="24" height="25" viewBox="0 0 24 25" fill="none" xmlns="http://www.w3.org/2000/svg">
<path d="M21 1.5L3 1.5C2.73478 1.5 2.48043 1.60536 2.29289 1.79289C2.10536 1.98043 2 2.23478 2 2.5L2 7.5L22 7.5L22 2.5C22 2.23478 21.8946 1.98043 21.7071 1.79289C21.5196 1.60536 21.2652 1.5 21 1.5Z" fill="#80B1FF"/>
<path d="M3 23.5L21 23.5C21.2652 23.5 21.5196 23.3946 21.7071 23.2071C21.8946 23.0196 22 22.7652 22 22.5L22 17.5L2 17.5L2 22.5C2 22.7652 2.10536 23.0196 2.29289 23.2071C2.48043 23.3946 2.73478 23.5 3 23.5Z" fill="#0062FF"/>
<path d="M2 15.5L2 9.5L22 9.5L22 15.5L2 15.5Z" fill="#80B1FF"/>
</svg>
