<svg width="38" height="38" viewBox="0 0 38 38" fill="none" xmlns="http://www.w3.org/2000/svg">
<rect width="38" height="38" rx="19" fill="url(#paint0_linear_348_7524)"/>
<path d="M18.25 18.2852C18.4571 18.2852 18.625 18.1173 18.625 17.9102C18.625 17.703 18.4571 17.5352 18.25 17.5352C18.0429 17.5352 17.875 17.703 17.875 17.9102C17.875 18.1173 18.0429 18.2852 18.25 18.2852Z" fill="#C2C2C4"/>
<path d="M28.75 17.5352C28.8495 17.5352 28.9448 17.4957 29.0152 17.4253C29.0855 17.355 29.125 17.2596 29.125 17.1602V14.8577C29.4785 14.7664 29.7866 14.5493 29.9915 14.2472C30.1964 13.945 30.2841 13.5785 30.238 13.2163C30.192 12.8541 30.0155 12.5211 29.7416 12.2798C29.4677 12.0384 29.1151 11.9053 28.75 11.9053C28.3849 11.9053 28.0324 12.0384 27.7584 12.2798C27.4845 12.5211 27.308 12.8541 27.262 13.2163C27.216 13.5785 27.3036 13.945 27.5085 14.2472C27.7134 14.5493 28.0215 14.7664 28.375 14.8577V16.7852H22V15.6602H20.875V9.28516H22.8025C22.8938 9.63866 23.1108 9.94673 23.413 10.1516C23.7152 10.3565 24.0817 10.4442 24.4439 10.3982C24.8061 10.3522 25.139 10.1757 25.3804 9.90175C25.6217 9.62781 25.7549 9.27525 25.7549 8.91016C25.7549 8.54507 25.6217 8.19251 25.3804 7.91857C25.139 7.64463 24.8061 7.46812 24.4439 7.42212C24.0817 7.37611 23.7152 7.46378 23.413 7.66868C23.1108 7.87359 22.8938 8.18166 22.8025 8.53516H20.5C20.4005 8.53516 20.3052 8.57467 20.2348 8.64499C20.1645 8.71532 20.125 8.8107 20.125 8.91016V15.6602H19.375V11.9102H18.625V15.6602H17.875V8.91016C17.875 8.8107 17.8355 8.71532 17.7652 8.64499C17.6948 8.57467 17.5995 8.53516 17.5 8.53516H15.1975C15.1062 8.18166 14.8892 7.87359 14.587 7.66868C14.2848 7.46378 13.9183 7.37611 13.5561 7.42212C13.1939 7.46812 12.861 7.64463 12.6196 7.91857C12.3783 8.19251 12.2451 8.54507 12.2451 8.91016C12.2451 9.27525 12.3783 9.62781 12.6196 9.90175C12.861 10.1757 13.1939 10.3522 13.5561 10.3982C13.9183 10.4442 14.2848 10.3565 14.587 10.1516C14.8892 9.94673 15.1062 9.63866 15.1975 9.28516H17.125V15.6602H16V16.7852H9.625V14.8577C9.9785 14.7664 10.2866 14.5493 10.4915 14.2472C10.6964 13.945 10.7841 13.5785 10.738 13.2163C10.692 12.8541 10.5155 12.5211 10.2416 12.2798C9.96765 12.0384 9.61509 11.9053 9.25 11.9053C8.88491 11.9053 8.53236 12.0384 8.25842 12.2798C7.98448 12.5211 7.80796 12.8541 7.76196 13.2163C7.71596 13.5785 7.80362 13.945 8.00853 14.2472C8.21343 14.5493 8.52151 14.7664 8.875 14.8577V17.1602C8.875 17.2596 8.91451 17.355 8.98484 17.4253C9.05516 17.4957 9.15055 17.5352 9.25 17.5352H16V18.2852H12.25V19.0352H16V19.7852H9.25C9.15055 19.7852 9.05516 19.8247 8.98484 19.895C8.91451 19.9653 8.875 20.0607 8.875 20.1602V22.4627C8.52151 22.5539 8.21343 22.771 8.00853 23.0732C7.80362 23.3753 7.71596 23.7419 7.76196 24.104C7.80796 24.4662 7.98448 24.7992 8.25842 25.0405C8.53236 25.2819 8.88491 25.415 9.25 25.415C9.61509 25.415 9.96765 25.2819 10.2416 25.0405C10.5155 24.7992 10.692 24.4662 10.738 24.104C10.7841 23.7419 10.6964 23.3753 10.4915 23.0732C10.2866 22.771 9.9785 22.5539 9.625 22.4627V20.5352H16V21.6602H17.125V28.0352H15.1975C15.1062 27.6817 14.8892 27.3736 14.587 27.1687C14.2848 26.9638 13.9183 26.8761 13.5561 26.9221C13.1939 26.9681 12.861 27.1446 12.6196 27.4186C12.3783 27.6925 12.2451 28.0451 12.2451 28.4102C12.2451 28.7753 12.3783 29.1278 12.6196 29.4017C12.861 29.6757 13.1939 29.8522 13.5561 29.8982C13.9183 29.9442 14.2848 29.8565 14.587 29.6516C14.8892 29.4467 15.1062 29.1387 15.1975 28.7852H17.5C17.5995 28.7852 17.6948 28.7457 17.7652 28.6753C17.8355 28.605 17.875 28.5096 17.875 28.4102V21.6602H18.625V25.4102H19.375V21.6602H20.125V28.4102C20.125 28.5096 20.1645 28.605 20.2348 28.6753C20.3052 28.7457 20.4005 28.7852 20.5 28.7852H22.8025C22.8938 29.1387 23.1108 29.4467 23.413 29.6516C23.7152 29.8565 24.0817 29.9442 24.4439 29.8982C24.8061 29.8522 25.139 29.6757 25.3804 29.4017C25.6217 29.1278 25.7549 28.7753 25.7549 28.4102C25.7549 28.0451 25.6217 27.6925 25.3804 27.4186C25.139 27.1446 24.8061 26.9681 24.4439 26.9221C24.0817 26.8761 23.7152 26.9638 23.413 27.1687C23.1108 27.3736 22.8938 27.6817 22.8025 28.0352H20.875V21.6602H22V20.5352H28.375V22.4627C28.0215 22.5539 27.7134 22.771 27.5085 23.0732C27.3036 23.3753 27.216 23.7419 27.262 24.104C27.308 24.4662 27.4845 24.7992 27.7584 25.0405C28.0324 25.2819 28.3849 25.415 28.75 25.415C29.1151 25.415 29.4677 25.2819 29.7416 25.0405C30.0155 24.7992 30.192 24.4662 30.238 24.104C30.2841 23.7419 30.1964 23.3753 29.9915 23.0732C29.7866 22.771 29.4785 22.5539 29.125 22.4627V20.1602C29.125 20.0607 29.0855 19.9653 29.0152 19.895C28.9448 19.8247 28.8495 19.7852 28.75 19.7852H22V19.0352H25.75V18.2852H22V17.5352H28.75ZM19.375 20.5352H17.125V19.7852H19.375V20.5352ZM18.25 19.0352C18.0275 19.0352 17.81 18.9692 17.625 18.8456C17.44 18.7219 17.2958 18.5462 17.2106 18.3407C17.1255 18.1351 17.1032 17.9089 17.1466 17.6907C17.19 17.4725 17.2972 17.272 17.4545 17.1147C17.6118 16.9573 17.8123 16.8502 18.0305 16.8068C18.2488 16.7634 18.475 16.7856 18.6805 16.8708C18.8861 16.9559 19.0618 17.1001 19.1854 17.2851C19.309 17.4701 19.375 17.6877 19.375 17.9102C19.375 18.2085 19.2565 18.4947 19.0455 18.7057C18.8345 18.9166 18.5484 19.0352 18.25 19.0352ZM20.875 19.0352H20.125V16.7852H20.875V19.0352Z" fill="#C2C2C4"/>
<defs>
<linearGradient id="paint0_linear_348_7524" x1="19" y1="0" x2="19" y2="38" gradientUnits="userSpaceOnUse">
<stop stop-color="#2F292B"/>
<stop offset="1" stop-color="#040102"/>
</linearGradient>
</defs>
</svg>
