<svg width="21" height="20" viewBox="0 0 21 20" fill="none" xmlns="http://www.w3.org/2000/svg">
<path d="M7.90848 8.33464H4.75763C4.29534 8.33087 3.85037 8.51085 3.52085 8.83505C3.19121 9.15924 3.00389 9.6011 3 10.0634V16.6062C3.00855 17.5686 3.79538 18.3418 4.75763 18.3338H7.90848C8.37089 18.3377 8.81574 18.1577 9.14538 17.8335C9.47502 17.5093 9.66234 17.0675 9.66612 16.6051V10.0634C9.66234 9.6011 9.47502 9.15924 9.14538 8.83505C8.81574 8.51085 8.37089 8.33087 7.90848 8.33464ZM7.90848 1.66864H4.75763C3.81471 1.64253 3.02844 2.38447 3 3.32739V4.45396C3.02844 5.39689 3.81471 6.13882 4.75763 6.11272H7.90848C8.85152 6.13882 9.63768 5.39689 9.66612 4.45396V3.32739C9.63768 2.38447 8.85152 1.64253 7.90848 1.66864ZM13.6458 11.6679H16.7955C17.2581 11.672 17.7032 11.4922 18.0331 11.168C18.363 10.8437 18.5505 10.4017 18.5543 9.93918V3.39749C18.5505 2.93509 18.3632 2.49324 18.0335 2.16904C17.7039 1.84485 17.2591 1.66486 16.7966 1.66875H13.6458C13.1835 1.66486 12.7385 1.84485 12.409 2.16904C12.0794 2.49324 11.892 2.93509 11.8882 3.39749V9.93918C11.892 10.4015 12.0794 10.8433 12.409 11.1675C12.7385 11.4917 13.1835 11.6717 13.6458 11.6679ZM13.6458 18.3339H16.7955C17.739 18.3607 18.5258 17.6185 18.5543 16.6752V15.5486C18.5258 14.6057 17.7397 13.8637 16.7966 13.8899H13.6458C12.7029 13.8637 11.9166 14.6057 11.8882 15.5486V16.6741C11.916 17.6174 12.7024 18.36 13.6458 18.3339Z" stroke="white" stroke-width="1.5" stroke-linecap="round" stroke-linejoin="round"/>
</svg>
