<svg width="21" height="22" viewBox="0 0 21 22" fill="none" xmlns="http://www.w3.org/2000/svg">
<path d="M7.39018 9.00001H3.60916C3.05441 8.99548 2.52045 9.21146 2.12501 9.6005C1.72945 9.98953 1.50467 10.5198 1.5 11.0745V18.9259C1.51027 20.0807 2.45445 21.0086 3.60916 20.999H7.39018C7.94507 21.0037 8.47889 20.7877 8.87446 20.3987C9.27003 20.0096 9.49481 19.4794 9.49934 18.9245V11.0745C9.49481 10.5198 9.27003 9.98953 8.87446 9.6005C8.47889 9.21146 7.94507 8.99548 7.39018 9.00001ZM7.39018 1.0008H3.60916C2.47765 0.969471 1.53413 1.8598 1.5 2.99131V4.34319C1.53413 5.4747 2.47765 6.36503 3.60916 6.3337H7.39018C8.52182 6.36503 9.46521 5.4747 9.49934 4.34319V2.99131C9.46521 1.8598 8.52182 0.969471 7.39018 1.0008ZM14.275 12.9999H18.0546C18.6097 13.0049 19.1439 12.789 19.5397 12.4C19.9355 12.0108 20.1606 11.4805 20.1651 10.9255V3.07543C20.1606 2.52054 19.9358 1.99032 19.5402 1.60129C19.1447 1.21225 18.6109 0.996269 18.056 1.00094H14.275C13.7202 0.996269 13.1862 1.21225 12.7908 1.60129C12.3952 1.99032 12.1705 2.52054 12.1658 3.07543V10.9255C12.1705 11.4802 12.3952 12.0104 12.7908 12.3995C13.1862 12.7885 13.7202 13.0045 14.275 12.9999ZM14.275 20.9992H18.0546C19.1868 21.0313 20.131 20.1407 20.1651 19.0087V17.6568C20.131 16.5253 19.1876 15.6349 18.056 15.6663H14.275C13.1434 15.6349 12.1999 16.5253 12.1658 17.6568V19.0073C12.1993 20.1394 13.1429 21.0305 14.275 20.9992Z" stroke="#0245B9" stroke-width="1.5" stroke-linecap="round" stroke-linejoin="round"/>
</svg>
