<svg width="16" height="17" viewBox="0 0 16 17" fill="none" xmlns="http://www.w3.org/2000/svg">
<path d="M7.99969 1.99756C6.41668 1.99762 4.88533 2.56097 3.67967 3.58679C2.474 4.61261 1.67269 6.03397 1.41911 7.59655C1.16554 9.15912 1.47624 10.7609 2.29563 12.1154C3.11501 13.4698 4.38962 14.4885 5.89137 14.9892C6.22471 15.0476 6.34971 14.8476 6.34971 14.6726C6.34971 14.5142 6.34137 13.9892 6.34137 13.4309C4.66636 13.7392 4.23303 13.0226 4.09969 12.6476C3.95174 12.2829 3.71721 11.9597 3.41636 11.7059C3.18303 11.5809 2.84969 11.2726 3.40802 11.2642C3.62121 11.2874 3.82568 11.3616 4.00411 11.4805C4.18254 11.5995 4.32967 11.7597 4.43303 11.9476C4.52421 12.1114 4.64681 12.2556 4.79382 12.3719C4.94083 12.4882 5.10934 12.5744 5.28971 12.6255C5.47009 12.6766 5.65877 12.6916 5.84494 12.6696C6.03112 12.6477 6.21114 12.5892 6.37468 12.4976C6.40354 12.1586 6.55459 11.8418 6.79969 11.6059C5.31636 11.4392 3.76636 10.8642 3.76636 8.31425C3.75699 7.65168 4.00148 7.01063 4.44969 6.52258C4.24588 5.94672 4.26973 5.31477 4.51636 4.75591C4.51636 4.75591 5.07467 4.58091 6.34969 5.43925C7.44055 5.13923 8.59217 5.13923 9.68303 5.43925C10.958 4.57258 11.5164 4.75591 11.5164 4.75591C11.763 5.31476 11.7869 5.94673 11.583 6.52258C12.0326 7.00979 12.2773 7.6514 12.2664 8.31425C12.2664 10.8726 10.708 11.4392 9.22469 11.6059C9.38379 11.7672 9.50633 11.9608 9.58397 12.1736C9.66162 12.3864 9.69256 12.6134 9.67469 12.8392C9.67469 13.7309 9.66635 14.4476 9.66635 14.6726C9.66635 14.8476 9.79135 15.0559 10.1247 14.9892C11.6238 14.4845 12.8947 13.4634 13.7106 12.1083C14.5265 10.7531 14.8343 9.15211 14.5789 7.59105C14.3236 6.02999 13.5218 4.61047 12.3167 3.5859C11.1115 2.56133 9.5815 1.99838 7.99969 1.99756Z" fill="#627293"/>
</svg>
