<svg width="18" height="18" viewBox="0 0 18 18" fill="none" xmlns="http://www.w3.org/2000/svg">
<path d="M8.87486 0.872253C6.89609 0.872335 4.98191 1.57651 3.47483 2.85879C1.96775 4.14107 0.966111 5.91777 0.649138 7.87099C0.332164 9.82421 0.720541 11.8265 1.74478 13.5195C2.76901 15.2126 4.36227 16.486 6.23946 17.1118C6.65613 17.1848 6.81238 16.9348 6.81238 16.716C6.81238 16.5181 6.80195 15.8618 6.80195 15.1639C4.70819 15.5493 4.16653 14.6535 3.99986 14.1848C3.81492 13.7289 3.52176 13.3249 3.14569 13.0077C2.85403 12.8514 2.43736 12.466 3.13527 12.4556C3.40176 12.4845 3.65735 12.5773 3.88039 12.7259C4.10342 12.8746 4.28733 13.0749 4.41653 13.3097C4.5305 13.5145 4.68376 13.6947 4.86752 13.8402C5.05128 13.9856 5.26192 14.0933 5.48739 14.1572C5.71285 14.221 5.9487 14.2398 6.18143 14.2123C6.41415 14.1849 6.63917 14.1118 6.84359 13.9972C6.87967 13.5736 7.06848 13.1775 7.37486 12.8827C5.52069 12.6744 3.58319 11.9556 3.58319 8.76811C3.57148 7.9399 3.8771 7.13859 4.43736 6.52853C4.18259 5.80871 4.2124 5.01877 4.52069 4.3202C4.52069 4.3202 5.21858 4.10144 6.81236 5.17436C8.17593 4.79934 9.61545 4.79934 10.979 5.17436C12.5728 4.09103 13.2707 4.3202 13.2707 4.3202C13.579 5.01876 13.6088 5.80872 13.354 6.52853C13.916 7.13755 14.2219 7.93956 14.2082 8.76811C14.2082 11.966 12.2603 12.6744 10.4061 12.8827C10.605 13.0843 10.7582 13.3263 10.8552 13.5923C10.9523 13.8583 10.9909 14.1421 10.9686 14.4244C10.9686 15.539 10.9582 16.4348 10.9582 16.716C10.9582 16.9348 11.1144 17.1952 11.5311 17.1119C13.405 16.4809 14.9937 15.2046 16.0135 13.5106C17.0334 11.8167 17.4181 9.81544 17.0989 7.86412C16.7798 5.91279 15.7775 4.1384 14.2711 2.85768C12.7647 1.57696 10.8521 0.873283 8.87486 0.872253Z" fill="#0062FF"/>
</svg>
