<svg width="24" height="25" viewBox="0 0 24 25" fill="none" xmlns="http://www.w3.org/2000/svg">
<path d="M10 2.5H3C2.44772 2.5 2 2.94772 2 3.5V10.5C2 11.0523 2.44772 11.5 3 11.5H10C10.5523 11.5 11 11.0523 11 10.5V3.5C11 2.94772 10.5523 2.5 10 2.5Z" fill="#0062FF"/>
<path d="M10 13.5H3C2.44772 13.5 2 13.9477 2 14.5V21.5C2 22.0523 2.44772 22.5 3 22.5H10C10.5523 22.5 11 22.0523 11 21.5V14.5C11 13.9477 10.5523 13.5 10 13.5Z" fill="#80B1FF"/>
<path d="M21 2.5H14C13.4477 2.5 13 2.94772 13 3.5V10.5C13 11.0523 13.4477 11.5 14 11.5H21C21.5523 11.5 22 11.0523 22 10.5V3.5C22 2.94772 21.5523 2.5 21 2.5Z" fill="#80B1FF"/>
<path d="M21 13.5H14C13.4477 13.5 13 13.9477 13 14.5V21.5C13 22.0523 13.4477 22.5 14 22.5H21C21.5523 22.5 22 22.0523 22 21.5V14.5C22 13.9477 21.5523 13.5 21 13.5Z" fill="#80B1FF"/>
</svg>
