<svg width="16" height="17" viewBox="0 0 16 17" fill="none" xmlns="http://www.w3.org/2000/svg">
<path fill-rule="evenodd" clip-rule="evenodd" d="M12.1927 10.6953C12.453 10.4349 12.8751 10.4349 13.1355 10.6953L14.4688 12.0286C14.7291 12.2889 14.7291 12.7111 14.4688 12.9714C14.2085 13.2318 13.7863 13.2318 13.526 12.9714L13.3307 12.7761V15.1667C13.3307 15.5349 13.0323 15.8333 12.6641 15.8333C12.2959 15.8333 11.9974 15.5349 11.9974 15.1667V12.7761L11.8021 12.9714C11.5418 13.2318 11.1197 13.2318 10.8593 12.9714C10.599 12.7111 10.599 12.2889 10.8593 12.0286L12.1927 10.6953Z" fill="#6B7280"/>
<path d="M6 7.83329C6.73638 7.83329 7.33333 7.23634 7.33333 6.49996C7.33333 5.76358 6.73638 5.16663 6 5.16663C5.26362 5.16663 4.66667 5.76358 4.66667 6.49996C4.66667 7.23634 5.26362 7.83329 6 7.83329Z" fill="#6B7280"/>
<path d="M9.93988 9.17505C9.99156 9.16126 10.0458 9.16011 10.098 9.17169C10.1049 9.1732 10.1431 9.18166 10.3128 9.28797C10.6249 9.48343 11.0363 9.38894 11.2317 9.07692C11.4272 8.7649 11.3327 8.3535 11.0207 8.15804C10.8359 8.04229 10.633 7.9246 10.3867 7.86999C10.1256 7.81208 9.85448 7.81785 9.59611 7.88679C9.29945 7.96596 9.04239 8.15038 8.78621 8.33416L8.72414 8.37861L7.05372 9.57129C6.73428 9.79937 6.69467 9.81764 6.66756 9.82597C6.6218 9.84003 6.57355 9.84407 6.52609 9.83782C6.49797 9.83411 6.45588 9.82269 6.10295 9.65094L5.75072 9.47952L5.69528 9.45245C5.46286 9.3388 5.2291 9.22449 4.97487 9.18583C4.75295 9.15209 4.5265 9.16352 4.3091 9.21944C4.06006 9.2835 3.83899 9.42077 3.6192 9.55725L3.56677 9.58976L2.31615 10.3631C2.00299 10.5567 1.9061 10.9675 2.09973 11.2807C2.29337 11.5939 2.70421 11.6907 3.01737 11.4971L4.26799 10.7238C4.578 10.5321 4.61539 10.5174 4.64127 10.5107C4.68475 10.4996 4.73004 10.4973 4.77442 10.504C4.80084 10.508 4.83952 10.5189 5.16726 10.6784L5.5195 10.8498L5.57934 10.8791C5.82895 11.0012 6.07984 11.1239 6.35189 11.1597C6.5892 11.191 6.83046 11.1708 7.05925 11.1005C7.32155 11.0199 7.54853 10.8571 7.77435 10.6952L7.82849 10.6564L9.49892 9.46374C9.86327 9.20359 9.90957 9.18314 9.93988 9.17505Z" fill="#6B7280"/>
<path fill-rule="evenodd" clip-rule="evenodd" d="M6.9048 2.5H9.09521C9.81773 2.49999 10.4005 2.49999 10.8724 2.53855C11.3583 2.57825 11.7851 2.66212 12.18 2.86331C12.8072 3.18289 13.3171 3.69283 13.6367 4.32003C13.8379 4.71489 13.9218 5.14169 13.9615 5.62758C14 6.0995 14 6.68226 14 7.40478V8.5C14 8.86819 13.7015 9.16667 13.3333 9.16667C12.9651 9.16667 12.6667 8.86819 12.6667 8.5V7.43333C12.6667 6.6756 12.6661 6.14739 12.6326 5.73616C12.5996 5.33272 12.5381 5.10092 12.4487 4.92535C12.2569 4.54903 11.951 4.24307 11.5746 4.05132C11.3991 3.96186 11.1673 3.90041 10.7638 3.86745C10.3526 3.83385 9.82441 3.83333 9.06667 3.83333H6.93333C6.1756 3.83333 5.64739 3.83385 5.23616 3.86745C4.83272 3.90041 4.60092 3.96186 4.42535 4.05132C4.04903 4.24307 3.74307 4.54903 3.55132 4.92535C3.46186 5.10092 3.40041 5.33272 3.36745 5.73616C3.33385 6.14739 3.33333 6.6756 3.33333 7.43333V9.56667C3.33333 10.3244 3.33385 10.8526 3.36745 11.2638C3.40041 11.6673 3.46186 11.8991 3.55132 12.0746C3.74307 12.451 4.04903 12.7569 4.42535 12.9487C4.60092 13.0381 4.83272 13.0996 5.23616 13.1326C5.64739 13.1661 6.1756 13.1667 6.93333 13.1667H8.66667C9.03486 13.1667 9.33333 13.4651 9.33333 13.8333C9.33333 14.2015 9.03486 14.5 8.66667 14.5H6.90478C6.18226 14.5 5.5995 14.5 5.12758 14.4615C4.64169 14.4218 4.21489 14.3379 3.82003 14.1367C3.19283 13.8171 2.68289 13.3072 2.36331 12.68C2.16212 12.2851 2.07825 11.8583 2.03855 11.3724C1.99999 10.9005 1.99999 10.3177 2 9.59521V7.4048C1.99999 6.68227 1.99999 6.0995 2.03855 5.62758C2.07825 5.14168 2.16212 4.71489 2.36331 4.32003C2.68289 3.69283 3.19283 3.18289 3.82003 2.86331C4.21489 2.66212 4.64169 2.57825 5.12758 2.53855C5.5995 2.49999 6.18227 2.49999 6.9048 2.5Z" fill="#6B7280"/>
</svg>
