<svg width="18" height="18" viewBox="0 0 18 18" fill="none" xmlns="http://www.w3.org/2000/svg">
<path d="M13.3248 3.55C13.1271 3.55 12.9337 3.60865 12.7693 3.71854C12.6048 3.82842 12.4766 3.9846 12.401 4.16732C12.3253 4.35005 12.3055 4.55111 12.3441 4.7451C12.3826 4.93908 12.4779 5.11726 12.6177 5.25711C12.7576 5.39696 12.9358 5.49221 13.1297 5.53079C13.3237 5.56938 13.5248 5.54957 13.7075 5.47388C13.8902 5.3982 14.0464 5.27002 14.1563 5.10558C14.2662 4.94113 14.3248 4.74779 14.3248 4.55C14.3248 4.28479 14.2195 4.03043 14.0319 3.8429C13.8444 3.65536 13.5901 3.55 13.3248 3.55ZM17.1582 5.56667C17.142 4.87525 17.0125 4.19117 16.7748 3.54167C16.5629 2.98595 16.2332 2.48274 15.8082 2.06667C15.3955 1.63953 14.8911 1.31182 14.3332 1.10834C13.6854 0.863472 13.0005 0.731013 12.3082 0.716672C11.4248 0.666672 11.1415 0.666672 8.87484 0.666672C6.60817 0.666672 6.32484 0.666672 5.4415 0.716672C4.74913 0.731013 4.06429 0.863472 3.4165 1.10834C2.85957 1.31388 2.35562 1.64131 1.9415 2.06667C1.51436 2.47932 1.18665 2.9837 0.983171 3.54167C0.738305 4.18946 0.605846 4.8743 0.591504 5.56667C0.541504 6.45001 0.541504 6.73334 0.541504 9C0.541504 11.2667 0.541504 11.55 0.591504 12.4333C0.605846 13.1257 0.738305 13.8106 0.983171 14.4583C1.18665 15.0163 1.51436 15.5207 1.9415 15.9333C2.35562 16.3587 2.85957 16.6861 3.4165 16.8917C4.06429 17.1365 4.74913 17.269 5.4415 17.2833C6.32484 17.3333 6.60817 17.3333 8.87484 17.3333C11.1415 17.3333 11.4248 17.3333 12.3082 17.2833C13.0005 17.269 13.6854 17.1365 14.3332 16.8917C14.8911 16.6882 15.3955 16.3605 15.8082 15.9333C16.235 15.5188 16.5651 15.0152 16.7748 14.4583C17.0125 13.8088 17.142 13.1248 17.1582 12.4333C17.1582 11.55 17.2082 11.2667 17.2082 9C17.2082 6.73334 17.2082 6.45001 17.1582 5.56667ZM15.6582 12.3333C15.6521 12.8623 15.5563 13.3864 15.3748 13.8833C15.2418 14.246 15.0281 14.5737 14.7498 14.8417C14.4795 15.1171 14.1525 15.3304 13.7915 15.4667C13.2946 15.6481 12.7705 15.7439 12.2415 15.75C11.4082 15.7917 11.0998 15.8 8.90817 15.8C6.7165 15.8 6.40817 15.8 5.57484 15.75C5.02558 15.7603 4.47867 15.6757 3.95817 15.5C3.61299 15.3567 3.30097 15.144 3.0415 14.875C2.76491 14.6073 2.55387 14.2793 2.42484 13.9167C2.22138 13.4126 2.10854 12.8766 2.0915 12.3333C2.0915 11.5 2.0415 11.1917 2.0415 9C2.0415 6.80834 2.0415 6.5 2.0915 5.66667C2.09524 5.12588 2.19396 4.58996 2.38317 4.08334C2.52988 3.7316 2.75506 3.41805 3.0415 3.16667C3.29468 2.88015 3.60758 2.65258 3.95817 2.5C4.46613 2.31671 5.0015 2.2209 5.5415 2.21667C6.37484 2.21667 6.68317 2.16667 8.87484 2.16667C11.0665 2.16667 11.3748 2.16667 12.2082 2.21667C12.7371 2.22274 13.2613 2.31854 13.7582 2.5C14.1369 2.64055 14.4767 2.86904 14.7498 3.16667C15.0229 3.42265 15.2363 3.73562 15.3748 4.08334C15.56 4.59078 15.6559 5.12649 15.6582 5.66667C15.6998 6.5 15.7082 6.80834 15.7082 9C15.7082 11.1917 15.6998 11.5 15.6582 12.3333ZM8.87484 4.725C8.02968 4.72665 7.20397 4.97878 6.50205 5.44952C5.80013 5.92026 5.25349 6.5885 4.9312 7.3698C4.60891 8.1511 4.52544 9.01039 4.69133 9.83911C4.85722 10.6678 5.26503 11.4288 5.86323 12.0258C6.46143 12.6229 7.22318 13.0292 8.05222 13.1935C8.88126 13.3577 9.74039 13.2726 10.5211 12.9488C11.3017 12.625 11.9689 12.077 12.4383 11.3742C12.9077 10.6714 13.1582 9.84516 13.1582 9C13.1593 8.43759 13.0492 7.88051 12.8342 7.3608C12.6192 6.84109 12.3036 6.36901 11.9056 5.97171C11.5075 5.57441 11.0348 5.25974 10.5147 5.04578C9.99454 4.83182 9.43725 4.72281 8.87484 4.725ZM8.87484 11.775C8.32599 11.775 7.78948 11.6123 7.33313 11.3073C6.87678 11.0024 6.5211 10.569 6.31107 10.062C6.10104 9.55489 6.04608 8.99693 6.15316 8.45863C6.26023 7.92033 6.52452 7.42587 6.91262 7.03778C7.30071 6.64969 7.79516 6.3854 8.33346 6.27833C8.87176 6.17125 9.42972 6.22621 9.93678 6.43624C10.4438 6.64627 10.8772 7.00195 11.1822 7.4583C11.4871 7.91464 11.6498 8.45116 11.6498 9C11.6498 9.36442 11.5781 9.72527 11.4386 10.062C11.2991 10.3986 11.0947 10.7045 10.8371 10.9622C10.5794 11.2199 10.2735 11.4243 9.93678 11.5638C9.60011 11.7032 9.23925 11.775 8.87484 11.775Z" fill="#0062FF"/>
</svg>
