<svg width="16" height="17" viewBox="0 0 16 17" fill="none" xmlns="http://www.w3.org/2000/svg">
<path d="M11.5597 4.14016C11.4014 4.14016 11.2468 4.18708 11.1152 4.27499C10.9837 4.36289 10.8811 4.48783 10.8206 4.63402C10.76 4.7802 10.7442 4.94105 10.775 5.09623C10.8059 5.25142 10.8821 5.39397 10.994 5.50585C11.1059 5.61773 11.2484 5.69392 11.4036 5.72479C11.5588 5.75566 11.7196 5.73982 11.8658 5.67927C12.012 5.61872 12.1369 5.51618 12.2248 5.38462C12.3128 5.25306 12.3597 5.09839 12.3597 4.94016C12.3597 4.72799 12.2754 4.52451 12.1254 4.37448C11.9753 4.22445 11.7718 4.14016 11.5597 4.14016ZM14.6263 5.7535C14.6134 5.20036 14.5098 4.6531 14.3197 4.1335C14.1502 3.68892 13.8863 3.28635 13.5463 2.9535C13.2162 2.61178 12.8127 2.34961 12.3663 2.18683C11.8481 1.99094 11.3002 1.88497 10.7463 1.8735C10.0397 1.8335 9.81301 1.8335 7.99967 1.8335C6.18634 1.8335 5.95967 1.8335 5.25301 1.8735C4.69911 1.88497 4.15124 1.99094 3.63301 2.18683C3.18746 2.35126 2.7843 2.6132 2.45301 2.9535C2.11129 3.28361 1.84913 3.68712 1.68634 4.1335C1.49045 4.65172 1.38448 5.1996 1.37301 5.7535C1.33301 6.46016 1.33301 6.68683 1.33301 8.50016C1.33301 10.3135 1.33301 10.5402 1.37301 11.2468C1.38448 11.8007 1.49045 12.3486 1.68634 12.8668C1.84913 13.3132 2.11129 13.7167 2.45301 14.0468C2.7843 14.3871 3.18746 14.6491 3.63301 14.8135C4.15124 15.0094 4.69911 15.1154 5.25301 15.1268C5.95967 15.1668 6.18634 15.1668 7.99967 15.1668C9.81301 15.1668 10.0397 15.1668 10.7463 15.1268C11.3002 15.1154 11.8481 15.0094 12.3663 14.8135C12.8127 14.6507 13.2162 14.3885 13.5463 14.0468C13.8878 13.7152 14.1519 13.3123 14.3197 12.8668C14.5098 12.3472 14.6134 11.8 14.6263 11.2468C14.6263 10.5402 14.6663 10.3135 14.6663 8.50016C14.6663 6.68683 14.6663 6.46016 14.6263 5.7535ZM13.4263 11.1668C13.4215 11.59 13.3448 12.0093 13.1997 12.4068C13.0932 12.697 12.9223 12.9591 12.6997 13.1735C12.4834 13.3938 12.2218 13.5645 11.933 13.6735C11.5355 13.8187 11.1162 13.8953 10.693 13.9002C10.0263 13.9335 9.77967 13.9402 8.02634 13.9402C6.27301 13.9402 6.02634 13.9402 5.35967 13.9002C4.92027 13.9084 4.48274 13.8407 4.06634 13.7002C3.7902 13.5855 3.54058 13.4154 3.33301 13.2002C3.11173 12.986 2.9429 12.7236 2.83967 12.4335C2.67691 12.0303 2.58664 11.6015 2.57301 11.1668C2.57301 10.5002 2.53301 10.2535 2.53301 8.50016C2.53301 6.74683 2.53301 6.50016 2.57301 5.8335C2.576 5.40087 2.65497 4.97213 2.80634 4.56683C2.92371 4.28544 3.10385 4.0346 3.33301 3.8335C3.53555 3.60427 3.78587 3.42223 4.06634 3.30016C4.47271 3.15352 4.90101 3.07688 5.33301 3.0735C5.99967 3.0735 6.24634 3.0335 7.99967 3.0335C9.75301 3.0335 9.99967 3.0335 10.6663 3.0735C11.0895 3.07835 11.5088 3.15499 11.9063 3.30016C12.2093 3.4126 12.4812 3.59539 12.6997 3.8335C12.9181 4.03828 13.0888 4.28865 13.1997 4.56683C13.3478 4.97278 13.4245 5.40135 13.4263 5.8335C13.4597 6.50016 13.4663 6.74683 13.4663 8.50016C13.4663 10.2535 13.4597 10.5002 13.4263 11.1668ZM7.99967 5.08016C7.32355 5.08148 6.66298 5.28318 6.10144 5.65977C5.53991 6.03637 5.10259 6.57096 4.84476 7.196C4.58693 7.82104 4.52016 8.50847 4.65287 9.17145C4.78558 9.83442 5.11183 10.4432 5.59039 10.9208C6.06895 11.3984 6.67835 11.7235 7.34158 11.8549C8.00481 11.9864 8.69212 11.9182 9.31665 11.6592C9.94119 11.4001 10.4749 10.9618 10.8504 10.3995C11.2259 9.83725 11.4263 9.17629 11.4263 8.50016C11.4272 8.05023 11.3391 7.60457 11.1672 7.1888C10.9952 6.77303 10.7427 6.39537 10.4243 6.07753C10.1058 5.75969 9.72764 5.50795 9.31154 5.33678C8.89544 5.16562 8.4496 5.0784 7.99967 5.08016ZM7.99967 10.7202C7.5606 10.7202 7.13139 10.59 6.76631 10.346C6.40123 10.1021 6.11669 9.75537 5.94866 9.34972C5.78063 8.94407 5.73667 8.4977 5.82233 8.06706C5.90799 7.63642 6.11942 7.24086 6.4299 6.93039C6.74037 6.61991 7.13594 6.40848 7.56657 6.32282C7.99721 6.23716 8.44358 6.28112 8.84923 6.44915C9.25488 6.61718 9.6016 6.90172 9.84554 7.2668C10.0895 7.63187 10.2197 8.06109 10.2197 8.50016C10.2197 8.7917 10.1623 9.08038 10.0507 9.34972C9.93912 9.61906 9.7756 9.86379 9.56945 10.0699C9.36331 10.2761 9.11857 10.4396 8.84923 10.5512C8.57989 10.6627 8.29121 10.7202 7.99967 10.7202Z" fill="#627293"/>
</svg>
