<svg width="17" height="17" viewBox="0 0 17 17" fill="none" xmlns="http://www.w3.org/2000/svg">
<path d="M13.7714 1.8331H2.47805C2.3511 1.83134 2.22505 1.8546 2.10709 1.90156C1.98913 1.94851 1.88158 2.01825 1.79058 2.10678C1.69957 2.1953 1.6269 2.30089 1.57671 2.41751C1.52652 2.53412 1.49979 2.65949 1.49805 2.78643V14.2131C1.49979 14.34 1.52652 14.4654 1.57671 14.582C1.6269 14.6986 1.69957 14.8042 1.79058 14.8928C1.88158 14.9813 1.98913 15.051 2.10709 15.098C2.22505 15.1449 2.3511 15.1682 2.47805 15.1664H13.7714C13.8983 15.1682 14.0244 15.1449 14.1423 15.098C14.2603 15.051 14.3678 14.9813 14.4588 14.8928C14.5499 14.8042 14.6225 14.6986 14.6727 14.582C14.7229 14.4654 14.7496 14.34 14.7514 14.2131V2.78643C14.7496 2.65949 14.7229 2.53412 14.6727 2.41751C14.6225 2.30089 14.5499 2.1953 14.4588 2.10678C14.3678 2.01825 14.2603 1.94851 14.1423 1.90156C14.0244 1.8546 13.8983 1.83134 13.7714 1.8331ZM5.51805 12.9931H3.51805V6.9931H5.51805V12.9931ZM4.51805 6.1531C4.24222 6.1531 3.97769 6.04353 3.78266 5.84849C3.58762 5.65345 3.47805 5.38893 3.47805 5.1131C3.47805 4.83728 3.58762 4.57275 3.78266 4.37771C3.97769 4.18267 4.24222 4.0731 4.51805 4.0731C4.66451 4.05649 4.81283 4.071 4.9533 4.11569C5.09376 4.16038 5.22321 4.23423 5.33315 4.33241C5.4431 4.43059 5.53106 4.55089 5.59129 4.68542C5.65152 4.81996 5.68266 4.9657 5.68266 5.1131C5.68266 5.2605 5.65152 5.40624 5.59129 5.54078C5.53106 5.67531 5.4431 5.79561 5.33315 5.89379C5.22321 5.99197 5.09376 6.06583 4.9533 6.11051C4.81283 6.1552 4.66451 6.16971 4.51805 6.1531ZM12.7314 12.9931H10.7314V9.7731C10.7314 8.96643 10.4447 8.43977 9.71805 8.43977C9.49316 8.44141 9.27417 8.51195 9.0906 8.64188C8.90704 8.77181 8.7677 8.95488 8.69138 9.16643C8.63921 9.32313 8.6166 9.48815 8.62471 9.6531V12.9864H6.62471C6.62471 12.9864 6.62471 7.5331 6.62471 6.98643H8.62471V7.8331C8.8064 7.51784 9.07065 7.25811 9.38901 7.0819C9.70736 6.90569 10.0678 6.81967 10.4314 6.8331C11.7647 6.8331 12.7314 7.6931 12.7314 9.53977V12.9931Z" fill="#627293"/>
</svg>
