<svg width="18" height="18" viewBox="0 0 18 18" fill="none" xmlns="http://www.w3.org/2000/svg">
<path d="M16.0585 0.666666H1.9418C1.78311 0.664462 1.62555 0.693539 1.4781 0.752236C1.33066 0.810933 1.19622 0.8981 1.08246 1.00876C0.968707 1.11942 0.877865 1.2514 0.815123 1.39717C0.752382 1.54295 0.718971 1.69965 0.716797 1.85833V16.1417C0.718971 16.3004 0.752382 16.4571 0.815123 16.6028C0.877865 16.7486 0.968707 16.8806 1.08246 16.9912C1.19622 17.1019 1.33066 17.1891 1.4781 17.2478C1.62555 17.3065 1.78311 17.3355 1.9418 17.3333H16.0585C16.2171 17.3355 16.3747 17.3065 16.5222 17.2478C16.6696 17.1891 16.804 17.1019 16.9178 16.9912C17.0316 16.8806 17.1224 16.7486 17.1851 16.6028C17.2479 16.4571 17.2813 16.3004 17.2835 16.1417V1.85833C17.2813 1.69965 17.2479 1.54295 17.1851 1.39717C17.1224 1.2514 17.0316 1.11942 16.9178 1.00876C16.804 0.8981 16.6696 0.810933 16.5222 0.752236C16.3747 0.693539 16.2171 0.664462 16.0585 0.666666ZM5.7418 14.6167H3.2418V7.11667H5.7418V14.6167ZM4.4918 6.06667C4.14702 6.06667 3.81636 5.9297 3.57256 5.6859C3.32876 5.44211 3.1918 5.11145 3.1918 4.76667C3.1918 4.42189 3.32876 4.09122 3.57256 3.84743C3.81636 3.60363 4.14702 3.46667 4.4918 3.46667C4.67488 3.4459 4.86028 3.46404 5.03586 3.5199C5.21144 3.57576 5.37325 3.66807 5.51068 3.7908C5.64811 3.91353 5.75807 4.0639 5.83336 4.23207C5.90864 4.40024 5.94756 4.58241 5.94756 4.76667C5.94756 4.95092 5.90864 5.13309 5.83336 5.30126C5.75807 5.46943 5.64811 5.61981 5.51068 5.74253C5.37325 5.86526 5.21144 5.95757 5.03586 6.01343C4.86028 6.06929 4.67488 6.08743 4.4918 6.06667ZM14.7585 14.6167H12.2585V10.5917C12.2585 9.58333 11.9001 8.925 10.9918 8.925C10.7107 8.92706 10.437 9.01523 10.2075 9.17764C9.97803 9.34005 9.80387 9.5689 9.70846 9.83333C9.64325 10.0292 9.61499 10.2355 9.62513 10.4417V14.6083H7.12513C7.12513 14.6083 7.12513 7.79167 7.12513 7.10833H9.62513V8.16667C9.85224 7.77259 10.1826 7.44793 10.5805 7.22767C10.9784 7.0074 11.4289 6.89988 11.8835 6.91667C13.5501 6.91667 14.7585 7.99167 14.7585 10.3V14.6167Z" fill="#0062FF"/>
</svg>
