<svg width="25" height="24" viewBox="0 0 25 24" fill="none" xmlns="http://www.w3.org/2000/svg">
<path d="M3.13721 15.477C3.13721 15.477 3.27921 17.215 3.31221 17.763C3.35621 18.498 3.64021 19.319 4.11421 19.889C4.78421 20.697 5.57121 20.982 6.62421 20.984C7.86021 20.986 16.8552 20.986 18.0922 20.984C19.1442 20.982 19.9322 20.697 20.6022 19.889C21.0752 19.319 21.3592 18.498 21.4042 17.763C21.4362 17.215 21.5782 15.477 21.5782 15.477M8.82921 5.329V4.959C8.82921 3.739 9.81721 2.75 11.0372 2.75H13.6192C14.8382 2.75 15.8272 3.738 15.8272 4.958L15.8282 5.329M12.3282 16.679V15.384" stroke="#0245B9" stroke-width="1.5" stroke-linecap="round" stroke-linejoin="round"/>
<path d="M3.08325 8.39004V11.856C5.00125 13.121 7.29925 14.007 9.82125 14.358C9.97008 13.8089 10.296 13.3243 10.7484 12.9793C11.2007 12.6343 11.7543 12.4483 12.3233 12.45C13.5113 12.45 14.5233 13.257 14.8063 14.368C17.3383 14.018 19.6453 13.131 21.5733 11.856V8.39004C21.5743 7.98825 21.496 7.5902 21.3427 7.21878C21.1895 6.84735 20.9644 6.50987 20.6803 6.22571C20.3962 5.94155 20.0588 5.71632 19.6874 5.56295C19.3161 5.40959 18.918 5.33112 18.5163 5.33204H6.15025C5.74799 5.33112 5.34949 5.40952 4.97755 5.56277C4.60562 5.71601 4.26755 5.94108 3.98269 6.22511C3.69782 6.50913 3.47176 6.84654 3.31742 7.21802C3.16309 7.58951 3.08351 7.98777 3.08325 8.39004Z" stroke="#0245B9" stroke-width="1.5" stroke-linecap="round" stroke-linejoin="round"/>
</svg>
