<svg width="16" height="16" viewBox="0 0 16 16" fill="none" xmlns="http://www.w3.org/2000/svg">
<g clip-path="url(#clip0_1863_6163)">
<path d="M7.543 4.96738L7.66927 4.33203H8.33594L8.4622 4.96738C8.62 5.76096 9.24034 6.38132 10.0339 6.53907L10.6693 6.66536V7.33203L10.0339 7.4583C9.24034 7.6161 8.62 8.23643 8.4622 9.03003L8.33594 9.66536H7.66927L7.543 9.03003C7.3852 8.23643 6.76487 7.6161 5.97128 7.4583L5.33594 7.33203V6.66536L5.97128 6.53907C6.76487 6.38132 7.3852 5.76096 7.543 4.96738Z" fill="#14171F"/>
<path fill-rule="evenodd" clip-rule="evenodd" d="M14.6693 6.66667C14.6693 12 8.0026 16 8.0026 16C8.0026 16 1.33594 12 1.33594 6.66667C1.33594 2.98477 4.3207 0 8.0026 0C11.6845 0 14.6693 2.98477 14.6693 6.66667ZM13.6693 6.66667C13.6693 8.92613 12.2405 11.0145 10.6288 12.6262C9.84067 13.4144 9.04887 14.0483 8.45294 14.4853C8.285 14.6084 8.1334 14.7154 8.0026 14.8053C7.87187 14.7154 7.7202 14.6084 7.55227 14.4853C6.95634 14.0483 6.16454 13.4144 5.37638 12.6262C3.76466 11.0145 2.33594 8.92613 2.33594 6.66667C2.33594 3.53705 4.87299 1 8.0026 1C11.1322 1 13.6693 3.53705 13.6693 6.66667Z" fill="#14171F"/>
</g>
<defs>
<clipPath id="clip0_1863_6163">
<rect width="16" height="16" fill="white"/>
</clipPath>
</defs>
</svg>
