<svg width="328" height="97" viewBox="0 0 328 97" fill="none" xmlns="http://www.w3.org/2000/svg">
<rect x="0.5" y="0.5" width="327" height="96" rx="35.5" fill="#0D0A0B"/>
<rect x="0.5" y="0.5" width="327" height="96" rx="35.5" stroke="#898989"/>
<path d="M20.55 31V21.2H21.852V31H20.55ZM34.0343 29.334L35.5743 24H36.8483L34.6783 31H33.4323L31.7943 25.82L30.1563 31H28.9103L26.7403 24H28.0143L29.5543 29.32L31.2063 24H32.3823L34.0343 29.334ZM43.6243 25.204V24H44.8423V31H43.6243V29.796C43.027 30.72 42.145 31.182 40.9783 31.182C39.989 31.182 39.1536 30.8273 38.4723 30.118C37.7816 29.3993 37.4363 28.5267 37.4363 27.5C37.4363 26.4827 37.7816 25.6147 38.4723 24.896C39.163 24.1773 39.9983 23.818 40.9783 23.818C42.145 23.818 43.027 24.28 43.6243 25.204ZM41.1323 30.006C41.8416 30.006 42.4343 29.768 42.9103 29.292C43.3863 28.7973 43.6243 28.2 43.6243 27.5C43.6243 26.7907 43.3863 26.198 42.9103 25.722C42.4343 25.2367 41.8416 24.994 41.1323 24.994C40.4323 24.994 39.8443 25.2367 39.3683 25.722C38.8923 26.198 38.6543 26.7907 38.6543 27.5C38.6543 28.2 38.8923 28.7973 39.3683 29.292C39.8443 29.768 40.4323 30.006 41.1323 30.006ZM50.1737 23.818C50.995 23.818 51.653 24.0793 52.1477 24.602C52.6423 25.1153 52.8897 25.8153 52.8897 26.702V31H51.6717V26.772C51.6717 26.212 51.5177 25.7733 51.2097 25.456C50.9017 25.1387 50.477 24.98 49.9357 24.98C49.3103 24.98 48.8157 25.176 48.4517 25.568C48.0877 25.9507 47.9057 26.5247 47.9057 27.29V31H46.6877V24H47.9057V25.008C48.391 24.2147 49.147 23.818 50.1737 23.818ZM58.398 24V25.176H56.536V28.97C56.536 29.3153 56.6013 29.5627 56.732 29.712C56.872 29.852 57.082 29.9267 57.362 29.936C57.642 29.936 57.9873 29.9267 58.398 29.908V31C57.3247 31.14 56.5407 31.0513 56.046 30.734C55.5607 30.4167 55.318 29.8287 55.318 28.97V25.176H53.932V24H55.318V22.404L56.536 22.04V24H58.398ZM67.189 24V25.176H65.327V28.97C65.327 29.3153 65.3924 29.5627 65.523 29.712C65.663 29.852 65.873 29.9267 66.153 29.936C66.433 29.936 66.7784 29.9267 67.189 29.908V31C66.1157 31.14 65.3317 31.0513 64.837 30.734C64.3517 30.4167 64.109 29.8287 64.109 28.97V25.176H62.723V24H64.109V22.404L65.327 22.04V24H67.189ZM74.1836 30.118C73.4742 30.8273 72.6016 31.182 71.5656 31.182C70.5296 31.182 69.6569 30.8273 68.9476 30.118C68.2382 29.4087 67.8836 28.536 67.8836 27.5C67.8836 26.464 68.2382 25.5913 68.9476 24.882C69.6569 24.1727 70.5296 23.818 71.5656 23.818C72.6016 23.818 73.4742 24.1727 74.1836 24.882C74.9022 25.6007 75.2616 26.4733 75.2616 27.5C75.2616 28.5267 74.9022 29.3993 74.1836 30.118ZM71.5656 29.992C72.2656 29.992 72.8536 29.754 73.3296 29.278C73.8056 28.802 74.0436 28.2093 74.0436 27.5C74.0436 26.7907 73.8056 26.198 73.3296 25.722C72.8536 25.246 72.2656 25.008 71.5656 25.008C70.8749 25.008 70.2916 25.246 69.8156 25.722C69.3396 26.198 69.1016 26.7907 69.1016 27.5C69.1016 28.2093 69.3396 28.802 69.8156 29.278C70.2916 29.754 70.8749 29.992 71.5656 29.992ZM81.9474 24H85.7554V31H84.5374V25.176H81.9474V31H80.7294V25.176H79.6094V24H80.7294V23.79C80.7294 21.942 81.7514 21.018 83.7954 21.018C84.2061 21.018 84.6868 21.0787 85.2374 21.2V22.306C84.6214 22.2313 84.1408 22.194 83.7954 22.194C83.1514 22.194 82.6801 22.3153 82.3814 22.558C82.0921 22.8007 81.9474 23.2113 81.9474 23.79V24ZM91.1073 23.818C91.9286 23.818 92.5866 24.0793 93.0813 24.602C93.5759 25.1153 93.8233 25.8153 93.8233 26.702V31H92.6053V26.772C92.6053 26.212 92.4513 25.7733 92.1433 25.456C91.8353 25.1387 91.4106 24.98 90.8693 24.98C90.2439 24.98 89.7493 25.176 89.3853 25.568C89.0213 25.9507 88.8393 26.5247 88.8393 27.29V31H87.6213V24H88.8393V25.008C89.3246 24.2147 90.0806 23.818 91.1073 23.818ZM101.32 25.204V21.2H102.538V31H101.32V29.796C100.722 30.72 99.8403 31.182 98.6736 31.182C97.6843 31.182 96.8489 30.8273 96.1676 30.118C95.4769 29.3993 95.1316 28.5267 95.1316 27.5C95.1316 26.4827 95.4769 25.6147 96.1676 24.896C96.8583 24.1773 97.6936 23.818 98.6736 23.818C99.8403 23.818 100.722 24.28 101.32 25.204ZM98.8276 30.006C99.5369 30.006 100.13 29.768 100.606 29.292C101.082 28.7973 101.32 28.2 101.32 27.5C101.32 26.7907 101.082 26.198 100.606 25.722C100.13 25.2367 99.5369 24.994 98.8276 24.994C98.1276 24.994 97.5396 25.2367 97.0636 25.722C96.5876 26.198 96.3496 26.7907 96.3496 27.5C96.3496 28.2 96.5876 28.7973 97.0636 29.292C97.5396 29.768 98.1276 30.006 98.8276 30.006ZM111.747 23.818C112.727 23.818 113.562 24.1773 114.253 24.896C114.944 25.6147 115.289 26.4827 115.289 27.5C115.289 28.5267 114.944 29.3993 114.253 30.118C113.572 30.8273 112.736 31.182 111.747 31.182C110.59 31.182 109.708 30.72 109.101 29.796V33.8H107.883V24H109.101V25.204C109.708 24.28 110.59 23.818 111.747 23.818ZM111.593 30.006C112.293 30.006 112.881 29.768 113.357 29.292C113.833 28.7973 114.071 28.2 114.071 27.5C114.071 26.7907 113.833 26.198 113.357 25.722C112.881 25.2367 112.293 24.994 111.593 24.994C110.884 24.994 110.291 25.2367 109.815 25.722C109.339 26.198 109.101 26.7907 109.101 27.5C109.101 28.2 109.339 28.7973 109.815 29.292C110.291 29.768 110.884 30.006 111.593 30.006ZM123.462 28.06H117.596C117.718 28.676 118.002 29.1613 118.45 29.516C118.898 29.8613 119.458 30.034 120.13 30.034C121.054 30.034 121.726 29.6933 122.146 29.012L123.182 29.6C122.492 30.6547 121.465 31.182 120.102 31.182C119.001 31.182 118.096 30.8367 117.386 30.146C116.696 29.4367 116.35 28.5547 116.35 27.5C116.35 26.436 116.691 25.5587 117.372 24.868C118.054 24.168 118.936 23.818 120.018 23.818C121.045 23.818 121.88 24.182 122.524 24.91C123.178 25.6193 123.504 26.4873 123.504 27.514C123.504 27.6913 123.49 27.8733 123.462 28.06ZM120.018 24.966C119.374 24.966 118.833 25.148 118.394 25.512C117.965 25.876 117.699 26.3707 117.596 26.996H122.272C122.17 26.352 121.913 25.8527 121.502 25.498C121.092 25.1433 120.597 24.966 120.018 24.966ZM130.799 30.118C130.089 30.8273 129.217 31.182 128.181 31.182C127.145 31.182 126.272 30.8273 125.563 30.118C124.853 29.4087 124.499 28.536 124.499 27.5C124.499 26.464 124.853 25.5913 125.563 24.882C126.272 24.1727 127.145 23.818 128.181 23.818C129.217 23.818 130.089 24.1727 130.799 24.882C131.517 25.6007 131.877 26.4733 131.877 27.5C131.877 28.5267 131.517 29.3993 130.799 30.118ZM128.181 29.992C128.881 29.992 129.469 29.754 129.945 29.278C130.421 28.802 130.659 28.2093 130.659 27.5C130.659 26.7907 130.421 26.198 129.945 25.722C129.469 25.246 128.881 25.008 128.181 25.008C127.49 25.008 126.907 25.246 126.431 25.722C125.955 26.198 125.717 26.7907 125.717 27.5C125.717 28.2093 125.955 28.802 126.431 29.278C126.907 29.754 127.49 29.992 128.181 29.992ZM137.177 23.818C138.157 23.818 138.992 24.1773 139.683 24.896C140.373 25.6147 140.719 26.4827 140.719 27.5C140.719 28.5267 140.373 29.3993 139.683 30.118C139.001 30.8273 138.166 31.182 137.177 31.182C136.019 31.182 135.137 30.72 134.531 29.796V33.8H133.313V24H134.531V25.204C135.137 24.28 136.019 23.818 137.177 23.818ZM137.023 30.006C137.723 30.006 138.311 29.768 138.787 29.292C139.263 28.7973 139.501 28.2 139.501 27.5C139.501 26.7907 139.263 26.198 138.787 25.722C138.311 25.2367 137.723 24.994 137.023 24.994C136.313 24.994 135.721 25.2367 135.245 25.722C134.769 26.198 134.531 26.7907 134.531 27.5C134.531 28.2 134.769 28.7973 135.245 29.292C135.721 29.768 136.313 30.006 137.023 30.006ZM143.39 31H142.172V20.78H143.39V31ZM151.968 28.06H146.102C146.224 28.676 146.508 29.1613 146.956 29.516C147.404 29.8613 147.964 30.034 148.636 30.034C149.56 30.034 150.232 29.6933 150.652 29.012L151.688 29.6C150.998 30.6547 149.971 31.182 148.608 31.182C147.507 31.182 146.602 30.8367 145.892 30.146C145.202 29.4367 144.856 28.5547 144.856 27.5C144.856 26.436 145.197 25.5587 145.878 24.868C146.56 24.168 147.442 23.818 148.524 23.818C149.551 23.818 150.386 24.182 151.03 24.91C151.684 25.6193 152.01 26.4873 152.01 27.514C152.01 27.6913 151.996 27.8733 151.968 28.06ZM148.524 24.966C147.88 24.966 147.339 25.148 146.9 25.512C146.471 25.876 146.205 26.3707 146.102 26.996H150.778C150.676 26.352 150.419 25.8527 150.008 25.498C149.598 25.1433 149.103 24.966 148.524 24.966ZM163.616 29.334L165.156 24H166.43L164.26 31H163.014L161.376 25.82L159.738 31H158.492L156.322 24H157.596L159.136 29.32L160.788 24H161.964L163.616 29.334ZM171.17 23.818C171.991 23.818 172.649 24.0793 173.144 24.602C173.638 25.1153 173.886 25.8153 173.886 26.702V31H172.668V26.772C172.668 26.212 172.514 25.7733 172.206 25.456C171.898 25.1387 171.473 24.98 170.932 24.98C170.306 24.98 169.812 25.176 169.448 25.568C169.084 25.9507 168.902 26.5247 168.902 27.29V31H167.684V21.2H168.902V25.008C169.387 24.2147 170.143 23.818 171.17 23.818ZM181.494 30.118C180.785 30.8273 179.912 31.182 178.876 31.182C177.84 31.182 176.967 30.8273 176.258 30.118C175.549 29.4087 175.194 28.536 175.194 27.5C175.194 26.464 175.549 25.5913 176.258 24.882C176.967 24.1727 177.84 23.818 178.876 23.818C179.912 23.818 180.785 24.1727 181.494 24.882C182.213 25.6007 182.572 26.4733 182.572 27.5C182.572 28.5267 182.213 29.3993 181.494 30.118ZM178.876 29.992C179.576 29.992 180.164 29.754 180.64 29.278C181.116 28.802 181.354 28.2093 181.354 27.5C181.354 26.7907 181.116 26.198 180.64 25.722C180.164 25.246 179.576 25.008 178.876 25.008C178.185 25.008 177.602 25.246 177.126 25.722C176.65 26.198 176.412 26.7907 176.412 27.5C176.412 28.2093 176.65 28.802 177.126 29.278C177.602 29.754 178.185 29.992 178.876 29.992ZM190.994 23.818C191.815 23.818 192.473 24.0793 192.968 24.602C193.463 25.1153 193.71 25.8153 193.71 26.702V31H192.492V26.772C192.492 26.212 192.338 25.7733 192.03 25.456C191.722 25.1387 191.297 24.98 190.756 24.98C190.131 24.98 189.636 25.176 189.272 25.568C188.908 25.9507 188.726 26.5247 188.726 27.29V31H187.508V21.2H188.726V25.008C189.211 24.2147 189.967 23.818 190.994 23.818ZM201.206 25.204V24H202.424V31H201.206V29.796C200.609 30.72 199.727 31.182 198.56 31.182C197.571 31.182 196.736 30.8273 196.054 30.118C195.364 29.3993 195.018 28.5267 195.018 27.5C195.018 26.4827 195.364 25.6147 196.054 24.896C196.745 24.1773 197.58 23.818 198.56 23.818C199.727 23.818 200.609 24.28 201.206 25.204ZM198.714 30.006C199.424 30.006 200.016 29.768 200.492 29.292C200.968 28.7973 201.206 28.2 201.206 27.5C201.206 26.7907 200.968 26.198 200.492 25.722C200.016 25.2367 199.424 24.994 198.714 24.994C198.014 24.994 197.426 25.2367 196.95 25.722C196.474 26.198 196.236 26.7907 196.236 27.5C196.236 28.2 196.474 28.7973 196.95 29.292C197.426 29.768 198.014 30.006 198.714 30.006ZM205.306 25.89C205.306 26.338 205.768 26.688 206.692 26.94C207.037 27.0147 207.327 27.094 207.56 27.178C207.803 27.2527 208.064 27.3693 208.344 27.528C208.633 27.6867 208.853 27.8967 209.002 28.158C209.151 28.4193 209.226 28.7273 209.226 29.082C209.226 29.7167 208.979 30.2253 208.484 30.608C207.989 30.9907 207.364 31.182 206.608 31.182C205.936 31.182 205.353 31.0373 204.858 30.748C204.373 30.4493 204.027 30.048 203.822 29.544L204.872 28.942C204.984 29.278 205.194 29.544 205.502 29.74C205.81 29.936 206.179 30.034 206.608 30.034C207.028 30.034 207.364 29.9547 207.616 29.796C207.868 29.6373 207.994 29.3993 207.994 29.082C207.994 28.606 207.532 28.2607 206.608 28.046C206.3 27.962 206.067 27.8967 205.908 27.85C205.749 27.8033 205.53 27.7193 205.25 27.598C204.979 27.4767 204.774 27.3507 204.634 27.22C204.494 27.08 204.363 26.898 204.242 26.674C204.13 26.4407 204.074 26.184 204.074 25.904C204.074 25.2973 204.307 24.798 204.774 24.406C205.25 24.014 205.843 23.818 206.552 23.818C207.121 23.818 207.625 23.9487 208.064 24.21C208.512 24.462 208.848 24.8167 209.072 25.274L208.05 25.848C207.798 25.2507 207.299 24.952 206.552 24.952C206.197 24.952 205.899 25.036 205.656 25.204C205.423 25.372 205.306 25.6007 205.306 25.89ZM215.218 25.89C215.218 26.338 215.68 26.688 216.604 26.94C216.949 27.0147 217.239 27.094 217.472 27.178C217.715 27.2527 217.976 27.3693 218.256 27.528C218.545 27.6867 218.765 27.8967 218.914 28.158C219.063 28.4193 219.138 28.7273 219.138 29.082C219.138 29.7167 218.891 30.2253 218.396 30.608C217.901 30.9907 217.276 31.182 216.52 31.182C215.848 31.182 215.265 31.0373 214.77 30.748C214.285 30.4493 213.939 30.048 213.734 29.544L214.784 28.942C214.896 29.278 215.106 29.544 215.414 29.74C215.722 29.936 216.091 30.034 216.52 30.034C216.94 30.034 217.276 29.9547 217.528 29.796C217.78 29.6373 217.906 29.3993 217.906 29.082C217.906 28.606 217.444 28.2607 216.52 28.046C216.212 27.962 215.979 27.8967 215.82 27.85C215.661 27.8033 215.442 27.7193 215.162 27.598C214.891 27.4767 214.686 27.3507 214.546 27.22C214.406 27.08 214.275 26.898 214.154 26.674C214.042 26.4407 213.986 26.184 213.986 25.904C213.986 25.2973 214.219 24.798 214.686 24.406C215.162 24.014 215.755 23.818 216.464 23.818C217.033 23.818 217.537 23.9487 217.976 24.21C218.424 24.462 218.76 24.8167 218.984 25.274L217.962 25.848C217.71 25.2507 217.211 24.952 216.464 24.952C216.109 24.952 215.811 25.036 215.568 25.204C215.335 25.372 215.218 25.6007 215.218 25.89ZM226.297 30.118C225.588 30.8273 224.715 31.182 223.679 31.182C222.643 31.182 221.77 30.8273 221.061 30.118C220.352 29.4087 219.997 28.536 219.997 27.5C219.997 26.464 220.352 25.5913 221.061 24.882C221.77 24.1727 222.643 23.818 223.679 23.818C224.715 23.818 225.588 24.1727 226.297 24.882C227.016 25.6007 227.375 26.4733 227.375 27.5C227.375 28.5267 227.016 29.3993 226.297 30.118ZM223.679 29.992C224.379 29.992 224.967 29.754 225.443 29.278C225.919 28.802 226.157 28.2093 226.157 27.5C226.157 26.7907 225.919 26.198 225.443 25.722C224.967 25.246 224.379 25.008 223.679 25.008C222.988 25.008 222.405 25.246 221.929 25.722C221.453 26.198 221.215 26.7907 221.215 27.5C221.215 28.2093 221.453 28.802 221.929 29.278C222.405 29.754 222.988 29.992 223.679 29.992ZM232.149 21.018V22.194C230.917 22.0913 230.301 22.6233 230.301 23.79V24H232.149V25.176H230.301V31H229.083V25.176H227.963V24H229.083V23.79C229.083 22.838 229.349 22.124 229.881 21.648C230.413 21.1627 231.169 20.9527 232.149 21.018ZM237.144 24V25.176H235.282V28.97C235.282 29.3153 235.347 29.5627 235.478 29.712C235.618 29.852 235.828 29.9267 236.108 29.936C236.388 29.936 236.733 29.9267 237.144 29.908V31C236.071 31.14 235.287 31.0513 234.792 30.734C234.307 30.4167 234.064 29.8287 234.064 28.97V25.176H232.678V24H234.064V22.404L235.282 22.04V24H237.144ZM245.333 29.334L246.873 24H248.147L245.977 31H244.731L243.093 25.82L241.455 31H240.209L238.039 24H239.313L240.853 29.32L242.505 24H243.681L245.333 29.334ZM254.923 25.204V24H256.141V31H254.923V29.796C254.326 30.72 253.444 31.182 252.277 31.182C251.288 31.182 250.452 30.8273 249.771 30.118C249.08 29.3993 248.735 28.5267 248.735 27.5C248.735 26.4827 249.08 25.6147 249.771 24.896C250.462 24.1773 251.297 23.818 252.277 23.818C253.444 23.818 254.326 24.28 254.923 25.204ZM252.431 30.006C253.14 30.006 253.733 29.768 254.209 29.292C254.685 28.7973 254.923 28.2 254.923 27.5C254.923 26.7907 254.685 26.198 254.209 25.722C253.733 25.2367 253.14 24.994 252.431 24.994C251.731 24.994 251.143 25.2367 250.667 25.722C250.191 26.198 249.953 26.7907 249.953 27.5C249.953 28.2 250.191 28.7973 250.667 29.292C251.143 29.768 251.731 30.006 252.431 30.006ZM259.205 24V25.176C259.606 24.308 260.334 23.874 261.389 23.874V25.148C260.791 25.12 260.278 25.2787 259.849 25.624C259.419 25.9693 259.205 26.5247 259.205 27.29V31H257.986V24H259.205ZM268.917 28.06H263.051C263.173 28.676 263.457 29.1613 263.905 29.516C264.353 29.8613 264.913 30.034 265.585 30.034C266.509 30.034 267.181 29.6933 267.601 29.012L268.637 29.6C267.947 30.6547 266.92 31.182 265.557 31.182C264.456 31.182 263.551 30.8367 262.841 30.146C262.151 29.4367 261.805 28.5547 261.805 27.5C261.805 26.436 262.146 25.5587 262.827 24.868C263.509 24.168 264.391 23.818 265.473 23.818C266.5 23.818 267.335 24.182 267.979 24.91C268.633 25.6193 268.959 26.4873 268.959 27.514C268.959 27.6913 268.945 27.8733 268.917 28.06ZM265.473 24.966C264.829 24.966 264.288 25.148 263.849 25.512C263.42 25.876 263.154 26.3707 263.051 26.996H267.727C267.625 26.352 267.368 25.8527 266.957 25.498C266.547 25.1433 266.052 24.966 265.473 24.966ZM22.72 46.204V42.2H23.938V52H22.72V50.796C22.1227 51.72 21.2407 52.182 20.074 52.182C19.0847 52.182 18.2493 51.8273 17.568 51.118C16.8773 50.3993 16.532 49.5267 16.532 48.5C16.532 47.4827 16.8773 46.6147 17.568 45.896C18.2587 45.1773 19.094 44.818 20.074 44.818C21.2407 44.818 22.1227 45.28 22.72 46.204ZM20.228 51.006C20.9373 51.006 21.53 50.768 22.006 50.292C22.482 49.7973 22.72 49.2 22.72 48.5C22.72 47.7907 22.482 47.198 22.006 46.722C21.53 46.2367 20.9373 45.994 20.228 45.994C19.528 45.994 18.94 46.2367 18.464 46.722C17.988 47.198 17.75 47.7907 17.75 48.5C17.75 49.2 17.988 49.7973 18.464 50.292C18.94 50.768 19.528 51.006 20.228 51.006ZM32.5034 49.06H26.6374C26.7587 49.676 27.0434 50.1613 27.4914 50.516C27.9394 50.8613 28.4994 51.034 29.1714 51.034C30.0954 51.034 30.7674 50.6933 31.1874 50.012L32.2234 50.6C31.5327 51.6547 30.506 52.182 29.1434 52.182C28.042 52.182 27.1367 51.8367 26.4274 51.146C25.7367 50.4367 25.3914 49.5547 25.3914 48.5C25.3914 47.436 25.732 46.5587 26.4134 45.868C27.0947 45.168 27.9767 44.818 29.0594 44.818C30.086 44.818 30.9214 45.182 31.5654 45.91C32.2187 46.6193 32.5454 47.4873 32.5454 48.514C32.5454 48.6913 32.5314 48.8733 32.5034 49.06ZM29.0594 45.966C28.4154 45.966 27.874 46.148 27.4354 46.512C27.006 46.876 26.74 47.3707 26.6374 47.996H31.3134C31.2107 47.352 30.954 46.8527 30.5434 46.498C30.1327 46.1433 29.638 45.966 29.0594 45.966ZM36.374 50.698L38.572 45H39.888L37.088 52H35.66L32.86 45H34.176L36.374 50.698ZM47.3647 49.06H41.4987C41.62 49.676 41.9047 50.1613 42.3527 50.516C42.8007 50.8613 43.3607 51.034 44.0327 51.034C44.9567 51.034 45.6287 50.6933 46.0487 50.012L47.0847 50.6C46.394 51.6547 45.3674 52.182 44.0047 52.182C42.9034 52.182 41.998 51.8367 41.2887 51.146C40.598 50.4367 40.2527 49.5547 40.2527 48.5C40.2527 47.436 40.5934 46.5587 41.2747 45.868C41.956 45.168 42.838 44.818 43.9207 44.818C44.9474 44.818 45.7827 45.182 46.4267 45.91C47.08 46.6193 47.4067 47.4873 47.4067 48.514C47.4067 48.6913 47.3927 48.8733 47.3647 49.06ZM43.9207 45.966C43.2767 45.966 42.7354 46.148 42.2967 46.512C41.8674 46.876 41.6014 47.3707 41.4987 47.996H46.1747C46.072 47.352 45.8154 46.8527 45.4047 46.498C44.994 46.1433 44.4994 45.966 43.9207 45.966ZM50.0248 52H48.8068V41.78H50.0248V52ZM57.791 51.118C57.0817 51.8273 56.209 52.182 55.173 52.182C54.137 52.182 53.2643 51.8273 52.555 51.118C51.8457 50.4087 51.491 49.536 51.491 48.5C51.491 47.464 51.8457 46.5913 52.555 45.882C53.2643 45.1727 54.137 44.818 55.173 44.818C56.209 44.818 57.0817 45.1727 57.791 45.882C58.5097 46.6007 58.869 47.4733 58.869 48.5C58.869 49.5267 58.5097 50.3993 57.791 51.118ZM55.173 50.992C55.873 50.992 56.461 50.754 56.937 50.278C57.413 49.802 57.651 49.2093 57.651 48.5C57.651 47.7907 57.413 47.198 56.937 46.722C56.461 46.246 55.873 46.008 55.173 46.008C54.4823 46.008 53.899 46.246 53.423 46.722C52.947 47.198 52.709 47.7907 52.709 48.5C52.709 49.2093 52.947 49.802 53.423 50.278C53.899 50.754 54.4823 50.992 55.173 50.992ZM64.1689 44.818C65.1489 44.818 65.9842 45.1773 66.6749 45.896C67.3655 46.6147 67.7109 47.4827 67.7109 48.5C67.7109 49.5267 67.3655 50.3993 66.6749 51.118C65.9935 51.8273 65.1582 52.182 64.1689 52.182C63.0115 52.182 62.1295 51.72 61.5229 50.796V54.8H60.3049V45H61.5229V46.204C62.1295 45.28 63.0115 44.818 64.1689 44.818ZM64.0149 51.006C64.7149 51.006 65.3029 50.768 65.7789 50.292C66.2549 49.7973 66.4929 49.2 66.4929 48.5C66.4929 47.7907 66.2549 47.198 65.7789 46.722C65.3029 46.2367 64.7149 45.994 64.0149 45.994C63.3055 45.994 62.7129 46.2367 62.2369 46.722C61.7609 47.198 61.5229 47.7907 61.5229 48.5C61.5229 49.2 61.7609 49.7973 62.2369 50.292C62.7129 50.768 63.3055 51.006 64.0149 51.006ZM76.7242 44.818C77.5176 44.818 78.1522 45.0747 78.6282 45.588C79.1136 46.1013 79.3562 46.7873 79.3562 47.646V52H78.1382V47.688C78.1382 47.156 77.9982 46.7407 77.7182 46.442C77.4476 46.134 77.0742 45.98 76.5982 45.98C76.0569 45.98 75.6322 46.162 75.3242 46.526C75.0256 46.8807 74.8762 47.408 74.8762 48.108V52H73.6582V47.688C73.6582 47.156 73.5229 46.7407 73.2522 46.442C72.9909 46.134 72.6316 45.98 72.1742 45.98C71.6422 45.98 71.2082 46.1667 70.8722 46.54C70.5456 46.904 70.3822 47.4267 70.3822 48.108V52H69.1642V45H70.3822V45.938C70.8582 45.1913 71.5536 44.818 72.4682 44.818C73.4109 44.818 74.0969 45.2147 74.5262 46.008C75.0116 45.2147 75.7442 44.818 76.7242 44.818ZM87.7651 49.06H81.8991C82.0204 49.676 82.3051 50.1613 82.7531 50.516C83.2011 50.8613 83.7611 51.034 84.4331 51.034C85.3571 51.034 86.0291 50.6933 86.4491 50.012L87.4851 50.6C86.7944 51.6547 85.7678 52.182 84.4051 52.182C83.3038 52.182 82.3984 51.8367 81.6891 51.146C80.9984 50.4367 80.6531 49.5547 80.6531 48.5C80.6531 47.436 80.9938 46.5587 81.6751 45.868C82.3564 45.168 83.2384 44.818 84.3211 44.818C85.3478 44.818 86.1831 45.182 86.8271 45.91C87.4804 46.6193 87.8071 47.4873 87.8071 48.514C87.8071 48.6913 87.7931 48.8733 87.7651 49.06ZM84.3211 45.966C83.6771 45.966 83.1358 46.148 82.6971 46.512C82.2678 46.876 82.0018 47.3707 81.8991 47.996H86.5751C86.4724 47.352 86.2158 46.8527 85.8051 46.498C85.3944 46.1433 84.8998 45.966 84.3211 45.966ZM92.6932 44.818C93.5145 44.818 94.1725 45.0793 94.6672 45.602C95.1619 46.1153 95.4092 46.8153 95.4092 47.702V52H94.1912V47.772C94.1912 47.212 94.0372 46.7733 93.7292 46.456C93.4212 46.1387 92.9965 45.98 92.4552 45.98C91.8299 45.98 91.3352 46.176 90.9712 46.568C90.6072 46.9507 90.4252 47.5247 90.4252 48.29V52H89.2072V45H90.4252V46.008C90.9105 45.2147 91.6665 44.818 92.6932 44.818ZM100.918 45V46.176H99.0555V49.97C99.0555 50.3153 99.1209 50.5627 99.2515 50.712C99.3915 50.852 99.6015 50.9267 99.8815 50.936C100.162 50.936 100.507 50.9267 100.918 50.908V52C99.8442 52.14 99.0602 52.0513 98.5655 51.734C98.0802 51.4167 97.8375 50.8287 97.8375 49.97V46.176H96.4515V45H97.8375V43.404L99.0555 43.04V45H100.918ZM112.621 49.06H106.755C106.876 49.676 107.161 50.1613 107.609 50.516C108.057 50.8613 108.617 51.034 109.289 51.034C110.213 51.034 110.885 50.6933 111.305 50.012L112.341 50.6C111.65 51.6547 110.623 52.182 109.261 52.182C108.159 52.182 107.254 51.8367 106.545 51.146C105.854 50.4367 105.509 49.5547 105.509 48.5C105.509 47.436 105.849 46.5587 106.531 45.868C107.212 45.168 108.094 44.818 109.177 44.818C110.203 44.818 111.039 45.182 111.683 45.91C112.336 46.6193 112.663 47.4873 112.663 48.514C112.663 48.6913 112.649 48.8733 112.621 49.06ZM109.177 45.966C108.533 45.966 107.991 46.148 107.553 46.512C107.123 46.876 106.857 47.3707 106.755 47.996H111.431C111.328 47.352 111.071 46.8527 110.661 46.498C110.25 46.1433 109.755 45.966 109.177 45.966ZM117.137 48.388L119.811 52H118.383L116.423 49.354L114.449 52H113.021L115.709 48.402L113.175 45H114.617L116.423 47.436L118.229 45H119.657L117.137 48.388ZM124.804 44.818C125.784 44.818 126.619 45.1773 127.31 45.896C128 46.6147 128.346 47.4827 128.346 48.5C128.346 49.5267 128 50.3993 127.31 51.118C126.628 51.8273 125.793 52.182 124.804 52.182C123.646 52.182 122.764 51.72 122.158 50.796V54.8H120.94V45H122.158V46.204C122.764 45.28 123.646 44.818 124.804 44.818ZM124.65 51.006C125.35 51.006 125.938 50.768 126.414 50.292C126.89 49.7973 127.128 49.2 127.128 48.5C127.128 47.7907 126.89 47.198 126.414 46.722C125.938 46.2367 125.35 45.994 124.65 45.994C123.94 45.994 123.348 46.2367 122.872 46.722C122.396 47.198 122.158 47.7907 122.158 48.5C122.158 49.2 122.396 49.7973 122.872 50.292C123.348 50.768 123.94 51.006 124.65 51.006ZM136.519 49.06H130.653C130.774 49.676 131.059 50.1613 131.507 50.516C131.955 50.8613 132.515 51.034 133.187 51.034C134.111 51.034 134.783 50.6933 135.203 50.012L136.239 50.6C135.548 51.6547 134.522 52.182 133.159 52.182C132.058 52.182 131.152 51.8367 130.443 51.146C129.752 50.4367 129.407 49.5547 129.407 48.5C129.407 47.436 129.748 46.5587 130.429 45.868C131.11 45.168 131.992 44.818 133.075 44.818C134.102 44.818 134.937 45.182 135.581 45.91C136.234 46.6193 136.561 47.4873 136.561 48.514C136.561 48.6913 136.547 48.8733 136.519 49.06ZM133.075 45.966C132.431 45.966 131.89 46.148 131.451 46.512C131.022 46.876 130.756 47.3707 130.653 47.996H135.329C135.226 47.352 134.97 46.8527 134.559 46.498C134.148 46.1433 133.654 45.966 133.075 45.966ZM139.179 45V46.176C139.58 45.308 140.308 44.874 141.363 44.874V46.148C140.766 46.12 140.252 46.2787 139.823 46.624C139.394 46.9693 139.179 47.5247 139.179 48.29V52H137.961V45H139.179ZM143.171 43.726C142.938 43.726 142.742 43.6467 142.583 43.488C142.424 43.3293 142.345 43.138 142.345 42.914C142.345 42.69 142.424 42.4987 142.583 42.34C142.742 42.172 142.938 42.088 143.171 42.088C143.395 42.088 143.586 42.172 143.745 42.34C143.904 42.4987 143.983 42.69 143.983 42.914C143.983 43.138 143.904 43.3293 143.745 43.488C143.586 43.6467 143.395 43.726 143.171 43.726ZM143.773 52H142.555V45H143.773V52ZM152.351 49.06H146.485C146.606 49.676 146.891 50.1613 147.339 50.516C147.787 50.8613 148.347 51.034 149.019 51.034C149.943 51.034 150.615 50.6933 151.035 50.012L152.071 50.6C151.38 51.6547 150.354 52.182 148.991 52.182C147.89 52.182 146.984 51.8367 146.275 51.146C145.584 50.4367 145.239 49.5547 145.239 48.5C145.239 47.436 145.58 46.5587 146.261 45.868C146.942 45.168 147.824 44.818 148.907 44.818C149.934 44.818 150.769 45.182 151.413 45.91C152.066 46.6193 152.393 47.4873 152.393 48.514C152.393 48.6913 152.379 48.8733 152.351 49.06ZM148.907 45.966C148.263 45.966 147.722 46.148 147.283 46.512C146.854 46.876 146.588 47.3707 146.485 47.996H151.161C151.058 47.352 150.802 46.8527 150.391 46.498C149.98 46.1433 149.486 45.966 148.907 45.966ZM157.279 44.818C158.1 44.818 158.758 45.0793 159.253 45.602C159.748 46.1153 159.995 46.8153 159.995 47.702V52H158.777V47.772C158.777 47.212 158.623 46.7733 158.315 46.456C158.007 46.1387 157.582 45.98 157.041 45.98C156.416 45.98 155.921 46.176 155.557 46.568C155.193 46.9507 155.011 47.5247 155.011 48.29V52H153.793V45H155.011V46.008C155.496 45.2147 156.252 44.818 157.279 44.818ZM164.985 52.182C163.931 52.182 163.053 51.832 162.353 51.132C161.653 50.4227 161.303 49.5453 161.303 48.5C161.303 47.4547 161.653 46.582 162.353 45.882C163.053 45.1727 163.931 44.818 164.985 44.818C165.676 44.818 166.297 44.986 166.847 45.322C167.398 45.6487 167.809 46.092 168.079 46.652L167.057 47.24C166.88 46.8667 166.605 46.568 166.231 46.344C165.867 46.12 165.452 46.008 164.985 46.008C164.285 46.008 163.697 46.246 163.221 46.722C162.755 47.2073 162.521 47.8 162.521 48.5C162.521 49.1907 162.755 49.7787 163.221 50.264C163.697 50.74 164.285 50.978 164.985 50.978C165.452 50.978 165.872 50.8707 166.245 50.656C166.619 50.432 166.903 50.1333 167.099 49.76L168.135 50.362C167.827 50.922 167.393 51.3653 166.833 51.692C166.273 52.0187 165.657 52.182 164.985 52.182ZM175.962 49.06H170.096C170.218 49.676 170.502 50.1613 170.95 50.516C171.398 50.8613 171.958 51.034 172.63 51.034C173.554 51.034 174.226 50.6933 174.646 50.012L175.682 50.6C174.992 51.6547 173.965 52.182 172.602 52.182C171.501 52.182 170.596 51.8367 169.886 51.146C169.196 50.4367 168.85 49.5547 168.85 48.5C168.85 47.436 169.191 46.5587 169.872 45.868C170.554 45.168 171.436 44.818 172.518 44.818C173.545 44.818 174.38 45.182 175.024 45.91C175.678 46.6193 176.004 47.4873 176.004 48.514C176.004 48.6913 175.99 48.8733 175.962 49.06ZM172.518 45.966C171.874 45.966 171.333 46.148 170.894 46.512C170.465 46.876 170.199 47.3707 170.096 47.996H174.772C174.67 47.352 174.413 46.8527 174.002 46.498C173.592 46.1433 173.097 45.966 172.518 45.966ZM186.7 46.204V45H187.918V52H186.7V50.796C186.103 51.72 185.221 52.182 184.054 52.182C183.065 52.182 182.23 51.8273 181.548 51.118C180.858 50.3993 180.512 49.5267 180.512 48.5C180.512 47.4827 180.858 46.6147 181.548 45.896C182.239 45.1773 183.074 44.818 184.054 44.818C185.221 44.818 186.103 45.28 186.7 46.204ZM184.208 51.006C184.918 51.006 185.51 50.768 185.986 50.292C186.462 49.7973 186.7 49.2 186.7 48.5C186.7 47.7907 186.462 47.198 185.986 46.722C185.51 46.2367 184.918 45.994 184.208 45.994C183.508 45.994 182.92 46.2367 182.444 46.722C181.968 47.198 181.73 47.7907 181.73 48.5C181.73 49.2 181.968 49.7973 182.444 50.292C182.92 50.768 183.508 51.006 184.208 51.006ZM190.982 52H189.764V41.78H190.982V52ZM198.748 51.118C198.039 51.8273 197.166 52.182 196.13 52.182C195.094 52.182 194.221 51.8273 193.512 51.118C192.803 50.4087 192.448 49.536 192.448 48.5C192.448 47.464 192.803 46.5913 193.512 45.882C194.221 45.1727 195.094 44.818 196.13 44.818C197.166 44.818 198.039 45.1727 198.748 45.882C199.467 46.6007 199.826 47.4733 199.826 48.5C199.826 49.5267 199.467 50.3993 198.748 51.118ZM196.13 50.992C196.83 50.992 197.418 50.754 197.894 50.278C198.37 49.802 198.608 49.2093 198.608 48.5C198.608 47.7907 198.37 47.198 197.894 46.722C197.418 46.246 196.83 46.008 196.13 46.008C195.439 46.008 194.856 46.246 194.38 46.722C193.904 47.198 193.666 47.7907 193.666 48.5C193.666 49.2093 193.904 49.802 194.38 50.278C194.856 50.754 195.439 50.992 196.13 50.992ZM204.748 44.818C205.569 44.818 206.227 45.0793 206.722 45.602C207.217 46.1153 207.464 46.8153 207.464 47.702V52H206.246V47.772C206.246 47.212 206.092 46.7733 205.784 46.456C205.476 46.1387 205.051 45.98 204.51 45.98C203.885 45.98 203.39 46.176 203.026 46.568C202.662 46.9507 202.48 47.5247 202.48 48.29V52H201.262V45H202.48V46.008C202.965 45.2147 203.721 44.818 204.748 44.818ZM214.974 46.204V45H216.178V51.706C216.178 52.742 215.828 53.5447 215.128 54.114C214.419 54.6927 213.579 54.982 212.608 54.982C211.824 54.982 211.148 54.8327 210.578 54.534C210.009 54.2447 209.58 53.8247 209.29 53.274L210.354 52.672C210.737 53.456 211.498 53.848 212.636 53.848C213.364 53.848 213.934 53.6567 214.344 53.274C214.764 52.8913 214.974 52.3687 214.974 51.706V50.712C214.358 51.6453 213.481 52.112 212.342 52.112C211.334 52.112 210.49 51.7573 209.808 51.048C209.118 50.3293 208.772 49.466 208.772 48.458C208.772 47.45 209.118 46.5913 209.808 45.882C210.49 45.1727 211.334 44.818 212.342 44.818C213.49 44.818 214.368 45.28 214.974 46.204ZM214.974 48.458C214.974 47.758 214.736 47.17 214.26 46.694C213.784 46.218 213.192 45.98 212.482 45.98C211.773 45.98 211.18 46.218 210.704 46.694C210.228 47.17 209.99 47.758 209.99 48.458C209.99 49.1673 210.228 49.76 210.704 50.236C211.18 50.712 211.773 50.95 212.482 50.95C213.192 50.95 213.784 50.712 214.26 50.236C214.736 49.76 214.974 49.1673 214.974 48.458ZM228.23 50.334L229.77 45H231.044L228.874 52H227.628L225.99 46.82L224.352 52H223.106L220.936 45H222.21L223.75 50.32L225.402 45H226.578L228.23 50.334ZM232.913 43.726C232.68 43.726 232.484 43.6467 232.325 43.488C232.166 43.3293 232.087 43.138 232.087 42.914C232.087 42.69 232.166 42.4987 232.325 42.34C232.484 42.172 232.68 42.088 232.913 42.088C233.137 42.088 233.328 42.172 233.487 42.34C233.646 42.4987 233.725 42.69 233.725 42.914C233.725 43.138 233.646 43.3293 233.487 43.488C233.328 43.6467 233.137 43.726 232.913 43.726ZM233.515 52H232.297V45H233.515V52ZM239.181 45V46.176H237.319V49.97C237.319 50.3153 237.385 50.5627 237.515 50.712C237.655 50.852 237.865 50.9267 238.145 50.936C238.425 50.936 238.771 50.9267 239.181 50.908V52C238.108 52.14 237.324 52.0513 236.829 51.734C236.344 51.4167 236.101 50.8287 236.101 49.97V46.176H234.715V45H236.101V43.404L237.319 43.04V45H239.181ZM244.109 44.818C244.931 44.818 245.589 45.0793 246.083 45.602C246.578 46.1153 246.825 46.8153 246.825 47.702V52H245.607V47.772C245.607 47.212 245.453 46.7733 245.145 46.456C244.837 46.1387 244.413 45.98 243.871 45.98C243.246 45.98 242.751 46.176 242.387 46.568C242.023 46.9507 241.841 47.5247 241.841 48.29V52H240.623V42.2H241.841V46.008C242.327 45.2147 243.083 44.818 244.109 44.818ZM22.72 68.204V64.2H23.938V74H22.72V72.796C22.1227 73.72 21.2407 74.182 20.074 74.182C19.0847 74.182 18.2493 73.8273 17.568 73.118C16.8773 72.3993 16.532 71.5267 16.532 70.5C16.532 69.4827 16.8773 68.6147 17.568 67.896C18.2587 67.1773 19.094 66.818 20.074 66.818C21.2407 66.818 22.1227 67.28 22.72 68.204ZM20.228 73.006C20.9373 73.006 21.53 72.768 22.006 72.292C22.482 71.7973 22.72 71.2 22.72 70.5C22.72 69.7907 22.482 69.198 22.006 68.722C21.53 68.2367 20.9373 67.994 20.228 67.994C19.528 67.994 18.94 68.2367 18.464 68.722C17.988 69.198 17.75 69.7907 17.75 70.5C17.75 71.2 17.988 71.7973 18.464 72.292C18.94 72.768 19.528 73.006 20.228 73.006ZM32.5034 71.06H26.6374C26.7587 71.676 27.0434 72.1613 27.4914 72.516C27.9394 72.8613 28.4994 73.034 29.1714 73.034C30.0954 73.034 30.7674 72.6933 31.1874 72.012L32.2234 72.6C31.5327 73.6547 30.506 74.182 29.1434 74.182C28.042 74.182 27.1367 73.8367 26.4274 73.146C25.7367 72.4367 25.3914 71.5547 25.3914 70.5C25.3914 69.436 25.732 68.5587 26.4134 67.868C27.0947 67.168 27.9767 66.818 29.0594 66.818C30.086 66.818 30.9214 67.182 31.5654 67.91C32.2187 68.6193 32.5454 69.4873 32.5454 70.514C32.5454 70.6913 32.5314 70.8733 32.5034 71.06ZM29.0594 67.966C28.4154 67.966 27.874 68.148 27.4354 68.512C27.006 68.876 26.74 69.3707 26.6374 69.996H31.3134C31.2107 69.352 30.954 68.8527 30.5434 68.498C30.1327 68.1433 29.638 67.966 29.0594 67.966ZM34.722 68.89C34.722 69.338 35.184 69.688 36.108 69.94C36.4534 70.0147 36.7427 70.094 36.976 70.178C37.2187 70.2527 37.48 70.3693 37.76 70.528C38.0494 70.6867 38.2687 70.8967 38.418 71.158C38.5674 71.4193 38.642 71.7273 38.642 72.082C38.642 72.7167 38.3947 73.2253 37.9 73.608C37.4054 73.9907 36.78 74.182 36.024 74.182C35.352 74.182 34.7687 74.0373 34.274 73.748C33.7887 73.4493 33.4434 73.048 33.238 72.544L34.288 71.942C34.4 72.278 34.61 72.544 34.918 72.74C35.226 72.936 35.5947 73.034 36.024 73.034C36.444 73.034 36.78 72.9547 37.032 72.796C37.284 72.6373 37.41 72.3993 37.41 72.082C37.41 71.606 36.948 71.2607 36.024 71.046C35.716 70.962 35.4827 70.8967 35.324 70.85C35.1654 70.8033 34.946 70.7193 34.666 70.598C34.3954 70.4767 34.19 70.3507 34.05 70.22C33.91 70.08 33.7794 69.898 33.658 69.674C33.546 69.4407 33.49 69.184 33.49 68.904C33.49 68.2973 33.7234 67.798 34.19 67.406C34.666 67.014 35.2587 66.818 35.968 66.818C36.5374 66.818 37.0414 66.9487 37.48 67.21C37.928 67.462 38.264 67.8167 38.488 68.274L37.466 68.848C37.214 68.2507 36.7147 67.952 35.968 67.952C35.6134 67.952 35.3147 68.036 35.072 68.204C34.8387 68.372 34.722 68.6007 34.722 68.89ZM40.6318 65.726C40.3985 65.726 40.2025 65.6467 40.0438 65.488C39.8851 65.3293 39.8058 65.138 39.8058 64.914C39.8058 64.69 39.8851 64.4987 40.0438 64.34C40.2025 64.172 40.3985 64.088 40.6318 64.088C40.8558 64.088 41.0471 64.172 41.2058 64.34C41.3645 64.4987 41.4438 64.69 41.4438 64.914C41.4438 65.138 41.3645 65.3293 41.2058 65.488C41.0471 65.6467 40.8558 65.726 40.6318 65.726ZM41.2338 74H40.0158V67H41.2338V74ZM48.902 68.204V67H50.106V73.706C50.106 74.742 49.756 75.5447 49.056 76.114C48.3466 76.6927 47.5066 76.982 46.536 76.982C45.752 76.982 45.0753 76.8327 44.506 76.534C43.9366 76.2447 43.5073 75.8247 43.218 75.274L44.282 74.672C44.6646 75.456 45.4253 75.848 46.564 75.848C47.292 75.848 47.8613 75.6567 48.272 75.274C48.692 74.8913 48.902 74.3687 48.902 73.706V72.712C48.286 73.6453 47.4086 74.112 46.27 74.112C45.262 74.112 44.4173 73.7573 43.736 73.048C43.0453 72.3293 42.7 71.466 42.7 70.458C42.7 69.45 43.0453 68.5913 43.736 67.882C44.4173 67.1727 45.262 66.818 46.27 66.818C47.418 66.818 48.2953 67.28 48.902 68.204ZM48.902 70.458C48.902 69.758 48.664 69.17 48.188 68.694C47.712 68.218 47.1193 67.98 46.41 67.98C45.7006 67.98 45.108 68.218 44.632 68.694C44.156 69.17 43.918 69.758 43.918 70.458C43.918 71.1673 44.156 71.76 44.632 72.236C45.108 72.712 45.7006 72.95 46.41 72.95C47.1193 72.95 47.712 72.712 48.188 72.236C48.664 71.76 48.902 71.1673 48.902 70.458ZM55.4373 66.818C56.2587 66.818 56.9167 67.0793 57.4113 67.602C57.906 68.1153 58.1533 68.8153 58.1533 69.702V74H56.9353V69.772C56.9353 69.212 56.7813 68.7733 56.4733 68.456C56.1653 68.1387 55.7407 67.98 55.1993 67.98C54.574 67.98 54.0793 68.176 53.7153 68.568C53.3513 68.9507 53.1693 69.5247 53.1693 70.29V74H51.9513V67H53.1693V68.008C53.6547 67.2147 54.4107 66.818 55.4373 66.818ZM64.4037 68.89C64.4037 69.338 64.8657 69.688 65.7897 69.94C66.135 70.0147 66.4244 70.094 66.6577 70.178C66.9004 70.2527 67.1617 70.3693 67.4417 70.528C67.731 70.6867 67.9504 70.8967 68.0997 71.158C68.249 71.4193 68.3237 71.7273 68.3237 72.082C68.3237 72.7167 68.0764 73.2253 67.5817 73.608C67.087 73.9907 66.4617 74.182 65.7057 74.182C65.0337 74.182 64.4504 74.0373 63.9557 73.748C63.4704 73.4493 63.125 73.048 62.9197 72.544L63.9697 71.942C64.0817 72.278 64.2917 72.544 64.5997 72.74C64.9077 72.936 65.2764 73.034 65.7057 73.034C66.1257 73.034 66.4617 72.9547 66.7137 72.796C66.9657 72.6373 67.0917 72.3993 67.0917 72.082C67.0917 71.606 66.6297 71.2607 65.7057 71.046C65.3977 70.962 65.1644 70.8967 65.0057 70.85C64.847 70.8033 64.6277 70.7193 64.3477 70.598C64.077 70.4767 63.8717 70.3507 63.7317 70.22C63.5917 70.08 63.461 69.898 63.3397 69.674C63.2277 69.4407 63.1717 69.184 63.1717 68.904C63.1717 68.2973 63.405 67.798 63.8717 67.406C64.3477 67.014 64.9404 66.818 65.6497 66.818C66.219 66.818 66.723 66.9487 67.1617 67.21C67.6097 67.462 67.9457 67.8167 68.1697 68.274L67.1477 68.848C66.8957 68.2507 66.3964 67.952 65.6497 67.952C65.295 67.952 64.9964 68.036 64.7537 68.204C64.5204 68.372 64.4037 68.6007 64.4037 68.89ZM72.1614 70.388L75.6194 74H74.1074L70.9154 70.682V74H69.6974V64.2H70.9154V70.094L73.9394 67H75.5074L72.1614 70.388ZM77.3681 65.726C77.1348 65.726 76.9388 65.6467 76.7801 65.488C76.6215 65.3293 76.5421 65.138 76.5421 64.914C76.5421 64.69 76.6215 64.4987 76.7801 64.34C76.9388 64.172 77.1348 64.088 77.3681 64.088C77.5921 64.088 77.7835 64.172 77.9421 64.34C78.1008 64.4987 78.1801 64.69 78.1801 64.914C78.1801 65.138 78.1008 65.3293 77.9421 65.488C77.7835 65.6467 77.5921 65.726 77.3681 65.726ZM77.9701 74H76.7521V67H77.9701V74ZM81.0463 74H79.8283V63.78H81.0463V74ZM84.1225 74H82.9045V63.78H84.1225V74ZM87.017 68.89C87.017 69.338 87.479 69.688 88.403 69.94C88.7483 70.0147 89.0376 70.094 89.271 70.178C89.5136 70.2527 89.775 70.3693 90.055 70.528C90.3443 70.6867 90.5636 70.8967 90.713 71.158C90.8623 71.4193 90.937 71.7273 90.937 72.082C90.937 72.7167 90.6896 73.2253 90.195 73.608C89.7003 73.9907 89.075 74.182 88.319 74.182C87.647 74.182 87.0636 74.0373 86.569 73.748C86.0836 73.4493 85.7383 73.048 85.533 72.544L86.583 71.942C86.695 72.278 86.905 72.544 87.213 72.74C87.521 72.936 87.8896 73.034 88.319 73.034C88.739 73.034 89.075 72.9547 89.327 72.796C89.579 72.6373 89.705 72.3993 89.705 72.082C89.705 71.606 89.243 71.2607 88.319 71.046C88.011 70.962 87.7776 70.8967 87.619 70.85C87.4603 70.8033 87.241 70.7193 86.961 70.598C86.6903 70.4767 86.485 70.3507 86.345 70.22C86.205 70.08 86.0743 69.898 85.953 69.674C85.841 69.4407 85.785 69.184 85.785 68.904C85.785 68.2973 86.0183 67.798 86.485 67.406C86.961 67.014 87.5536 66.818 88.263 66.818C88.8323 66.818 89.3363 66.9487 89.775 67.21C90.223 67.462 90.559 67.8167 90.783 68.274L89.761 68.848C89.509 68.2507 89.0096 67.952 88.263 67.952C87.9083 67.952 87.6096 68.036 87.367 68.204C87.1336 68.372 87.017 68.6007 87.017 68.89Z" fill="white"/>
<path d="M299.5 37.75C293.85 37.75 289.25 33.15 289.25 27.5C289.25 21.85 293.85 17.25 299.5 17.25C305.15 17.25 309.75 21.85 309.75 27.5C309.75 33.15 305.15 37.75 299.5 37.75ZM299.5 18.75C294.67 18.75 290.75 22.68 290.75 27.5C290.75 32.32 294.67 36.25 299.5 36.25C304.33 36.25 308.25 32.32 308.25 27.5C308.25 22.68 304.33 18.75 299.5 18.75Z" fill="#5C5C5C"/>
<path d="M309.999 38.7495C309.809 38.7495 309.619 38.6795 309.469 38.5295L307.469 36.5295C307.179 36.2395 307.179 35.7595 307.469 35.4695C307.759 35.1795 308.239 35.1795 308.529 35.4695L310.529 37.4695C310.819 37.7595 310.819 38.2395 310.529 38.5295C310.379 38.6795 310.189 38.7495 309.999 38.7495Z" fill="#5C5C5C"/>
</svg>
