<svg width="24" height="25" viewBox="0 0 24 25" fill="none" xmlns="http://www.w3.org/2000/svg">
<path d="M19.4 15.4C20.2 16.9 21 17.5 21 17.5H3C3 17.5 6 15.5 6 8.5C6 5.2 8.7 2.5 12 2.5C12.7 2.5 13.3 2.6 13.9 2.8" stroke="black" stroke-width="2" stroke-linecap="round" stroke-linejoin="round"/>
<path d="M10.3008 21.5C10.4682 21.8044 10.7142 22.0583 11.0133 22.2352C11.3123 22.412 11.6534 22.5053 12.0008 22.5053C12.3482 22.5053 12.6892 22.412 12.9883 22.2352C13.2873 22.0583 13.5334 21.8044 13.7008 21.5" stroke="black" stroke-width="2" stroke-linecap="round" stroke-linejoin="round"/>
<path d="M18 11.5C19.6569 11.5 21 10.1569 21 8.5C21 6.84315 19.6569 5.5 18 5.5C16.3431 5.5 15 6.84315 15 8.5C15 10.1569 16.3431 11.5 18 11.5Z" fill="#DC2626" stroke="#DC2626" stroke-width="2" stroke-linecap="round" stroke-linejoin="round"/>
</svg>
