<svg width="15" height="17" viewBox="0 0 15 17" fill="none" xmlns="http://www.w3.org/2000/svg">
<path fill-rule="evenodd" clip-rule="evenodd" d="M8.88626 7.08635C8.88626 7.5195 8.80581 7.9484 8.6495 8.34857C8.49319 8.74874 8.26409 9.11235 7.97526 9.41863C7.68644 9.7249 7.34356 9.96786 6.96619 10.1336C6.58883 10.2994 6.18437 10.3847 5.77591 10.3847C5.36746 10.3847 4.963 10.2994 4.58563 10.1336C4.20827 9.96786 3.86538 9.7249 3.57656 9.41863C3.28774 9.11235 3.05863 8.74874 2.90232 8.34857C2.74601 7.9484 2.66556 7.5195 2.66556 7.08635C2.66556 6.21158 2.99326 5.37263 3.57656 4.75408C4.15987 4.13552 4.951 3.78802 5.77591 3.78802C6.60083 3.78802 7.39196 4.13552 7.97526 4.75408C8.55857 5.37263 8.88626 6.21158 8.88626 7.08635ZM8.26419 10.4035C7.46606 11.0812 6.45344 11.409 5.43446 11.3195C4.41547 11.23 3.46753 10.7299 2.78545 9.92218C2.10337 9.11441 1.73897 8.06028 1.76714 6.97642C1.79531 5.89256 2.21391 4.86131 2.93691 4.09462C3.65991 3.32792 4.63239 2.88402 5.65447 2.85415C6.67656 2.82428 7.67062 3.2107 8.43234 3.934C9.19407 4.6573 9.66559 5.66254 9.75002 6.74311C9.83444 7.82367 9.52535 8.89749 8.88626 9.74387L11.419 12.4108C11.4832 12.5015 11.5143 12.6138 11.5067 12.7269C11.4991 12.8401 11.4533 12.9465 11.3777 13.0267C11.3021 13.1069 11.2017 13.1555 11.095 13.1635C10.9883 13.1716 10.8825 13.1385 10.7969 13.0705L8.26419 10.4035Z" fill="#8F8F8F"/>
</svg>
