<svg width="117" height="54" viewBox="0 0 117 54" fill="none" xmlns="http://www.w3.org/2000/svg">
<rect x="0.5" y="0.5" width="116" height="53" rx="26.5" fill="#0D0A0B"/>
<rect x="0.5" y="0.5" width="116" height="53" rx="26.5" stroke="#898989"/>
<g clip-path="url(#clip0_808_432)">
<path d="M56.7156 32V19.6896H58.3511V32H56.7156ZM73.6541 29.9072L75.5886 23.2068H77.189L74.4631 32H72.8979L70.8403 25.4931L68.7827 32H67.2175L64.4916 23.2068H66.092L68.0265 29.8896L70.1017 23.2068H71.5789L73.6541 29.9072ZM85.7008 24.7193V23.2068H87.2308V32H85.7008V30.4876C84.9504 31.6483 83.8425 32.2286 82.3769 32.2286C81.1342 32.2286 80.0848 31.7831 79.229 30.8921C78.3614 29.9893 77.9276 28.8931 77.9276 27.6034C77.9276 26.3255 78.3614 25.2351 79.229 24.3324C80.0966 23.4296 81.1459 22.9782 82.3769 22.9782C83.8425 22.9782 84.9504 23.5586 85.7008 24.7193ZM82.5704 30.7514C83.4614 30.7514 84.2059 30.4524 84.8038 29.8545C85.4018 29.2331 85.7008 28.4827 85.7008 27.6034C85.7008 26.7124 85.4018 25.9679 84.8038 25.3699C84.2059 24.7603 83.4614 24.4555 82.5704 24.4555C81.6911 24.4555 80.9524 24.7603 80.3545 25.3699C79.7566 25.9679 79.4576 26.7124 79.4576 27.6034C79.4576 28.4827 79.7566 29.2331 80.3545 29.8545C80.9524 30.4524 81.6911 30.7514 82.5704 30.7514ZM93.9279 22.9782C94.9596 22.9782 95.7862 23.3065 96.4075 23.963C97.0289 24.6079 97.3396 25.4872 97.3396 26.601V32H95.8096V26.6889C95.8096 25.9855 95.6162 25.4344 95.2293 25.0358C94.8424 24.6372 94.3089 24.4379 93.6289 24.4379C92.8434 24.4379 92.222 24.6841 91.7647 25.1765C91.3075 25.6572 91.0789 26.3782 91.0789 27.3396V32H89.5489V23.2068H91.0789V24.473C91.6885 23.4765 92.6382 22.9782 93.9279 22.9782ZM104.259 23.2068V24.6841H101.92V29.45C101.92 29.8838 102.002 30.1945 102.166 30.3821C102.342 30.5579 102.606 30.6517 102.958 30.6634C103.309 30.6634 103.743 30.6517 104.259 30.6283V32C102.911 32.1759 101.926 32.0645 101.305 31.6659C100.695 31.2672 100.39 30.5286 100.39 29.45V24.6841H98.649V23.2068H100.39V21.202L101.92 20.7447V23.2068H104.259ZM115.302 23.2068V24.6841H112.963V29.45C112.963 29.8838 113.045 30.1945 113.209 30.3821C113.385 30.5579 113.649 30.6517 114.001 30.6634C114.352 30.6634 114.786 30.6517 115.302 30.6283V32C113.954 32.1759 112.969 32.0645 112.348 31.6659C111.738 31.2672 111.433 30.5286 111.433 29.45V24.6841H109.692V23.2068H111.433V21.202L112.963 20.7447V23.2068H115.302ZM124.088 30.8921C123.197 31.7831 122.101 32.2286 120.8 32.2286C119.498 32.2286 118.402 31.7831 117.511 30.8921C116.62 30.001 116.174 28.9048 116.174 27.6034C116.174 26.302 116.62 25.2058 117.511 24.3148C118.402 23.4237 119.498 22.9782 120.8 22.9782C122.101 22.9782 123.197 23.4237 124.088 24.3148C124.991 25.2175 125.442 26.3137 125.442 27.6034C125.442 28.8931 124.991 29.9893 124.088 30.8921ZM120.8 30.7338C121.679 30.7338 122.418 30.4348 123.016 29.8369C123.613 29.2389 123.912 28.4945 123.912 27.6034C123.912 26.7124 123.613 25.9679 123.016 25.3699C122.418 24.772 121.679 24.473 120.8 24.473C119.932 24.473 119.199 24.772 118.601 25.3699C118.003 25.9679 117.704 26.7124 117.704 27.6034C117.704 28.4945 118.003 29.2389 118.601 29.8369C119.199 30.4348 119.932 30.7338 120.8 30.7338ZM133.841 23.2068H138.625V32H137.095V24.6841H133.841V32H132.311V24.6841H130.904V23.2068H132.311V22.943C132.311 20.6216 133.595 19.4609 136.162 19.4609C136.678 19.4609 137.282 19.5371 137.974 19.6896V21.0789C137.2 20.9851 136.596 20.9382 136.162 20.9382C135.353 20.9382 134.761 21.0906 134.386 21.3954C134.023 21.7003 133.841 22.2161 133.841 22.943V23.2068ZM145.347 22.9782C146.379 22.9782 147.206 23.3065 147.827 23.963C148.448 24.6079 148.759 25.4872 148.759 26.601V32H147.229V26.6889C147.229 25.9855 147.036 25.4344 146.649 25.0358C146.262 24.6372 145.728 24.4379 145.048 24.4379C144.263 24.4379 143.641 24.6841 143.184 25.1765C142.727 25.6572 142.498 26.3782 142.498 27.3396V32H140.968V23.2068H142.498V24.473C143.108 23.4765 144.058 22.9782 145.347 22.9782ZM158.176 24.7193V19.6896H159.706V32H158.176V30.4876C157.425 31.6483 156.317 32.2286 154.852 32.2286C153.609 32.2286 152.56 31.7831 151.704 30.8921C150.836 29.9893 150.403 28.8931 150.403 27.6034C150.403 26.3255 150.836 25.2351 151.704 24.3324C152.572 23.4296 153.621 22.9782 154.852 22.9782C156.317 22.9782 157.425 23.5586 158.176 24.7193ZM155.045 30.7514C155.936 30.7514 156.681 30.4524 157.279 29.8545C157.877 29.2331 158.176 28.4827 158.176 27.6034C158.176 26.7124 157.877 25.9679 157.279 25.3699C156.681 24.7603 155.936 24.4555 155.045 24.4555C154.166 24.4555 153.427 24.7603 152.829 25.3699C152.232 25.9679 151.933 26.7124 151.933 27.6034C151.933 28.4827 152.232 29.2331 152.829 29.8545C153.427 30.4524 154.166 30.7514 155.045 30.7514ZM171.274 22.9782C172.505 22.9782 173.555 23.4296 174.422 24.3324C175.29 25.2351 175.724 26.3255 175.724 27.6034C175.724 28.8931 175.29 29.9893 174.422 30.8921C173.566 31.7831 172.517 32.2286 171.274 32.2286C169.82 32.2286 168.713 31.6483 167.95 30.4876V35.5173H166.42V23.2068H167.95V24.7193C168.713 23.5586 169.82 22.9782 171.274 22.9782ZM171.081 30.7514C171.96 30.7514 172.699 30.4524 173.297 29.8545C173.895 29.2331 174.194 28.4827 174.194 27.6034C174.194 26.7124 173.895 25.9679 173.297 25.3699C172.699 24.7603 171.96 24.4555 171.081 24.4555C170.19 24.4555 169.445 24.7603 168.847 25.3699C168.249 25.9679 167.95 26.7124 167.95 27.6034C167.95 28.4827 168.249 29.2331 168.847 29.8545C169.445 30.4524 170.19 30.7514 171.081 30.7514ZM185.991 28.3069H178.622C178.774 29.0807 179.132 29.6903 179.695 30.1358C180.258 30.5696 180.961 30.7865 181.805 30.7865C182.966 30.7865 183.81 30.3586 184.338 29.5027L185.639 30.2414C184.771 31.5662 183.482 32.2286 181.77 32.2286C180.387 32.2286 179.249 31.7948 178.358 30.9272C177.491 30.0362 177.057 28.9283 177.057 27.6034C177.057 26.2668 177.485 25.1648 178.341 24.2972C179.197 23.4179 180.305 22.9782 181.665 22.9782C182.954 22.9782 184.004 23.4354 184.812 24.3499C185.633 25.241 186.044 26.3313 186.044 27.621C186.044 27.8438 186.026 28.0724 185.991 28.3069ZM181.665 24.4203C180.856 24.4203 180.176 24.6489 179.624 25.1062C179.085 25.5634 178.751 26.1848 178.622 26.9703H184.496C184.367 26.1613 184.045 25.5341 183.529 25.0886C183.013 24.643 182.391 24.4203 181.665 24.4203ZM195.207 30.8921C194.316 31.7831 193.219 32.2286 191.918 32.2286C190.617 32.2286 189.52 31.7831 188.629 30.8921C187.738 30.001 187.293 28.9048 187.293 27.6034C187.293 26.302 187.738 25.2058 188.629 24.3148C189.52 23.4237 190.617 22.9782 191.918 22.9782C193.219 22.9782 194.316 23.4237 195.207 24.3148C196.109 25.2175 196.561 26.3137 196.561 27.6034C196.561 28.8931 196.109 29.9893 195.207 30.8921ZM191.918 30.7338C192.797 30.7338 193.536 30.4348 194.134 29.8369C194.732 29.2389 195.031 28.4945 195.031 27.6034C195.031 26.7124 194.732 25.9679 194.134 25.3699C193.536 24.772 192.797 24.473 191.918 24.473C191.05 24.473 190.318 24.772 189.72 25.3699C189.122 25.9679 188.823 26.7124 188.823 27.6034C188.823 28.4945 189.122 29.2389 189.72 29.8369C190.318 30.4348 191.05 30.7338 191.918 30.7338ZM203.218 22.9782C204.449 22.9782 205.499 23.4296 206.366 24.3324C207.234 25.2351 207.668 26.3255 207.668 27.6034C207.668 28.8931 207.234 29.9893 206.366 30.8921C205.51 31.7831 204.461 32.2286 203.218 32.2286C201.764 32.2286 200.656 31.6483 199.894 30.4876V35.5173H198.364V23.2068H199.894V24.7193C200.656 23.5586 201.764 22.9782 203.218 22.9782ZM203.025 30.7514C203.904 30.7514 204.643 30.4524 205.241 29.8545C205.839 29.2331 206.138 28.4827 206.138 27.6034C206.138 26.7124 205.839 25.9679 205.241 25.3699C204.643 24.7603 203.904 24.4555 203.025 24.4555C202.134 24.4555 201.389 24.7603 200.791 25.3699C200.193 25.9679 199.894 26.7124 199.894 27.6034C199.894 28.4827 200.193 29.2331 200.791 29.8545C201.389 30.4524 202.134 30.7514 203.025 30.7514ZM211.023 32H209.493V19.162H211.023V32ZM221.799 28.3069H214.43C214.583 29.0807 214.94 29.6903 215.503 30.1358C216.066 30.5696 216.769 30.7865 217.613 30.7865C218.774 30.7865 219.618 30.3586 220.146 29.5027L221.447 30.2414C220.58 31.5662 219.29 32.2286 217.578 32.2286C216.195 32.2286 215.057 31.7948 214.166 30.9272C213.299 30.0362 212.865 28.9283 212.865 27.6034C212.865 26.2668 213.293 25.1648 214.149 24.2972C215.005 23.4179 216.113 22.9782 217.473 22.9782C218.762 22.9782 219.812 23.4354 220.621 24.3499C221.441 25.241 221.852 26.3313 221.852 27.621C221.852 27.8438 221.834 28.0724 221.799 28.3069ZM217.473 24.4203C216.664 24.4203 215.984 24.6489 215.433 25.1062C214.893 25.5634 214.559 26.1848 214.43 26.9703H220.304C220.175 26.1613 219.853 25.5341 219.337 25.0886C218.821 24.643 218.2 24.4203 217.473 24.4203ZM236.431 29.9072L238.365 23.2068H239.966L237.24 32H235.675L233.617 25.4931L231.559 32H229.994L227.268 23.2068H228.869L230.803 29.8896L232.878 23.2068H234.356L236.431 29.9072ZM245.919 22.9782C246.951 22.9782 247.778 23.3065 248.399 23.963C249.02 24.6079 249.331 25.4872 249.331 26.601V32H247.801V26.6889C247.801 25.9855 247.608 25.4344 247.221 25.0358C246.834 24.6372 246.3 24.4379 245.62 24.4379C244.835 24.4379 244.213 24.6841 243.756 25.1765C243.299 25.6572 243.07 26.3782 243.07 27.3396V32H241.54V19.6896H243.07V24.473C243.68 23.4765 244.63 22.9782 245.919 22.9782ZM258.888 30.8921C257.997 31.7831 256.901 32.2286 255.6 32.2286C254.298 32.2286 253.202 31.7831 252.311 30.8921C251.42 30.001 250.975 28.9048 250.975 27.6034C250.975 26.302 251.42 25.2058 252.311 24.3148C253.202 23.4237 254.298 22.9782 255.6 22.9782C256.901 22.9782 257.997 23.4237 258.888 24.3148C259.791 25.2175 260.243 26.3137 260.243 27.6034C260.243 28.8931 259.791 29.9893 258.888 30.8921ZM255.6 30.7338C256.479 30.7338 257.218 30.4348 257.816 29.8369C258.414 29.2389 258.713 28.4945 258.713 27.6034C258.713 26.7124 258.414 25.9679 257.816 25.3699C257.218 24.772 256.479 24.473 255.6 24.473C254.732 24.473 253.999 24.772 253.401 25.3699C252.803 25.9679 252.505 26.7124 252.505 27.6034C252.505 28.4945 252.803 29.2389 253.401 29.8369C253.999 30.4348 254.732 30.7338 255.6 30.7338ZM270.822 22.9782C271.854 22.9782 272.68 23.3065 273.301 23.963C273.923 24.6079 274.234 25.4872 274.234 26.601V32H272.704V26.6889C272.704 25.9855 272.51 25.4344 272.123 25.0358C271.736 24.6372 271.203 24.4379 270.523 24.4379C269.737 24.4379 269.116 24.6841 268.659 25.1765C268.201 25.6572 267.973 26.3782 267.973 27.3396V32H266.443V19.6896H267.973V24.473C268.582 23.4765 269.532 22.9782 270.822 22.9782ZM283.65 24.7193V23.2068H285.18V32H283.65V30.4876C282.9 31.6483 281.792 32.2286 280.326 32.2286C279.084 32.2286 278.034 31.7831 277.178 30.8921C276.311 29.9893 275.877 28.8931 275.877 27.6034C275.877 26.3255 276.311 25.2351 277.178 24.3324C278.046 23.4296 279.095 22.9782 280.326 22.9782C281.792 22.9782 282.9 23.5586 283.65 24.7193ZM280.52 30.7514C281.411 30.7514 282.155 30.4524 282.753 29.8545C283.351 29.2331 283.65 28.4827 283.65 27.6034C283.65 26.7124 283.351 25.9679 282.753 25.3699C282.155 24.7603 281.411 24.4555 280.52 24.4555C279.641 24.4555 278.902 24.7603 278.304 25.3699C277.706 25.9679 277.407 26.7124 277.407 27.6034C277.407 28.4827 277.706 29.2331 278.304 29.8545C278.902 30.4524 279.641 30.7514 280.52 30.7514ZM288.8 25.581C288.8 26.1437 289.38 26.5834 290.541 26.9C290.975 26.9938 291.338 27.0934 291.632 27.1989C291.936 27.2927 292.265 27.4393 292.616 27.6386C292.98 27.8379 293.255 28.1017 293.443 28.43C293.631 28.7582 293.724 29.1451 293.724 29.5907C293.724 30.3879 293.414 31.0269 292.792 31.5076C292.171 31.9883 291.385 32.2286 290.436 32.2286C289.592 32.2286 288.859 32.0469 288.237 31.6834C287.628 31.3083 287.194 30.8041 286.936 30.171L288.255 29.4148C288.396 29.8369 288.659 30.171 289.046 30.4172C289.433 30.6634 289.896 30.7865 290.436 30.7865C290.963 30.7865 291.385 30.6869 291.702 30.4876C292.018 30.2883 292.177 29.9893 292.177 29.5907C292.177 28.9927 291.596 28.5589 290.436 28.2893C290.049 28.1838 289.756 28.1017 289.556 28.0431C289.357 27.9845 289.082 27.8789 288.73 27.7265C288.39 27.5741 288.132 27.4158 287.956 27.2517C287.78 27.0758 287.616 26.8472 287.464 26.5658C287.323 26.2727 287.253 25.9503 287.253 25.5986C287.253 24.8365 287.546 24.2092 288.132 23.7168C288.73 23.2244 289.474 22.9782 290.365 22.9782C291.081 22.9782 291.714 23.1423 292.265 23.4706C292.827 23.7872 293.249 24.2327 293.531 24.8072L292.247 25.5282C291.931 24.7779 291.303 24.4027 290.365 24.4027C289.92 24.4027 289.545 24.5082 289.24 24.7193C288.947 24.9303 288.8 25.2175 288.8 25.581ZM301.251 25.581C301.251 26.1437 301.832 26.5834 302.992 26.9C303.426 26.9938 303.79 27.0934 304.083 27.1989C304.388 27.2927 304.716 27.4393 305.068 27.6386C305.431 27.8379 305.707 28.1017 305.894 28.43C306.082 28.7582 306.176 29.1451 306.176 29.5907C306.176 30.3879 305.865 31.0269 305.244 31.5076C304.622 31.9883 303.837 32.2286 302.887 32.2286C302.043 32.2286 301.31 32.0469 300.689 31.6834C300.079 31.3083 299.645 30.8041 299.387 30.171L300.706 29.4148C300.847 29.8369 301.111 30.171 301.498 30.4172C301.885 30.6634 302.348 30.7865 302.887 30.7865C303.415 30.7865 303.837 30.6869 304.153 30.4876C304.47 30.2883 304.628 29.9893 304.628 29.5907C304.628 28.9927 304.048 28.5589 302.887 28.2893C302.5 28.1838 302.207 28.1017 302.008 28.0431C301.808 27.9845 301.533 27.8789 301.181 27.7265C300.841 27.5741 300.583 27.4158 300.407 27.2517C300.231 27.0758 300.067 26.8472 299.915 26.5658C299.774 26.2727 299.704 25.9503 299.704 25.5986C299.704 24.8365 299.997 24.2092 300.583 23.7168C301.181 23.2244 301.926 22.9782 302.817 22.9782C303.532 22.9782 304.165 23.1423 304.716 23.4706C305.279 23.7872 305.701 24.2327 305.982 24.8072L304.698 25.5282C304.382 24.7779 303.755 24.4027 302.817 24.4027C302.371 24.4027 301.996 24.5082 301.691 24.7193C301.398 24.9303 301.251 25.2175 301.251 25.581ZM315.168 30.8921C314.277 31.7831 313.181 32.2286 311.879 32.2286C310.578 32.2286 309.482 31.7831 308.591 30.8921C307.7 30.001 307.254 28.9048 307.254 27.6034C307.254 26.302 307.7 25.2058 308.591 24.3148C309.482 23.4237 310.578 22.9782 311.879 22.9782C313.181 22.9782 314.277 23.4237 315.168 24.3148C316.071 25.2175 316.522 26.3137 316.522 27.6034C316.522 28.8931 316.071 29.9893 315.168 30.8921ZM311.879 30.7338C312.759 30.7338 313.497 30.4348 314.095 29.8369C314.693 29.2389 314.992 28.4945 314.992 27.6034C314.992 26.7124 314.693 25.9679 314.095 25.3699C313.497 24.772 312.759 24.473 311.879 24.473C311.012 24.473 310.279 24.772 309.681 25.3699C309.083 25.9679 308.784 26.7124 308.784 27.6034C308.784 28.4945 309.083 29.2389 309.681 29.8369C310.279 30.4348 311.012 30.7338 311.879 30.7338ZM322.519 19.4609V20.9382C320.972 20.8092 320.198 21.4775 320.198 22.943V23.2068H322.519V24.6841H320.198V32H318.668V24.6841H317.261V23.2068H318.668V22.943C318.668 21.7472 319.002 20.8503 319.67 20.2523C320.339 19.6427 321.288 19.3789 322.519 19.4609ZM328.794 23.2068V24.6841H326.455V29.45C326.455 29.8838 326.537 30.1945 326.701 30.3821C326.877 30.5579 327.141 30.6517 327.493 30.6634C327.844 30.6634 328.278 30.6517 328.794 30.6283V32C327.446 32.1759 326.461 32.0645 325.84 31.6659C325.23 31.2672 324.925 30.5286 324.925 29.45V24.6841H323.184V23.2068H324.925V21.202L326.455 20.7447V23.2068H328.794ZM339.081 29.9072L341.015 23.2068H342.616L339.89 32H338.325L336.267 25.4931L334.209 32H332.644L329.918 23.2068H331.519L333.453 29.8896L335.528 23.2068H337.006L339.081 29.9072ZM351.128 24.7193V23.2068H352.658V32H351.128V30.4876C350.377 31.6483 349.269 32.2286 347.804 32.2286C346.561 32.2286 345.512 31.7831 344.656 30.8921C343.788 29.9893 343.354 28.8931 343.354 27.6034C343.354 26.3255 343.788 25.2351 344.656 24.3324C345.523 23.4296 346.573 22.9782 347.804 22.9782C349.269 22.9782 350.377 23.5586 351.128 24.7193ZM347.997 30.7514C348.888 30.7514 349.633 30.4524 350.231 29.8545C350.829 29.2331 351.128 28.4827 351.128 27.6034C351.128 26.7124 350.829 25.9679 350.231 25.3699C349.633 24.7603 348.888 24.4555 347.997 24.4555C347.118 24.4555 346.379 24.7603 345.781 25.3699C345.183 25.9679 344.884 26.7124 344.884 27.6034C344.884 28.4827 345.183 29.2331 345.781 29.8545C346.379 30.4524 347.118 30.7514 347.997 30.7514ZM356.506 23.2068V24.6841C357.01 23.5937 357.924 23.0485 359.249 23.0485V24.6489C358.499 24.6137 357.854 24.813 357.315 25.2468C356.775 25.6806 356.506 26.3782 356.506 27.3396V32H354.976V23.2068H356.506ZM368.707 28.3069H361.338C361.49 29.0807 361.848 29.6903 362.411 30.1358C362.974 30.5696 363.677 30.7865 364.521 30.7865C365.682 30.7865 366.526 30.3586 367.054 29.5027L368.355 30.2414C367.487 31.5662 366.198 32.2286 364.486 32.2286C363.103 32.2286 361.965 31.7948 361.074 30.9272C360.207 30.0362 359.773 28.9283 359.773 27.6034C359.773 26.2668 360.201 25.1648 361.057 24.2972C361.913 23.4179 363.02 22.9782 364.38 22.9782C365.67 22.9782 366.719 23.4354 367.528 24.3499C368.349 25.241 368.759 26.3313 368.759 27.621C368.759 27.8438 368.742 28.0724 368.707 28.3069ZM364.38 24.4203C363.572 24.4203 362.892 24.6489 362.34 25.1062C361.801 25.5634 361.467 26.1848 361.338 26.9703H367.212C367.083 26.1613 366.761 25.5341 366.245 25.0886C365.729 24.643 365.107 24.4203 364.38 24.4203ZM382.196 24.7193V19.6896H383.726V32H382.196V30.4876C381.445 31.6483 380.337 32.2286 378.872 32.2286C377.629 32.2286 376.58 31.7831 375.724 30.8921C374.856 29.9893 374.422 28.8931 374.422 27.6034C374.422 26.3255 374.856 25.2351 375.724 24.3324C376.591 23.4296 377.641 22.9782 378.872 22.9782C380.337 22.9782 381.445 23.5586 382.196 24.7193ZM379.065 30.7514C379.956 30.7514 380.701 30.4524 381.299 29.8545C381.897 29.2331 382.196 28.4827 382.196 27.6034C382.196 26.7124 381.897 25.9679 381.299 25.3699C380.701 24.7603 379.956 24.4555 379.065 24.4555C378.186 24.4555 377.447 24.7603 376.849 25.3699C376.251 25.9679 375.952 26.7124 375.952 27.6034C375.952 28.4827 376.251 29.2331 376.849 29.8545C377.447 30.4524 378.186 30.7514 379.065 30.7514ZM394.485 28.3069H387.116C387.269 29.0807 387.626 29.6903 388.189 30.1358C388.752 30.5696 389.455 30.7865 390.3 30.7865C391.46 30.7865 392.304 30.3586 392.832 29.5027L394.133 30.2414C393.266 31.5662 391.976 32.2286 390.264 32.2286C388.881 32.2286 387.744 31.7948 386.853 30.9272C385.985 30.0362 385.551 28.9283 385.551 27.6034C385.551 26.2668 385.979 25.1648 386.835 24.2972C387.691 23.4179 388.799 22.9782 390.159 22.9782C391.449 22.9782 392.498 23.4354 393.307 24.3499C394.128 25.241 394.538 26.3313 394.538 27.621C394.538 27.8438 394.52 28.0724 394.485 28.3069ZM390.159 24.4203C389.35 24.4203 388.67 24.6489 388.119 25.1062C387.58 25.5634 387.245 26.1848 387.116 26.9703H392.99C392.861 26.1613 392.539 25.5341 392.023 25.0886C391.507 24.643 390.886 24.4203 390.159 24.4203ZM399.347 30.3645L402.108 23.2068H403.762L400.244 32H398.45L394.933 23.2068H396.586L399.347 30.3645ZM413.154 28.3069H405.785C405.937 29.0807 406.295 29.6903 406.858 30.1358C407.42 30.5696 408.124 30.7865 408.968 30.7865C410.129 30.7865 410.973 30.3586 411.5 29.5027L412.802 30.2414C411.934 31.5662 410.645 32.2286 408.933 32.2286C407.549 32.2286 406.412 31.7948 405.521 30.9272C404.653 30.0362 404.22 28.9283 404.22 27.6034C404.22 26.2668 404.648 25.1648 405.503 24.2972C406.359 23.4179 407.467 22.9782 408.827 22.9782C410.117 22.9782 411.166 23.4354 411.975 24.3499C412.796 25.241 413.206 26.3313 413.206 27.621C413.206 27.8438 413.189 28.0724 413.154 28.3069ZM408.827 24.4203C408.018 24.4203 407.338 24.6489 406.787 25.1062C406.248 25.5634 405.914 26.1848 405.785 26.9703H411.659C411.53 26.1613 411.207 25.5341 410.691 25.0886C410.176 24.643 409.554 24.4203 408.827 24.4203ZM416.495 32H414.965V19.162H416.495V32ZM426.251 30.8921C425.36 31.7831 424.263 32.2286 422.962 32.2286C421.661 32.2286 420.564 31.7831 419.673 30.8921C418.782 30.001 418.337 28.9048 418.337 27.6034C418.337 26.302 418.782 25.2058 419.673 24.3148C420.564 23.4237 421.661 22.9782 422.962 22.9782C424.263 22.9782 425.36 23.4237 426.251 24.3148C427.153 25.2175 427.605 26.3137 427.605 27.6034C427.605 28.8931 427.153 29.9893 426.251 30.8921ZM422.962 30.7338C423.841 30.7338 424.58 30.4348 425.178 29.8369C425.776 29.2389 426.075 28.4945 426.075 27.6034C426.075 26.7124 425.776 25.9679 425.178 25.3699C424.58 24.772 423.841 24.473 422.962 24.473C422.094 24.473 421.362 24.772 420.764 25.3699C420.166 25.9679 419.867 26.7124 419.867 27.6034C419.867 28.4945 420.166 29.2389 420.764 29.8369C421.362 30.4348 422.094 30.7338 422.962 30.7338ZM434.262 22.9782C435.493 22.9782 436.543 23.4296 437.41 24.3324C438.278 25.2351 438.712 26.3255 438.712 27.6034C438.712 28.8931 438.278 29.9893 437.41 30.8921C436.554 31.7831 435.505 32.2286 434.262 32.2286C432.809 32.2286 431.701 31.6483 430.939 30.4876V35.5173H429.409V23.2068H430.939V24.7193C431.701 23.5586 432.809 22.9782 434.262 22.9782ZM434.069 30.7514C434.948 30.7514 435.687 30.4524 436.285 29.8545C436.883 29.2331 437.182 28.4827 437.182 27.6034C437.182 26.7124 436.883 25.9679 436.285 25.3699C435.687 24.7603 434.948 24.4555 434.069 24.4555C433.178 24.4555 432.433 24.7603 431.835 25.3699C431.237 25.9679 430.939 26.7124 430.939 27.6034C430.939 28.4827 431.237 29.2331 431.835 29.8545C432.433 30.4524 433.178 30.7514 434.069 30.7514ZM450.034 22.9782C451.031 22.9782 451.828 23.3006 452.426 23.9455C453.035 24.5903 453.34 25.452 453.34 26.5306V32H451.81V26.5834C451.81 25.9151 451.634 25.3934 451.283 25.0182C450.943 24.6313 450.474 24.4379 449.876 24.4379C449.196 24.4379 448.662 24.6665 448.275 25.1237C447.9 25.5693 447.713 26.2317 447.713 27.111V32H446.183V26.5834C446.183 25.9151 446.013 25.3934 445.673 25.0182C445.344 24.6313 444.893 24.4379 444.318 24.4379C443.65 24.4379 443.105 24.6724 442.683 25.1413C442.273 25.5986 442.067 26.2551 442.067 27.111V32H440.537V23.2068H442.067V24.3851C442.665 23.4472 443.539 22.9782 444.688 22.9782C445.872 22.9782 446.734 23.4765 447.273 24.473C447.883 23.4765 448.803 22.9782 450.034 22.9782ZM463.903 28.3069H456.534C456.687 29.0807 457.044 29.6903 457.607 30.1358C458.17 30.5696 458.873 30.7865 459.718 30.7865C460.878 30.7865 461.722 30.3586 462.25 29.5027L463.551 30.2414C462.684 31.5662 461.394 32.2286 459.682 32.2286C458.299 32.2286 457.162 31.7948 456.271 30.9272C455.403 30.0362 454.969 28.9283 454.969 27.6034C454.969 26.2668 455.397 25.1648 456.253 24.2972C457.109 23.4179 458.217 22.9782 459.577 22.9782C460.867 22.9782 461.916 23.4354 462.725 24.3499C463.546 25.241 463.956 26.3313 463.956 27.621C463.956 27.8438 463.938 28.0724 463.903 28.3069ZM459.577 24.4203C458.768 24.4203 458.088 24.6489 457.537 25.1062C456.998 25.5634 456.663 26.1848 456.534 26.9703H462.408C462.279 26.1613 461.957 25.5341 461.441 25.0886C460.925 24.643 460.304 24.4203 459.577 24.4203ZM470.094 22.9782C471.125 22.9782 471.952 23.3065 472.573 23.963C473.195 24.6079 473.505 25.4872 473.505 26.601V32H471.975V26.6889C471.975 25.9855 471.782 25.4344 471.395 25.0358C471.008 24.6372 470.475 24.4379 469.795 24.4379C469.009 24.4379 468.388 24.6841 467.931 25.1765C467.473 25.6572 467.245 26.3782 467.245 27.3396V32H465.715V23.2068H467.245V24.473C467.854 23.4765 468.804 22.9782 470.094 22.9782ZM480.425 23.2068V24.6841H478.086V29.45C478.086 29.8838 478.168 30.1945 478.332 30.3821C478.508 30.5579 478.772 30.6517 479.123 30.6634C479.475 30.6634 479.909 30.6517 480.425 30.6283V32C479.077 32.1759 478.092 32.0645 477.47 31.6659C476.861 31.2672 476.556 30.5286 476.556 29.45V24.6841H474.815V23.2068H476.556V21.202L478.086 20.7447V23.2068H480.425ZM495.126 28.3069H487.757C487.91 29.0807 488.267 29.6903 488.83 30.1358C489.393 30.5696 490.096 30.7865 490.94 30.7865C492.101 30.7865 492.945 30.3586 493.473 29.5027L494.774 30.2414C493.906 31.5662 492.617 32.2286 490.905 32.2286C489.522 32.2286 488.384 31.7948 487.493 30.9272C486.626 30.0362 486.192 28.9283 486.192 27.6034C486.192 26.2668 486.62 25.1648 487.476 24.2972C488.332 23.4179 489.44 22.9782 490.8 22.9782C492.089 22.9782 493.139 23.4354 493.948 24.3499C494.768 25.241 495.179 26.3313 495.179 27.621C495.179 27.8438 495.161 28.0724 495.126 28.3069ZM490.8 24.4203C489.991 24.4203 489.311 24.6489 488.76 25.1062C488.22 25.5634 487.886 26.1848 487.757 26.9703H493.631C493.502 26.1613 493.18 25.5341 492.664 25.0886C492.148 24.643 491.526 24.4203 490.8 24.4203ZM500.799 27.4627L504.158 32H502.364L499.902 28.6762L497.422 32H495.628L499.005 27.4803L495.822 23.2068H497.633L499.902 26.2668L502.17 23.2068H503.964L500.799 27.4627ZM510.43 22.9782C511.661 22.9782 512.71 23.4296 513.578 24.3324C514.445 25.2351 514.879 26.3255 514.879 27.6034C514.879 28.8931 514.445 29.9893 513.578 30.8921C512.722 31.7831 511.673 32.2286 510.43 32.2286C508.976 32.2286 507.868 31.6483 507.106 30.4876V35.5173H505.576V23.2068H507.106V24.7193C507.868 23.5586 508.976 22.9782 510.43 22.9782ZM510.236 30.7514C511.116 30.7514 511.854 30.4524 512.452 29.8545C513.05 29.2331 513.349 28.4827 513.349 27.6034C513.349 26.7124 513.05 25.9679 512.452 25.3699C511.854 24.7603 511.116 24.4555 510.236 24.4555C509.345 24.4555 508.601 24.7603 508.003 25.3699C507.405 25.9679 507.106 26.7124 507.106 27.6034C507.106 28.4827 507.405 29.2331 508.003 29.8545C508.601 30.4524 509.345 30.7514 510.236 30.7514ZM525.146 28.3069H517.778C517.93 29.0807 518.288 29.6903 518.85 30.1358C519.413 30.5696 520.117 30.7865 520.961 30.7865C522.121 30.7865 522.966 30.3586 523.493 29.5027L524.795 30.2414C523.927 31.5662 522.637 32.2286 520.926 32.2286C519.542 32.2286 518.405 31.7948 517.514 30.9272C516.646 30.0362 516.212 28.9283 516.212 27.6034C516.212 26.2668 516.64 25.1648 517.496 24.2972C518.352 23.4179 519.46 22.9782 520.82 22.9782C522.11 22.9782 523.159 23.4354 523.968 24.3499C524.789 25.241 525.199 26.3313 525.199 27.621C525.199 27.8438 525.181 28.0724 525.146 28.3069ZM520.82 24.4203C520.011 24.4203 519.331 24.6489 518.78 25.1062C518.241 25.5634 517.907 26.1848 517.778 26.9703H523.651C523.522 26.1613 523.2 25.5341 522.684 25.0886C522.168 24.643 521.547 24.4203 520.82 24.4203ZM528.488 23.2068V24.6841C528.992 23.5937 529.906 23.0485 531.231 23.0485V24.6489C530.481 24.6137 529.836 24.813 529.297 25.2468C528.757 25.6806 528.488 26.3782 528.488 27.3396V32H526.958V23.2068H528.488ZM533.502 21.6065C533.209 21.6065 532.963 21.5068 532.763 21.3075C532.564 21.1082 532.465 20.8678 532.465 20.5865C532.465 20.3051 532.564 20.0647 532.763 19.8654C532.963 19.6544 533.209 19.5489 533.502 19.5489C533.783 19.5489 534.024 19.6544 534.223 19.8654C534.422 20.0647 534.522 20.3051 534.522 20.5865C534.522 20.8678 534.422 21.1082 534.223 21.3075C534.024 21.5068 533.783 21.6065 533.502 21.6065ZM534.258 32H532.728V23.2068H534.258V32ZM545.034 28.3069H537.665C537.818 29.0807 538.175 29.6903 538.738 30.1358C539.301 30.5696 540.004 30.7865 540.848 30.7865C542.009 30.7865 542.853 30.3586 543.381 29.5027L544.682 30.2414C543.815 31.5662 542.525 32.2286 540.813 32.2286C539.43 32.2286 538.293 31.7948 537.401 30.9272C536.534 30.0362 536.1 28.9283 536.1 27.6034C536.1 26.2668 536.528 25.1648 537.384 24.2972C538.24 23.4179 539.348 22.9782 540.708 22.9782C541.997 22.9782 543.047 23.4354 543.856 24.3499C544.676 25.241 545.087 26.3313 545.087 27.621C545.087 27.8438 545.069 28.0724 545.034 28.3069ZM540.708 24.4203C539.899 24.4203 539.219 24.6489 538.668 25.1062C538.128 25.5634 537.794 26.1848 537.665 26.9703H543.539C543.41 26.1613 543.088 25.5341 542.572 25.0886C542.056 24.643 541.435 24.4203 540.708 24.4203ZM551.224 22.9782C552.256 22.9782 553.083 23.3065 553.704 23.963C554.326 24.6079 554.636 25.4872 554.636 26.601V32H553.106V26.6889C553.106 25.9855 552.913 25.4344 552.526 25.0358C552.139 24.6372 551.606 24.4379 550.926 24.4379C550.14 24.4379 549.519 24.6841 549.061 25.1765C548.604 25.6572 548.375 26.3782 548.375 27.3396V32H546.845V23.2068H548.375V24.473C548.985 23.4765 549.935 22.9782 551.224 22.9782ZM560.905 32.2286C559.58 32.2286 558.478 31.789 557.599 30.9096C556.719 30.0186 556.28 28.9165 556.28 27.6034C556.28 26.2903 556.719 25.1941 557.599 24.3148C558.478 23.4237 559.58 22.9782 560.905 22.9782C561.773 22.9782 562.552 23.1892 563.244 23.6113C563.936 24.0217 564.452 24.5786 564.792 25.282L563.508 26.0206C563.285 25.5517 562.939 25.1765 562.47 24.8951C562.013 24.6137 561.491 24.473 560.905 24.473C560.026 24.473 559.287 24.772 558.689 25.3699C558.103 25.9796 557.81 26.7241 557.81 27.6034C557.81 28.471 558.103 29.2096 558.689 29.8193C559.287 30.4172 560.026 30.7162 560.905 30.7162C561.491 30.7162 562.019 30.5814 562.488 30.3117C562.957 30.0303 563.314 29.6552 563.56 29.1862L564.862 29.9424C564.475 30.6459 563.93 31.2028 563.226 31.6131C562.523 32.0234 561.749 32.2286 560.905 32.2286ZM574.694 28.3069H567.325C567.477 29.0807 567.835 29.6903 568.398 30.1358C568.961 30.5696 569.664 30.7865 570.508 30.7865C571.669 30.7865 572.513 30.3586 573.041 29.5027L574.342 30.2414C573.474 31.5662 572.185 32.2286 570.473 32.2286C569.09 32.2286 567.952 31.7948 567.061 30.9272C566.194 30.0362 565.76 28.9283 565.76 27.6034C565.76 26.2668 566.188 25.1648 567.044 24.2972C567.9 23.4179 569.008 22.9782 570.368 22.9782C571.657 22.9782 572.707 23.4354 573.515 24.3499C574.336 25.241 574.747 26.3313 574.747 27.621C574.747 27.8438 574.729 28.0724 574.694 28.3069ZM570.368 24.4203C569.559 24.4203 568.879 24.6489 568.328 25.1062C567.788 25.5634 567.454 26.1848 567.325 26.9703H573.199C573.07 26.1613 572.748 25.5341 572.232 25.0886C571.716 24.643 571.094 24.4203 570.368 24.4203ZM588.183 24.7193V23.2068H589.713V32H588.183V30.4876C587.432 31.6483 586.324 32.2286 584.859 32.2286C583.616 32.2286 582.567 31.7831 581.711 30.8921C580.843 29.9893 580.409 28.8931 580.409 27.6034C580.409 26.3255 580.843 25.2351 581.711 24.3324C582.578 23.4296 583.628 22.9782 584.859 22.9782C586.324 22.9782 587.432 23.5586 588.183 24.7193ZM585.052 30.7514C585.943 30.7514 586.688 30.4524 587.286 29.8545C587.884 29.2331 588.183 28.4827 588.183 27.6034C588.183 26.7124 587.884 25.9679 587.286 25.3699C586.688 24.7603 585.943 24.4555 585.052 24.4555C584.173 24.4555 583.434 24.7603 582.836 25.3699C582.238 25.9679 581.939 26.7124 581.939 27.6034C581.939 28.4827 582.238 29.2331 582.836 29.8545C583.434 30.4524 584.173 30.7514 585.052 30.7514ZM593.561 32H592.031V19.162H593.561V32ZM603.316 30.8921C602.425 31.7831 601.329 32.2286 600.028 32.2286C598.726 32.2286 597.63 31.7831 596.739 30.8921C595.848 30.001 595.402 28.9048 595.402 27.6034C595.402 26.302 595.848 25.2058 596.739 24.3148C597.63 23.4237 598.726 22.9782 600.028 22.9782C601.329 22.9782 602.425 23.4237 603.316 24.3148C604.219 25.2175 604.67 26.3137 604.67 27.6034C604.67 28.8931 604.219 29.9893 603.316 30.8921ZM600.028 30.7338C600.907 30.7338 601.646 30.4348 602.244 29.8369C602.841 29.2389 603.14 28.4945 603.14 27.6034C603.14 26.7124 602.841 25.9679 602.244 25.3699C601.646 24.772 600.907 24.473 600.028 24.473C599.16 24.473 598.427 24.772 597.829 25.3699C597.231 25.9679 596.932 26.7124 596.932 27.6034C596.932 28.4945 597.231 29.2389 597.829 29.8369C598.427 30.4348 599.16 30.7338 600.028 30.7338ZM610.853 22.9782C611.885 22.9782 612.711 23.3065 613.333 23.963C613.954 24.6079 614.265 25.4872 614.265 26.601V32H612.735V26.6889C612.735 25.9855 612.541 25.4344 612.155 25.0358C611.768 24.6372 611.234 24.4379 610.554 24.4379C609.769 24.4379 609.147 24.6841 608.69 25.1765C608.233 25.6572 608.004 26.3782 608.004 27.3396V32H606.474V23.2068H608.004V24.473C608.614 23.4765 609.564 22.9782 610.853 22.9782ZM623.699 24.7193V23.2068H625.212V31.6307C625.212 32.9321 624.772 33.9404 623.893 34.6555C623.002 35.3824 621.946 35.7459 620.727 35.7459C619.742 35.7459 618.892 35.5583 618.177 35.1831C617.462 34.8197 616.923 34.2921 616.559 33.6004L617.896 32.8441C618.376 33.829 619.332 34.3214 620.762 34.3214C621.677 34.3214 622.392 34.0811 622.908 33.6004C623.435 33.1197 623.699 32.4631 623.699 31.6307V30.3821C622.925 31.5545 621.823 32.1407 620.393 32.1407C619.127 32.1407 618.066 31.6952 617.21 30.8041C616.342 29.9014 615.908 28.8169 615.908 27.5507C615.908 26.2844 616.342 25.2058 617.21 24.3148C618.066 23.4237 619.127 22.9782 620.393 22.9782C621.835 22.9782 622.937 23.5586 623.699 24.7193ZM623.699 27.5507C623.699 26.6713 623.4 25.9327 622.802 25.3348C622.204 24.7368 621.46 24.4379 620.569 24.4379C619.678 24.4379 618.933 24.7368 618.335 25.3348C617.737 25.9327 617.438 26.6713 617.438 27.5507C617.438 28.4417 617.737 29.1862 618.335 29.7841C618.933 30.3821 619.678 30.681 620.569 30.681C621.46 30.681 622.204 30.3821 622.802 29.7841C623.4 29.1862 623.699 28.4417 623.699 27.5507ZM640.35 29.9072L642.285 23.2068H643.885L641.159 32H639.594L637.536 25.4931L635.479 32H633.914L631.188 23.2068H632.788L634.723 29.8896L636.798 23.2068H638.275L640.35 29.9072ZM646.233 21.6065C645.94 21.6065 645.694 21.5068 645.495 21.3075C645.295 21.1082 645.196 20.8678 645.196 20.5865C645.196 20.3051 645.295 20.0647 645.495 19.8654C645.694 19.6544 645.94 19.5489 646.233 19.5489C646.515 19.5489 646.755 19.6544 646.954 19.8654C647.154 20.0647 647.253 20.3051 647.253 20.5865C647.253 20.8678 647.154 21.1082 646.954 21.3075C646.755 21.5068 646.515 21.6065 646.233 21.6065ZM646.99 32H645.46V23.2068H646.99V32ZM654.107 23.2068V24.6841H651.768V29.45C651.768 29.8838 651.85 30.1945 652.014 30.3821C652.19 30.5579 652.454 30.6517 652.806 30.6634C653.158 30.6634 653.591 30.6517 654.107 30.6283V32C652.759 32.1759 651.774 32.0645 651.153 31.6659C650.543 31.2672 650.238 30.5286 650.238 29.45V24.6841H648.497V23.2068H650.238V21.202L651.768 20.7447V23.2068H654.107ZM660.298 22.9782C661.329 22.9782 662.156 23.3065 662.777 23.963C663.399 24.6079 663.709 25.4872 663.709 26.601V32H662.179V26.6889C662.179 25.9855 661.986 25.4344 661.599 25.0358C661.212 24.6372 660.679 24.4379 659.999 24.4379C659.213 24.4379 658.592 24.6841 658.135 25.1765C657.677 25.6572 657.449 26.3782 657.449 27.3396V32H655.919V19.6896H657.449V24.473C658.058 23.4765 659.008 22.9782 660.298 22.9782ZM677.523 24.7193V19.6896H679.053V32H677.523V30.4876C676.772 31.6483 675.664 32.2286 674.199 32.2286C672.956 32.2286 671.907 31.7831 671.051 30.8921C670.183 29.9893 669.749 28.8931 669.749 27.6034C669.749 26.3255 670.183 25.2351 671.051 24.3324C671.918 23.4296 672.968 22.9782 674.199 22.9782C675.664 22.9782 676.772 23.5586 677.523 24.7193ZM674.392 30.7514C675.283 30.7514 676.028 30.4524 676.626 29.8545C677.224 29.2331 677.523 28.4827 677.523 27.6034C677.523 26.7124 677.224 25.9679 676.626 25.3699C676.028 24.7603 675.283 24.4555 674.392 24.4555C673.513 24.4555 672.774 24.7603 672.176 25.3699C671.578 25.9679 671.279 26.7124 671.279 27.6034C671.279 28.4827 671.578 29.2331 672.176 29.8545C672.774 30.4524 673.513 30.7514 674.392 30.7514ZM689.812 28.3069H682.443C682.596 29.0807 682.953 29.6903 683.516 30.1358C684.079 30.5696 684.782 30.7865 685.627 30.7865C686.787 30.7865 687.631 30.3586 688.159 29.5027L689.46 30.2414C688.593 31.5662 687.303 32.2286 685.591 32.2286C684.208 32.2286 683.071 31.7948 682.18 30.9272C681.312 30.0362 680.878 28.9283 680.878 27.6034C680.878 26.2668 681.306 25.1648 682.162 24.2972C683.018 23.4179 684.126 22.9782 685.486 22.9782C686.776 22.9782 687.825 23.4354 688.634 24.3499C689.455 25.241 689.865 26.3313 689.865 27.621C689.865 27.8438 689.847 28.0724 689.812 28.3069ZM685.486 24.4203C684.677 24.4203 683.997 24.6489 683.446 25.1062C682.907 25.5634 682.572 26.1848 682.443 26.9703H688.317C688.188 26.1613 687.866 25.5341 687.35 25.0886C686.834 24.643 686.213 24.4203 685.486 24.4203ZM692.599 25.581C692.599 26.1437 693.18 26.5834 694.34 26.9C694.774 26.9938 695.138 27.0934 695.431 27.1989C695.735 27.2927 696.064 27.4393 696.415 27.6386C696.779 27.8379 697.054 28.1017 697.242 28.43C697.43 28.7582 697.523 29.1451 697.523 29.5907C697.523 30.3879 697.213 31.0269 696.591 31.5076C695.97 31.9883 695.184 32.2286 694.235 32.2286C693.391 32.2286 692.658 32.0469 692.036 31.6834C691.427 31.3083 690.993 30.8041 690.735 30.171L692.054 29.4148C692.195 29.8369 692.459 30.171 692.845 30.4172C693.232 30.6634 693.695 30.7865 694.235 30.7865C694.762 30.7865 695.184 30.6869 695.501 30.4876C695.818 30.2883 695.976 29.9893 695.976 29.5907C695.976 28.9927 695.395 28.5589 694.235 28.2893C693.848 28.1838 693.555 28.1017 693.355 28.0431C693.156 27.9845 692.881 27.8789 692.529 27.7265C692.189 27.5741 691.931 27.4158 691.755 27.2517C691.579 27.0758 691.415 26.8472 691.263 26.5658C691.122 26.2727 691.052 25.9503 691.052 25.5986C691.052 24.8365 691.345 24.2092 691.931 23.7168C692.529 23.2244 693.273 22.9782 694.164 22.9782C694.88 22.9782 695.513 23.1423 696.064 23.4706C696.627 23.7872 697.049 24.2327 697.33 24.8072L696.046 25.5282C695.73 24.7779 695.102 24.4027 694.164 24.4027C693.719 24.4027 693.344 24.5082 693.039 24.7193C692.746 24.9303 692.599 25.2175 692.599 25.581ZM700.023 21.6065C699.73 21.6065 699.484 21.5068 699.284 21.3075C699.085 21.1082 698.985 20.8678 698.985 20.5865C698.985 20.3051 699.085 20.0647 699.284 19.8654C699.484 19.6544 699.73 19.5489 700.023 19.5489C700.304 19.5489 700.545 19.6544 700.744 19.8654C700.943 20.0647 701.043 20.3051 701.043 20.5865C701.043 20.8678 700.943 21.1082 700.744 21.3075C700.545 21.5068 700.304 21.6065 700.023 21.6065ZM700.779 32H699.249V23.2068H700.779V32ZM710.412 24.7193V23.2068H711.924V31.6307C711.924 32.9321 711.484 33.9404 710.605 34.6555C709.714 35.3824 708.659 35.7459 707.439 35.7459C706.455 35.7459 705.605 35.5583 704.889 35.1831C704.174 34.8197 703.635 34.2921 703.271 33.6004L704.608 32.8441C705.089 33.829 706.044 34.3214 707.475 34.3214C708.389 34.3214 709.104 34.0811 709.62 33.6004C710.148 33.1197 710.412 32.4631 710.412 31.6307V30.3821C709.638 31.5545 708.536 32.1407 707.105 32.1407C705.839 32.1407 704.778 31.6952 703.922 30.8041C703.055 29.9014 702.621 28.8169 702.621 27.5507C702.621 26.2844 703.055 25.2058 703.922 24.3148C704.778 23.4237 705.839 22.9782 707.105 22.9782C708.547 22.9782 709.649 23.5586 710.412 24.7193ZM710.412 27.5507C710.412 26.6713 710.113 25.9327 709.515 25.3348C708.917 24.7368 708.172 24.4379 707.281 24.4379C706.39 24.4379 705.646 24.7368 705.048 25.3348C704.45 25.9327 704.151 26.6713 704.151 27.5507C704.151 28.4417 704.45 29.1862 705.048 29.7841C705.646 30.3821 706.39 30.681 707.281 30.681C708.172 30.681 708.917 30.3821 709.515 29.7841C710.113 29.1862 710.412 28.4417 710.412 27.5507ZM718.621 22.9782C719.653 22.9782 720.479 23.3065 721.101 23.963C721.722 24.6079 722.033 25.4872 722.033 26.601V32H720.503V26.6889C720.503 25.9855 720.309 25.4344 719.923 25.0358C719.536 24.6372 719.002 24.4379 718.322 24.4379C717.537 24.4379 716.915 24.6841 716.458 25.1765C716.001 25.6572 715.772 26.3782 715.772 27.3396V32H714.242V23.2068H715.772V24.473C716.382 23.4765 717.331 22.9782 718.621 22.9782ZM729.884 25.581C729.884 26.1437 730.465 26.5834 731.625 26.9C732.059 26.9938 732.423 27.0934 732.716 27.1989C733.021 27.2927 733.349 27.4393 733.701 27.6386C734.064 27.8379 734.34 28.1017 734.527 28.43C734.715 28.7582 734.809 29.1451 734.809 29.5907C734.809 30.3879 734.498 31.0269 733.876 31.5076C733.255 31.9883 732.47 32.2286 731.52 32.2286C730.676 32.2286 729.943 32.0469 729.322 31.6834C728.712 31.3083 728.278 30.8041 728.02 30.171L729.339 29.4148C729.48 29.8369 729.744 30.171 730.131 30.4172C730.517 30.6634 730.981 30.7865 731.52 30.7865C732.047 30.7865 732.47 30.6869 732.786 30.4876C733.103 30.2883 733.261 29.9893 733.261 29.5907C733.261 28.9927 732.681 28.5589 731.52 28.2893C731.133 28.1838 730.84 28.1017 730.641 28.0431C730.441 27.9845 730.166 27.8789 729.814 27.7265C729.474 27.5741 729.216 27.4158 729.04 27.2517C728.864 27.0758 728.7 26.8472 728.548 26.5658C728.407 26.2727 728.337 25.9503 728.337 25.5986C728.337 24.8365 728.63 24.2092 729.216 23.7168C729.814 23.2244 730.558 22.9782 731.45 22.9782C732.165 22.9782 732.798 23.1423 733.349 23.4706C733.912 23.7872 734.334 24.2327 734.615 24.8072L733.331 25.5282C733.015 24.7779 732.387 24.4027 731.45 24.4027C731.004 24.4027 730.629 24.5082 730.324 24.7193C730.031 24.9303 729.884 25.2175 729.884 25.581ZM739.629 27.4627L743.973 32H742.074L738.064 27.832V32H736.534V19.6896H738.064V27.0934L741.863 23.2068H743.833L739.629 27.4627ZM746.17 21.6065C745.877 21.6065 745.631 21.5068 745.431 21.3075C745.232 21.1082 745.132 20.8678 745.132 20.5865C745.132 20.3051 745.232 20.0647 745.431 19.8654C745.631 19.6544 745.877 19.5489 746.17 19.5489C746.451 19.5489 746.692 19.6544 746.891 19.8654C747.09 20.0647 747.19 20.3051 747.19 20.5865C747.19 20.8678 747.09 21.1082 746.891 21.3075C746.692 21.5068 746.451 21.6065 746.17 21.6065ZM746.926 32H745.396V23.2068H746.926V32ZM750.79 32H749.26V19.162H750.79V32ZM754.654 32H753.124V19.162H754.654V32ZM758.29 25.581C758.29 26.1437 758.871 26.5834 760.031 26.9C760.465 26.9938 760.829 27.0934 761.122 27.1989C761.427 27.2927 761.755 27.4393 762.107 27.6386C762.47 27.8379 762.746 28.1017 762.933 28.43C763.121 28.7582 763.215 29.1451 763.215 29.5907C763.215 30.3879 762.904 31.0269 762.283 31.5076C761.661 31.9883 760.876 32.2286 759.926 32.2286C759.082 32.2286 758.349 32.0469 757.728 31.6834C757.118 31.3083 756.684 30.8041 756.426 30.171L757.745 29.4148C757.886 29.8369 758.15 30.171 758.537 30.4172C758.924 30.6634 759.387 30.7865 759.926 30.7865C760.454 30.7865 760.876 30.6869 761.192 30.4876C761.509 30.2883 761.667 29.9893 761.667 29.5907C761.667 28.9927 761.087 28.5589 759.926 28.2893C759.539 28.1838 759.246 28.1017 759.047 28.0431C758.847 27.9845 758.572 27.8789 758.22 27.7265C757.88 27.5741 757.622 27.4158 757.446 27.2517C757.27 27.0758 757.106 26.8472 756.954 26.5658C756.813 26.2727 756.743 25.9503 756.743 25.5986C756.743 24.8365 757.036 24.2092 757.622 23.7168C758.22 23.2244 758.965 22.9782 759.856 22.9782C760.571 22.9782 761.204 23.1423 761.755 23.4706C762.318 23.7872 762.74 24.2327 763.021 24.8072L761.737 25.5282C761.421 24.7779 760.794 24.4027 759.856 24.4027C759.41 24.4027 759.035 24.5082 758.73 24.7193C758.437 24.9303 758.29 25.2175 758.29 25.581Z" fill="white"/>
</g>
<rect x="64" y="16" width="3" height="21" rx="1.5" fill="#0062FF"/>
<path d="M90.5 36.75C84.85 36.75 80.25 32.15 80.25 26.5C80.25 20.85 84.85 16.25 90.5 16.25C96.15 16.25 100.75 20.85 100.75 26.5C100.75 32.15 96.15 36.75 90.5 36.75ZM90.5 17.75C85.67 17.75 81.75 21.68 81.75 26.5C81.75 31.32 85.67 35.25 90.5 35.25C95.33 35.25 99.25 31.32 99.25 26.5C99.25 21.68 95.33 17.75 90.5 17.75Z" fill="#5C5C5C"/>
<path d="M101 37.75C100.81 37.75 100.62 37.68 100.47 37.53L98.4699 35.53C98.1799 35.24 98.1799 34.76 98.4699 34.47C98.7599 34.18 99.2399 34.18 99.5299 34.47L101.53 36.47C101.82 36.76 101.82 37.24 101.53 37.53C101.38 37.68 101.19 37.75 101 37.75Z" fill="#5C5C5C"/>
<defs>
<clipPath id="clip0_808_432">
<rect width="13" height="22" fill="white" transform="translate(51 16)"/>
</clipPath>
</defs>
</svg>
