<svg width="38" height="38" viewBox="0 0 38 38" fill="none" xmlns="http://www.w3.org/2000/svg">
<rect width="38" height="38" rx="19" fill="url(#paint0_linear_348_5727)"/>
<path d="M15.71 14.371L18 12.071V21.661C18 21.9262 18.1054 22.1806 18.2929 22.3681C18.4804 22.5557 18.7348 22.661 19 22.661C19.2652 22.661 19.5196 22.5557 19.7071 22.3681C19.8946 22.1806 20 21.9262 20 21.661V12.071L22.29 14.371C22.383 14.4648 22.4936 14.5392 22.6154 14.5899C22.7373 14.6407 22.868 14.6668 23 14.6668C23.132 14.6668 23.2627 14.6407 23.3846 14.5899C23.5064 14.5392 23.617 14.4648 23.71 14.371C23.8037 14.2781 23.8781 14.1675 23.9289 14.0456C23.9797 13.9237 24.0058 13.793 24.0058 13.661C24.0058 13.529 23.9797 13.3983 23.9289 13.2765C23.8781 13.1546 23.8037 13.044 23.71 12.951L19.71 8.95103C19.6149 8.85999 19.5028 8.78862 19.38 8.74103C19.1365 8.64101 18.8635 8.64101 18.62 8.74103C18.4972 8.78862 18.3851 8.85999 18.29 8.95103L14.29 12.951C14.1968 13.0443 14.1228 13.155 14.0723 13.2768C14.0219 13.3986 13.9959 13.5292 13.9959 13.661C13.9959 13.7929 14.0219 13.9235 14.0723 14.0453C14.1228 14.1671 14.1968 14.2778 14.29 14.371C14.3832 14.4643 14.4939 14.5382 14.6158 14.5887C14.7376 14.6391 14.8681 14.6651 15 14.6651C15.1319 14.6651 15.2624 14.6391 15.3842 14.5887C15.5061 14.5382 15.6168 14.4643 15.71 14.371ZM28 18.661C27.7348 18.661 27.4804 18.7664 27.2929 18.9539C27.1054 19.1415 27 19.3958 27 19.661V25.661C27 25.9262 26.8946 26.1806 26.7071 26.3681C26.5196 26.5557 26.2652 26.661 26 26.661H12C11.7348 26.661 11.4804 26.5557 11.2929 26.3681C11.1054 26.1806 11 25.9262 11 25.661V19.661C11 19.3958 10.8946 19.1415 10.7071 18.9539C10.5196 18.7664 10.2652 18.661 10 18.661C9.73478 18.661 9.48043 18.7664 9.29289 18.9539C9.10536 19.1415 9 19.3958 9 19.661V25.661C9 26.4567 9.31607 27.2197 9.87868 27.7824C10.4413 28.345 11.2044 28.661 12 28.661H26C26.7956 28.661 27.5587 28.345 28.1213 27.7824C28.6839 27.2197 29 26.4567 29 25.661V19.661C29 19.3958 28.8946 19.1415 28.7071 18.9539C28.5196 18.7664 28.2652 18.661 28 18.661Z" fill="#C4C3C3"/>
<defs>
<linearGradient id="paint0_linear_348_5727" x1="19" y1="0" x2="19" y2="38" gradientUnits="userSpaceOnUse">
<stop stop-color="#2F292B"/>
<stop offset="1" stop-color="#040102"/>
</linearGradient>
</defs>
</svg>
