<svg width="84" height="29" viewBox="0 0 84 29" fill="none" xmlns="http://www.w3.org/2000/svg">
<path d="M47.1861 0.629999C47.3198 0.629999 47.4159 0.758651 47.3779 0.886836L44.6124 10.2168C44.5873 10.3018 44.5092 10.36 44.4207 10.36H42.916C42.8262 10.36 42.7474 10.3001 42.7233 10.2135L40.907 3.66958C40.8532 3.47584 40.5792 3.47367 40.5224 3.66654L38.5919 10.2177C38.567 10.3022 38.4898 10.3605 38.4017 10.3612L36.9105 10.3728C36.8204 10.3735 36.741 10.3139 36.7165 10.2273L34.072 0.884469C34.0359 0.756813 34.1318 0.629999 34.2645 0.629999H35.5385C35.63 0.629999 35.7098 0.692047 35.7323 0.780687L37.5239 7.82256C37.5745 8.02143 37.856 8.02421 37.9105 7.82639L39.8535 0.776858C39.8774 0.690102 39.9563 0.629999 40.0463 0.629999H41.531C41.6222 0.629999 41.7019 0.691756 41.7247 0.780117L43.5223 7.75999C43.5739 7.96015 43.8581 7.96015 43.9097 7.75999L45.7073 0.780117C45.7301 0.691756 45.8098 0.629999 45.901 0.629999H47.1861Z" fill="#0062FF"/>
<path d="M52.1163 10.486C51.3883 10.486 50.7303 10.3227 50.1423 9.996C49.5543 9.66 49.0923 9.19333 48.7563 8.596C48.4203 7.98933 48.2523 7.28933 48.2523 6.496C48.2523 5.712 48.425 5.01667 48.7703 4.41C49.1157 3.80333 49.587 3.33667 50.1843 3.01C50.7817 2.68333 51.449 2.52 52.1863 2.52C52.9237 2.52 53.591 2.68333 54.1883 3.01C54.7857 3.33667 55.257 3.80333 55.6023 4.41C55.9477 5.01667 56.1203 5.712 56.1203 6.496C56.1203 7.28 55.943 7.97533 55.5883 8.582C55.2337 9.18867 54.7483 9.66 54.1323 9.996C53.5257 10.3227 52.8537 10.486 52.1163 10.486ZM52.1163 9.1C52.527 9.1 52.9097 9.002 53.2643 8.806C53.6283 8.61 53.9223 8.316 54.1463 7.924C54.3703 7.532 54.4823 7.056 54.4823 6.496C54.4823 5.936 54.375 5.46467 54.1603 5.082C53.9457 4.69 53.661 4.396 53.3063 4.2C52.9517 4.004 52.569 3.906 52.1583 3.906C51.7477 3.906 51.365 4.004 51.0103 4.2C50.665 4.396 50.3897 4.69 50.1843 5.082C49.979 5.46467 49.8763 5.936 49.8763 6.496C49.8763 7.32667 50.0863 7.97067 50.5063 8.428C50.9357 8.876 51.4723 9.1 52.1163 9.1Z" fill="#0062FF"/>
<path d="M59.2941 3.03898C59.2941 3.24219 59.5979 3.33869 59.7465 3.19999C59.8885 3.06734 60.0457 2.95268 60.2181 2.856C60.5601 2.66054 60.9555 2.55035 61.4041 2.52545C61.5144 2.51933 61.6041 2.60954 61.6041 2.72V3.972C61.6041 4.08246 61.5145 4.172 61.4041 4.172H61.1981C60.5727 4.172 60.0967 4.33067 59.7701 4.648C59.4527 4.96533 59.2941 5.516 59.2941 6.3V10.16C59.2941 10.2705 59.2045 10.36 59.0941 10.36H57.8981C57.7876 10.36 57.6981 10.2705 57.6981 10.16V2.846C57.6981 2.73554 57.7876 2.646 57.8981 2.646H59.0941C59.2045 2.646 59.2941 2.73554 59.2941 2.846V3.03898Z" fill="#0062FF"/>
<path d="M66.248 6.37432C66.1774 6.45097 66.1775 6.56893 66.2482 6.64545L69.369 10.0243C69.4874 10.1524 69.3965 10.36 69.2221 10.36H67.6148C67.5566 10.36 67.5013 10.3346 67.4633 10.2905L65.0187 7.45045C64.8977 7.30988 64.6671 7.39545 64.6671 7.58093V10.16C64.6671 10.2705 64.5776 10.36 64.4671 10.36H63.2711C63.1607 10.36 63.0711 10.2705 63.0711 10.16V0.2C63.0711 0.0895434 63.1607 0 63.2711 0H64.4671C64.5776 0 64.6671 0.0895431 64.6671 0.2V5.46582C64.6671 5.65308 64.9014 5.73765 65.021 5.59354L67.4071 2.71828C67.4451 2.67249 67.5015 2.646 67.561 2.646H69.2233C69.3975 2.646 69.4884 2.85325 69.3704 2.98143L66.248 6.37432Z" fill="#0062FF"/>
<path d="M41.9475 18.43C41.8729 18.43 41.8049 18.3881 41.7679 18.3233C41.5212 17.891 41.1905 17.5625 40.776 17.338C40.328 17.086 39.81 16.96 39.222 16.96C38.578 16.96 38.004 17.1047 37.5 17.394C36.996 17.6833 36.5993 18.094 36.31 18.626C36.03 19.158 35.89 19.774 35.89 20.474C35.89 21.174 36.03 21.7947 36.31 22.336C36.5993 22.868 36.996 23.2787 37.5 23.568C38.004 23.8573 38.578 24.002 39.222 24.002C40.09 24.002 40.7947 23.7593 41.336 23.274C41.8268 22.8339 42.145 22.2519 42.2906 21.5279C42.3146 21.4084 42.2206 21.3 42.0987 21.3H38.876C38.7655 21.3 38.676 21.2105 38.676 21.1V20.226C38.676 20.1155 38.7655 20.026 38.876 20.026H43.838C43.9485 20.026 44.038 20.1155 44.038 20.226V21.272C43.9353 22.028 43.6647 22.7233 43.226 23.358C42.7967 23.9927 42.232 24.5013 41.532 24.884C40.8413 25.2573 40.0713 25.444 39.222 25.444C38.3073 25.444 37.472 25.234 36.716 24.814C35.96 24.3847 35.358 23.792 34.91 23.036C34.4713 22.28 34.252 21.426 34.252 20.474C34.252 19.522 34.4713 18.668 34.91 17.912C35.358 17.156 35.96 16.568 36.716 16.148C37.4813 15.7187 38.3167 15.504 39.222 15.504C40.258 15.504 41.1773 15.7607 41.98 16.274C42.712 16.7284 43.262 17.3572 43.6299 18.1605C43.6885 18.2884 43.5921 18.43 43.4513 18.43H41.9475Z" fill="#0062FF"/>
<path d="M45.0801 21.468C45.0801 20.6933 45.2388 20.0073 45.5561 19.41C45.8828 18.8127 46.3215 18.3507 46.8721 18.024C47.4321 17.688 48.0481 17.52 48.7201 17.52C49.3268 17.52 49.8541 17.6413 50.3021 17.884C50.5604 18.0158 50.789 18.1669 50.9877 18.3374C51.1329 18.462 51.3941 18.3656 51.3941 18.1743V17.846C51.3941 17.7355 51.4837 17.646 51.5941 17.646H52.8041C52.9146 17.646 53.0041 17.7355 53.0041 17.846V25.16C53.0041 25.2705 52.9146 25.36 52.8041 25.36H51.5941C51.4837 25.36 51.3941 25.2705 51.3941 25.16V24.8161C51.3941 24.6235 51.1289 24.5272 50.9838 24.6539C50.783 24.8292 50.5512 24.9852 50.2881 25.122C49.8215 25.3647 49.2895 25.486 48.6921 25.486C48.0295 25.486 47.4228 25.318 46.8721 24.982C46.3215 24.6367 45.8828 24.1607 45.5561 23.554C45.2388 22.938 45.0801 22.2427 45.0801 21.468ZM51.3941 21.496C51.3941 20.964 51.2821 20.502 51.0581 20.11C50.8435 19.718 50.5588 19.4193 50.2041 19.214C49.8495 19.0087 49.4668 18.906 49.0561 18.906C48.6455 18.906 48.2628 19.0087 47.9081 19.214C47.5535 19.41 47.2641 19.704 47.0401 20.096C46.8255 20.4787 46.7181 20.936 46.7181 21.468C46.7181 22 46.8255 22.4667 47.0401 22.868C47.2641 23.2693 47.5535 23.5773 47.9081 23.792C48.2721 23.9973 48.6548 24.1 49.0561 24.1C49.4668 24.1 49.8495 23.9973 50.2041 23.792C50.5588 23.5867 50.8435 23.288 51.0581 22.896C51.2821 22.4947 51.3941 22.028 51.3941 21.496Z" fill="#0062FF"/>
<path d="M56.4964 15C56.6069 15 56.6964 15.0895 56.6964 15.2V25.16C56.6964 25.2705 56.6069 25.36 56.4964 25.36H55.3004C55.1899 25.36 55.1004 25.2705 55.1004 25.16V15.2C55.1004 15.0895 55.1899 15 55.3004 15H56.4964Z" fill="#0062FF"/>
<path d="M60.1878 15C60.2983 15 60.3878 15.0895 60.3878 15.2V25.16C60.3878 25.2705 60.2983 25.36 60.1878 25.36H58.9918C58.8814 25.36 58.7918 25.2705 58.7918 25.16V15.2C58.7918 15.0895 58.8814 15 58.9918 15H60.1878Z" fill="#0062FF"/>
<path d="M69.5532 21.314C69.5532 21.5354 69.5423 21.7404 69.5204 21.9291C69.5091 22.0267 69.4249 22.098 69.3267 22.098H63.8189C63.7025 22.098 63.6099 22.1973 63.6275 22.3123C63.7068 22.8298 63.9273 23.253 64.2892 23.582C64.6999 23.9553 65.2039 24.142 65.8012 24.142C66.6148 24.142 67.2022 23.8194 67.5633 23.1741C67.6005 23.1077 67.6694 23.064 67.7455 23.064H69.0669C69.2031 23.064 69.2993 23.1972 69.2472 23.323C69.0012 23.9166 68.6085 24.4136 68.0692 24.814C67.4626 25.262 66.7066 25.486 65.8012 25.486C65.0639 25.486 64.4012 25.3227 63.8132 24.996C63.2346 24.66 62.7772 24.1933 62.4412 23.596C62.1146 22.9893 61.9512 22.2893 61.9512 21.496C61.9512 20.7027 62.1099 20.0073 62.4272 19.41C62.7539 18.8033 63.2066 18.3367 63.7852 18.01C64.3732 17.6833 65.0452 17.52 65.8012 17.52C66.5292 17.52 67.1779 17.6787 67.7472 17.996C68.3166 18.3133 68.7599 18.7613 69.0772 19.34C69.3946 19.9093 69.5532 20.5673 69.5532 21.314ZM67.684 20.81C67.7957 20.81 67.8868 20.7183 67.8756 20.6071C67.8256 20.1126 67.6195 19.7089 67.2572 19.396C66.8465 19.0413 66.3379 18.864 65.7312 18.864C65.1806 18.864 64.7092 19.0413 64.3172 19.396C63.9755 19.6971 63.7543 20.0939 63.6538 20.5864C63.6297 20.7043 63.7235 20.81 63.8438 20.81H67.684Z" fill="#0062FF"/>
<path d="M72.7198 18.039C72.7198 18.2422 73.0237 18.3387 73.1723 18.2C73.3143 18.0673 73.4715 17.9527 73.6438 17.856C73.9859 17.6605 74.3813 17.5504 74.8299 17.5255C74.9402 17.5193 75.0298 17.6095 75.0298 17.72V18.972C75.0298 19.0825 74.9403 19.172 74.8298 19.172H74.6238C73.9985 19.172 73.5225 19.3307 73.1958 19.648C72.8785 19.9653 72.7198 20.516 72.7198 21.3V25.16C72.7198 25.2705 72.6303 25.36 72.5198 25.36H71.3238C71.2134 25.36 71.1238 25.2705 71.1238 25.16V17.846C71.1238 17.7355 71.2134 17.646 71.3238 17.646H72.5198C72.6303 17.646 72.7198 17.7355 72.7198 17.846V18.039Z" fill="#0062FF"/>
<path d="M83.1407 17.646C83.2835 17.646 83.3803 17.7913 83.3253 17.923L78.7602 28.863C78.7291 28.9375 78.6563 28.986 78.5756 28.986H77.3572C77.2144 28.986 77.1176 28.8406 77.1727 28.7089L78.5933 25.3095C78.6136 25.2611 78.614 25.2067 78.5945 25.158L75.6967 17.9203C75.6441 17.789 75.7409 17.646 75.8824 17.646H77.2255C77.3093 17.646 77.3841 17.6982 77.4131 17.7768L79.3508 23.0272C79.4147 23.2004 79.6591 23.2019 79.7252 23.0296L81.7397 17.7744C81.7693 17.6971 81.8436 17.646 81.9264 17.646H83.1407Z" fill="#0062FF"/>
<rect y="0.359863" width="26" height="26" rx="6" fill="#0062FF"/>
<rect x="7" y="10.3599" width="12" height="2" rx="1" fill="white"/>
<rect x="7" y="14.3599" width="12" height="2" rx="1" fill="white"/>
</svg>
