<svg width="24" height="24" viewBox="0 0 24 24" fill="none" xmlns="http://www.w3.org/2000/svg">
<g clip-path="url(#clip0_374_27036)">
<path d="M18.4031 0.632812H5.59692C2.8597 0.632812 0.632812 2.8597 0.632812 5.59692V18.4031C0.632812 21.1403 2.8597 23.3672 5.59692 23.3672H18.4031C21.1403 23.3672 23.3672 21.1403 23.3672 18.4031V5.59692C23.3672 2.8597 21.1403 0.632812 18.4031 0.632812ZM22.1953 18.4031C22.1953 20.4941 20.4941 22.1953 18.4031 22.1953H5.59692C3.50588 22.1953 1.80469 20.4941 1.80469 18.4031V5.59692C1.80469 3.50588 3.50588 1.80469 5.59692 1.80469H18.4031C20.4941 1.80469 22.1953 3.50588 22.1953 5.59692V18.4031ZM13.6137 10.925L18.0364 5.41275C18.2389 5.16033 18.1984 4.79156 17.946 4.58902C17.6936 4.38656 17.3249 4.42692 17.1223 4.67939L12.8625 9.98869L8.60269 4.67939C8.49145 4.54078 8.32336 4.46011 8.14566 4.46011H4.69561C4.47023 4.46011 4.26483 4.58939 4.16733 4.79259C4.06983 4.9958 4.09753 5.23692 4.23858 5.4127L10.3862 13.075L5.96358 18.5872C5.76108 18.8397 5.80153 19.2084 6.05391 19.411C6.16209 19.4978 6.29156 19.5399 6.42023 19.5399C6.5918 19.5399 6.76191 19.4648 6.87764 19.3206L11.1375 14.0113L15.3973 19.3206C15.5085 19.4592 15.6766 19.5399 15.8543 19.5399H19.3043C19.3047 19.5399 19.305 19.5399 19.3053 19.5399C19.6289 19.5399 19.8912 19.2776 19.8912 18.954C19.8912 18.8046 19.8353 18.6683 19.7433 18.5648L13.6137 10.925ZM16.1355 18.368L5.91698 5.63198H7.86455L18.083 18.368H16.1355Z" fill="white"/>
</g>
<defs>
<clipPath id="clip0_374_27036">
<rect width="24" height="24" fill="white"/>
</clipPath>
</defs>
</svg>
